<svg width="777" height="494.99999999999994" xmlns="http://www.w3.org/2000/svg">

 <g>
  <title>background</title>
  <rect fill="none" id="canvas_background" height="497" width="779" y="-1" x="-1"/>
 </g>
 <g>
  <title>Layer 1</title>
  <path fill="#ffffff" id="svg_1" d="m485.133007,183.148c-0.442,-6.254 -1.385,-12.779 -2.881,-19.939c-1.334,-8.647 -6.194,-16.362 -14.85,-23.574c-0.131,-0.109 -0.265,-0.216 -0.402,-0.318c-5.232,-3.924 -9.972,-6.65 -14.916,-8.581c-6.108,-2.384 -11.479,-3.571 -16.804,-3.706c-1.391,-0.146 -2.826,0.001 -4.199,0.459c-1.233,0.411 -2.737,0.664 -4.367,0.869c-0.951,-1.024 -2.109,-1.875 -3.447,-2.46c-1.703,-0.746 -3.584,-1.003 -5.422,-0.738c-2.189,0.313 -4.378,0.665 -6.568,1.019c-3.726,0.601 -7.243,1.169 -10.754,1.535c-6.069,0.633 -11.945,1.145 -17.466,1.522c-4.43,0.302 -8.847,0.44 -13.523,0.587c-1.337,0.042 -2.675,0.083 -4.014,0.129c-2.941,0.101 -6,-0.039 -9.239,-0.188c-2.688,-0.124 -5.438,-0.244 -8.325,-0.244c-2.07,0.006 -4.142,0.034 -6.214,0.063c-3.927,0.054 -7.634,0.106 -11.354,0.004c-6.198,-0.169 -11.946,-0.404 -17.572,-0.717c-0.061,-0.003 -0.121,-0.006 -0.182,-0.009c-3.075,-0.115 -6.116,-0.12 -9.057,-0.125c-3.243,-0.005 -6.308,-0.01 -9.342,-0.153c-2.988,-0.141 -5.986,-0.408 -9.161,-0.691c-2.991,-0.266 -6.084,-0.542 -9.221,-0.708c-3.294,-0.175 -6.586,-0.377 -9.879,-0.58c-2.851,-0.175 -5.701,-0.351 -8.554,-0.509c-3.231,-0.179 -6.466,-0.287 -9.594,-0.392c-2.934,-0.098 -5.966,-0.2 -8.895,-0.358c-2.789,-0.151 -5.665,-0.354 -8.445,-0.551c-3.277,-0.232 -6.666,-0.472 -10.055,-0.638c-3.473,-0.17 -6.908,-0.203 -10.231,-0.234c-2.889,-0.027 -5.617,-0.053 -8.344,-0.163c-2.289,-0.092 -4.577,-0.201 -6.865,-0.31c-3.828,-0.181 -7.785,-0.369 -11.731,-0.478c-1.925,-0.053 -3.849,-0.115 -5.773,-0.176c-4.201,-0.134 -8.544,-0.272 -12.869,-0.322c-4.344,-0.049 -8.694,0.011 -12.9,0.071c-1.929,0.027 -3.857,0.055 -5.785,0.071c-1.962,0.017 -3.924,0.02 -5.887,0.023c-4.182,0.007 -8.506,0.014 -12.834,0.154c-1.469,0.047 -2.938,0.09 -4.408,0.132c-4.677,0.136 -9.514,0.277 -14.343,0.564l-1.629,0.097c-5.591,0.331 -11.372,0.673 -17.128,1.194c-2.963,0.268 -5.825,0.644 -8.614,1.04c-1.69,-2.139 -4.22,-3.562 -7.075,-3.782c-6.919,-0.531 -14.203,-0.211 -21.651,0.957c-7.524,1.179 -14.576,3.126 -20.958,5.786c-0.304,0.127 -0.602,0.269 -0.893,0.425c-8.44,4.544 -15.129,9.899 -19.881,15.917c-5.622,7.118 -9.263,15.572 -10.531,24.447c-0.067,0.468 -0.101,0.941 -0.101,1.414c0,6.33 0.64,13.917 1.955,23.186c0.19,2.224 0.428,4.417 0.659,6.54c0.401,3.693 0.779,7.182 0.896,10.603c0.143,4.217 0.17,8.578 0.197,12.794c0.011,1.663 0.021,3.325 0.039,4.987c0.034,3.28 0.099,6.56 0.164,9.839c0.054,2.731 0.109,5.462 0.145,8.193c0.02,1.557 0.034,3.114 0.047,4.672c0.039,4.394 0.079,8.937 0.266,13.487c0.063,3.959 0.055,8.023 0.046,11.954c-0.005,1.997 -0.009,3.993 -0.005,5.986c0.005,2.706 0.052,5.41 0.1,8.113c0.061,3.448 0.118,6.704 0.09,9.986c-0.025,2.899 -0.197,5.833 -0.379,8.939c-0.174,2.976 -0.354,6.052 -0.403,9.188c-0.05,3.307 0.096,6.516 0.238,9.619c0.136,2.993 0.265,5.821 0.216,8.569c-0.047,2.648 -0.301,5.399 -0.57,8.311c-0.293,3.177 -0.597,6.462 -0.653,9.884c-0.056,3.35 0.028,6.649 0.108,9.841c0.074,2.92 0.144,5.678 0.113,8.423l-0.014,1.225c-0.063,5.585 -0.127,11.361 -0.139,17.069c-0.005,2.464 -0.043,4.93 -0.081,7.396c-0.055,3.564 -0.111,7.249 -0.069,10.942c0.026,2.326 0.025,4.655 0.023,6.985c-0.002,3.71 -0.005,7.547 0.104,11.395c0.104,3.643 0.462,7.147 0.809,10.537c0.278,2.718 0.541,5.285 0.666,7.811c0.024,0.493 0.085,0.984 0.182,1.469c1.017,5.087 2.995,10.589 5.877,16.354c0.17,0.341 0.359,0.67 0.566,0.988c0.03,0.1 0.061,0.201 0.093,0.304c0.338,1.089 0.801,2.579 1.591,4.158c0.186,0.371 0.394,0.73 0.624,1.075c2.667,4.002 5.89,7.341 9.586,9.938c2.799,2.441 5.836,3.444 7.719,4.066c0.344,0.113 0.816,0.27 0.89,0.297c6.29,3.146 13.319,4.698 20.957,4.686c3.438,-0.017 7.102,-0.389 11.049,-1.106c0.747,0.652 1.581,1.207 2.498,1.615c0.865,0.546 1.821,0.963 2.839,1.227c2.378,0.618 4.862,0.324 6.997,-0.748c3.998,-0.285 8.125,-0.578 12.149,-0.8c3.17,-0.175 6.328,-0.252 9.67,-0.334c2.533,-0.062 5.066,-0.124 7.595,-0.229c2.615,-0.107 5.222,-0.266 7.743,-0.419c3.288,-0.2 6.393,-0.389 9.511,-0.475c2.588,-0.071 5.173,-0.189 7.672,-0.304c3.317,-0.151 6.45,-0.295 9.596,-0.339c3.044,-0.044 6.099,0.03 9.331,0.106c2.548,0.06 5.182,0.122 7.831,0.124c3.114,0.069 6.183,0.013 9.151,-0.041c3.117,-0.058 6.062,-0.112 8.97,-0.026c3.119,0.092 6.338,0.248 9.452,0.399c2.867,0.139 5.832,0.282 8.79,0.381c2.916,0.098 5.832,0.298 8.92,0.51c3.028,0.208 6.159,0.423 9.326,0.535c3.24,0.113 6.435,0.095 9.524,0.077c3.043,-0.019 5.917,-0.035 8.768,0.067c3.207,0.115 6.415,0.196 9.623,0.277c2.894,0.073 5.787,0.146 8.677,0.245c2.632,0.091 5.368,0.396 8.266,0.719c3.216,0.357 6.541,0.729 10.021,0.837c3.375,0.105 6.764,0.15 10.04,0.194c2.769,0.037 5.536,0.074 8.306,0.147c3.414,0.089 6.826,0.097 10.126,0.104c2.714,0.007 5.521,0.014 8.235,0.066c3.569,0.07 7.142,0.067 10.599,0.059c2.596,-0.006 5.191,-0.01 7.781,0.019c2.672,0.03 5.363,0.168 8.213,0.313c3.297,0.169 6.705,0.343 10.182,0.345c0.133,0 0.265,0 0.397,0c4.112,0 8.249,-0.06 12.254,-0.118c1.923,-0.028 3.845,-0.057 5.769,-0.078c4.791,-0.054 9.622,-0.182 14.295,-0.306l4.139,-0.107c4.826,-0.122 9.686,-0.329 14.384,-0.53l4.057,-0.171c2.155,-0.089 4.357,-0.161 6.573,-0.235c2.474,-0.082 4.993,-0.175 7.507,-0.282c1.143,0.464 2.35,0.736 3.574,0.796c3.276,0.95 6.425,1.308 9.379,1.308c4.025,0 7.692,-0.664 10.831,-1.396c5.311,-1.238 10.222,-3.073 14.971,-4.848c1.12,-0.418 2.231,-0.833 3.333,-1.233c0.218,-0.08 0.434,-0.166 0.646,-0.261c6.069,-2.698 11.228,-6.16 15.332,-10.291c4.075,-4.103 7.125,-8.606 9.098,-13.428c0.32,-0.262 0.645,-0.552 0.967,-0.873c0.466,-0.466 0.884,-0.977 1.249,-1.524c2.647,-3.972 2.964,-7.923 3.152,-10.284c0.037,-0.463 0.087,-1.09 0.135,-1.335c0.323,-0.996 0.488,-2.038 0.488,-3.086c0,-2.498 -0.213,-4.634 -0.401,-6.518c-0.162,-1.624 -0.303,-3.026 -0.303,-4.528c0,-0.141 -0.003,-0.281 -0.009,-0.422c-0.121,-2.869 -0.065,-5.809 -0.006,-8.921c0.054,-2.811 0.109,-5.716 0.03,-8.687c-0.071,-2.685 -0.199,-5.36 -0.322,-7.947c-0.159,-3.34 -0.31,-6.495 -0.35,-9.661c-0.036,-2.765 -0.136,-5.518 -0.232,-8.18c-0.119,-3.271 -0.231,-6.361 -0.234,-9.452c-0.002,-2.917 0.132,-5.862 0.273,-8.98c0.127,-2.813 0.26,-5.722 0.288,-8.675c0.027,-2.979 -0.05,-5.919 -0.125,-8.763c-0.082,-3.095 -0.159,-6.019 -0.107,-8.917c0.058,-3.211 0.177,-6.521 0.292,-9.722c0.096,-2.653 0.19,-5.307 0.256,-7.959c0.077,-3.102 0.213,-6.299 0.344,-9.392c0.118,-2.768 0.235,-5.535 0.316,-8.303c0.084,-2.803 0.138,-5.606 0.19,-8.411c0.06,-3.104 0.118,-6.208 0.22,-9.31c0.091,-2.74 0.315,-5.516 0.553,-8.453c0.243,-2.995 0.494,-6.092 0.603,-9.259c0.104,-3.016 0.181,-6.032 0.258,-9.048c0.074,-2.902 0.148,-5.804 0.247,-8.705c0.094,-2.765 0.21,-5.53 0.326,-8.294c0.132,-3.156 0.264,-6.313 0.365,-9.473c0.102,-3.201 0.142,-6.41 0.181,-9.513c0.034,-2.76 0.068,-5.521 0.146,-8.279c0.003,-0.094 0.004,-0.188 0.004,-0.282c0,-3.077 0.004,-6.155 0.008,-9.233c0.004,-3.279 0.008,-6.559 0.007,-9.837c0,-1.308 0.007,-2.618 0.014,-3.928c0.023,-5.138 0.051,-10.452 -0.333,-15.855zm-377.117,-39.598l1.635,-0.097c4.525,-0.269 9.208,-0.405 13.736,-0.537c1.49,-0.043 2.98,-0.087 4.47,-0.135c4.023,-0.129 8.007,-0.136 12.224,-0.143c2.008,-0.003 4.017,-0.007 6.025,-0.024c1.965,-0.017 3.93,-0.044 5.895,-0.072c4.082,-0.058 8.302,-0.118 12.392,-0.07c4.119,0.046 8.358,0.182 12.458,0.313c1.953,0.063 3.906,0.125 5.859,0.179c3.748,0.104 7.605,0.287 11.336,0.463c2.335,0.111 4.671,0.222 7.009,0.316c3.034,0.122 6.045,0.15 8.958,0.178c3.272,0.031 6.362,0.06 9.44,0.211c3.173,0.156 6.452,0.388 9.622,0.612c2.862,0.203 5.823,0.413 8.778,0.572c3.133,0.169 6.271,0.275 9.305,0.376c3.021,0.101 6.144,0.206 9.158,0.373c2.812,0.156 5.621,0.329 8.432,0.501c3.349,0.206 6.696,0.412 10.045,0.589c2.78,0.148 5.562,0.396 8.508,0.658c3.239,0.288 6.589,0.587 9.993,0.747c3.489,0.165 6.928,0.17 10.254,0.175c2.858,0.004 5.562,0.009 8.248,0.107c5.787,0.322 11.692,0.563 18.047,0.735c4.133,0.114 8.222,0.057 12.177,0.002c1.998,-0.028 3.995,-0.056 5.992,-0.061c2.387,0.01 4.79,0.105 7.353,0.223c3.493,0.16 7.104,0.325 10.845,0.197c1.317,-0.045 2.635,-0.086 3.952,-0.127c4.651,-0.146 9.462,-0.296 14.261,-0.624c1.408,-0.096 2.837,-0.201 4.286,-0.313c-1.469,1.208 -2.949,2.413 -4.424,3.593c-0.614,0.491 -1.162,1.048 -1.636,1.656c-0.297,0.276 -0.567,0.56 -0.814,0.847c-2.116,1.512 -4.312,3.301 -6.303,5.539c-1.557,0.42 -3.502,1.208 -5.269,2.846c-2.269,2.009 -4.377,4.056 -6.416,6.037c-2.43,2.36 -4.725,4.59 -7.076,6.55c-3.129,2.607 -6.442,5.173 -9.647,7.655c-1.671,1.294 -3.338,2.585 -4.987,3.886c-2.745,2.165 -5.591,4.198 -8.604,6.35c-2.11,1.507 -4.292,3.065 -6.445,4.68c-1.392,1.043 -2.78,2.092 -4.168,3.14c-3.533,2.668 -7.187,5.426 -10.814,8.031l-2.56,1.839c-4.143,2.978 -8.425,6.057 -12.706,9.025c-2.729,1.893 -5.522,3.709 -8.479,5.633c-2.346,1.526 -4.771,3.104 -7.188,4.739c-2.304,1.559 -4.604,3.158 -6.923,4.77c-2.808,1.952 -5.711,3.97 -8.608,5.902c-0.548,0.365 -1.059,0.784 -1.524,1.249l-0.327,0.328c-1.218,1.22 -2.255,2.259 -3.463,3.235c-1.629,0.344 -3.158,1.093 -4.439,2.191c-0.863,0.74 -1.714,1.48 -2.559,2.215c-2.395,2.085 -4.649,4.043 -6.928,5.757c-1.562,-1.359 -3.126,-2.672 -4.672,-3.965c-0.938,-0.785 -1.876,-1.569 -2.807,-2.36c-4.411,-3.749 -9.41,-7.997 -13.571,-12.621c-0.118,-0.13 -0.238,-0.258 -0.362,-0.382c-1.33,-1.33 -2.679,-2.448 -3.87,-3.435c-0.937,-0.777 -1.821,-1.51 -2.491,-2.18c-2.919,-2.919 -5.854,-5.23 -8.691,-7.465c-2.49,-1.961 -4.842,-3.813 -6.923,-5.895c-0.214,-0.214 -0.438,-0.417 -0.67,-0.611c-1.957,-1.63 -3.833,-3.481 -5.818,-5.441c-2.075,-2.048 -4.221,-4.166 -6.619,-6.184c-1.306,-1.099 -2.606,-2.196 -3.903,-3.292c-3.081,-2.602 -6.146,-5.19 -9.237,-7.743c-2.689,-2.222 -5.441,-4.081 -8.102,-5.879c-2.125,-1.436 -4.133,-2.792 -5.958,-4.231c-1.578,-1.244 -3.141,-2.524 -4.714,-3.813c-2.772,-2.27 -5.638,-4.616 -8.727,-6.9c-5.933,-4.743 -10.356,-8.061 -14.764,-11.077c-1.645,-1.125 -3.303,-2.198 -4.906,-3.236c-3.228,-2.089 -6.276,-4.063 -9.264,-6.453c-0.081,-0.065 -0.163,-0.128 -0.247,-0.191c-4.609,-3.457 -9.251,-6.61 -13.75,-9.564c0.558,-0.03 1.125,-0.066 1.68,-0.099zm286.558,329.495l-4.085,0.172c-4.613,0.196 -9.385,0.4 -14.037,0.518l-4.163,0.108c-4.599,0.122 -9.353,0.248 -13.991,0.301c-1.944,0.021 -3.89,0.05 -5.835,0.078c-4.058,0.06 -8.278,0.106 -12.343,0.116c-2.977,-0.002 -5.989,-0.155 -9.18,-0.318c-2.919,-0.148 -5.938,-0.303 -9.012,-0.337c-1.709,-0.019 -3.419,-0.023 -5.128,-0.023c-0.969,0 -1.938,0.001 -2.906,0.003c-3.35,0.008 -6.815,0.012 -10.173,-0.055c-2.888,-0.057 -5.782,-0.063 -8.58,-0.07c-3.184,-0.008 -6.476,-0.016 -9.648,-0.098c-2.854,-0.076 -5.709,-0.114 -8.563,-0.152c-3.189,-0.043 -6.486,-0.087 -9.683,-0.187c-2.683,-0.084 -5.476,-0.395 -8.432,-0.724c-3.143,-0.351 -6.393,-0.713 -9.791,-0.83c-2.953,-0.102 -5.907,-0.176 -8.86,-0.25c-3.138,-0.079 -6.274,-0.158 -9.408,-0.271c-3.269,-0.118 -6.489,-0.099 -9.605,-0.081c-3.021,0.018 -5.872,0.036 -8.699,-0.065c-2.835,-0.1 -5.666,-0.294 -8.663,-0.5c-3.126,-0.215 -6.358,-0.437 -9.626,-0.545c-2.83,-0.095 -5.657,-0.232 -8.484,-0.369c-3.207,-0.156 -6.523,-0.317 -9.834,-0.415c-3.389,-0.099 -6.712,-0.037 -9.927,0.021c-2.928,0.055 -5.694,0.106 -8.431,0.041c-0.079,-0.002 -0.157,-0.003 -0.236,-0.003c-2.452,0 -4.891,-0.058 -7.474,-0.118c-3.272,-0.077 -6.655,-0.156 -10.081,-0.11c-3.464,0.049 -6.904,0.206 -10.231,0.357c-2.411,0.11 -4.903,0.225 -7.311,0.291c-3.448,0.095 -6.866,0.303 -10.171,0.504c-2.538,0.153 -4.934,0.299 -7.357,0.399c-2.418,0.1 -4.838,0.158 -7.258,0.218c-3.345,0.082 -6.805,0.166 -10.282,0.358c-2.505,0.138 -5.019,0.301 -7.508,0.472c-0.285,-2.973 -0.367,-6.088 -0.367,-9.479c0,-0.229 -0.008,-0.458 -0.023,-0.687c-0.217,-3.155 -0.329,-6.306 -0.446,-9.641c-0.087,-2.478 -0.178,-5.04 -0.316,-7.604l-0.021,-0.38c-0.041,-0.757 -0.081,-1.525 -0.122,-2.289c-0.005,-0.212 -0.002,-0.419 -0.008,-0.632c-0.075,-2.743 -0.235,-5.45 -0.39,-8.069c-0.062,-1.055 -0.121,-2.087 -0.176,-3.11c-0.038,-0.912 -0.077,-1.826 -0.109,-2.733c-0.034,-0.955 -0.067,-1.931 -0.097,-2.92c-0.004,-0.312 -0.014,-0.626 -0.015,-0.937c-0.025,-7.197 -0.005,-12.702 0.064,-17.848c0.039,-2.853 0.249,-5.763 0.472,-8.844c0.211,-2.927 0.43,-5.952 0.503,-9.053c0.071,-2.966 0.087,-5.937 0.104,-8.809c0.017,-3.023 0.034,-6.15 0.116,-9.168c0.076,-2.787 0.192,-5.574 0.307,-8.36c0.13,-3.157 0.265,-6.422 0.343,-9.678c0.002,-0.079 0.003,-0.159 0.003,-0.238c0,-1.822 -0.004,-3.646 -0.008,-5.468c-0.01,-4.09 -0.02,-8.318 0.022,-12.445c0.031,-3.048 -0.06,-6.047 -0.147,-8.946c-0.095,-3.123 -0.184,-6.073 -0.127,-8.982c0.052,-2.657 0.344,-5.441 0.653,-8.389c0.321,-3.052 0.652,-6.207 0.746,-9.508c0.084,-2.975 0.078,-5.925 0.071,-8.777c-0.007,-3.173 -0.014,-6.17 0.095,-9.156c0.111,-3.049 0.317,-6.083 0.536,-9.295c0.19,-2.802 0.388,-5.7 0.516,-8.614c0.142,-3.235 0.083,-6.374 0.026,-9.409c-0.056,-2.996 -0.109,-5.825 0.029,-8.553c0.143,-2.806 0.447,-5.658 0.77,-8.677c0.145,-1.358 0.289,-2.743 0.424,-4.142c1.696,1.382 3.638,2.673 5.987,3.539c0.087,0.071 0.178,0.147 0.258,0.213c0.56,0.464 1.295,1.074 2.254,1.711c0.393,0.496 0.939,1.157 1.708,1.926c0.487,0.486 1.022,0.922 1.599,1.298c2.754,1.801 5.418,3.741 8.238,5.795c2.006,1.461 4.08,2.972 6.202,4.437c1.628,1.124 3.259,2.232 4.887,3.339c3.37,2.291 6.553,4.454 9.681,6.724c1.872,1.358 3.757,2.69 5.639,4.019c3.053,2.157 5.937,4.194 8.751,6.331c2.705,2.054 5.317,4.192 8.083,6.457c1.912,1.565 3.823,3.128 5.756,4.657c2.705,2.138 5.317,4.337 8.083,6.666c1.861,1.566 3.722,3.131 5.601,4.67c2.089,1.71 4.206,3.373 6.252,4.981c2.668,2.096 5.188,4.075 7.646,6.147c2.176,1.833 4.385,3.598 6.522,5.306c2.5,1.997 4.861,3.887 7.151,5.856c1.365,1.337 2.733,2.669 4.104,3.976c1.749,1.667 3.467,3.354 5.183,5.036c2.206,2.164 4.486,4.401 6.815,6.584c2.185,2.049 4.304,4.122 6.548,6.318c1.767,1.729 3.538,3.463 5.339,5.18c1.94,1.85 3.903,3.552 5.801,5.197c2.225,1.931 4.327,3.753 6.275,5.701c1.875,1.874 4.419,2.928 7.07,2.928c5.563,0 9.243,-3.003 11.22,-4.617c0.101,-0.082 0.214,-0.174 0.325,-0.264c2.938,-0.52 5.434,-2.321 6.888,-4.807c0.001,-0.001 0.002,-0.002 0.003,-0.003c5.705,-2.896 10.357,-5.557 14.548,-8.316c1.955,-1.287 3.848,-2.617 5.679,-3.903c2.766,-1.943 5.378,-3.778 8.087,-5.403c0.446,-0.268 0.87,-0.569 1.27,-0.903c0.446,-0.373 0.819,-0.724 1.136,-1.049c4.206,-2.379 7.868,-4.974 11.374,-7.543c0.995,-0.69 1.981,-1.378 2.952,-2.059c1.515,-1.063 3.026,-2.123 4.551,-3.16c1.601,-1.089 3.22,-2.15 4.84,-3.213c2.953,-1.937 6.007,-3.939 9.021,-6.14c1.58,-1.153 3.185,-2.283 4.795,-3.418c0.639,-0.451 1.285,-0.906 1.933,-1.365c1.186,-0.587 2.438,-1.261 3.753,-2.138c0.14,-0.093 0.276,-0.189 0.411,-0.289c3.208,-2.38 6.356,-4.761 9.474,-7.12c1.777,-1.344 3.543,-2.68 5.305,-4.004c2.281,-1.713 4.596,-3.335 7.047,-5.052c2.617,-1.833 5.324,-3.729 7.971,-5.739l4.211,-3.195c3.515,-2.665 7.013,-5.318 10.493,-7.981c2.156,-1.649 4.317,-3.288 6.479,-4.928c2.736,-2.075 5.475,-4.151 8.204,-6.249c2.715,-2.085 5.182,-4.294 7.566,-6.429c1.759,-1.576 3.443,-3.077 5.141,-4.462c-0.038,1.306 -0.082,2.625 -0.131,3.973c-0.107,2.989 -0.219,6.079 -0.219,9.151c0,0.164 0.004,0.328 0.012,0.491c0.149,3.027 0.448,5.968 0.737,8.813c0.329,3.226 0.639,6.272 0.714,9.223l0.049,1.882c0.138,5.338 0.281,10.858 0.319,16.239c0.038,5.218 0.005,10.56 -0.027,15.726l-0.016,2.451c-0.015,2.557 -0.123,5.133 -0.249,7.813c-0.043,0.551 -0.084,1.103 -0.127,1.654c-0.229,2.943 -0.459,5.887 -0.658,8.83c-0.223,3.298 -0.284,6.538 -0.344,9.671c-0.058,3.014 -0.112,5.86 -0.3,8.661c-0.188,2.786 -0.486,5.581 -0.803,8.541c-0.339,3.157 -0.688,6.422 -0.899,9.75c-0.149,2.352 -0.309,4.701 -0.468,7.051c-0.255,3.768 -0.509,7.534 -0.726,11.298c-0.205,3.537 -0.33,7.08 -0.451,10.507c-0.093,2.633 -0.186,5.265 -0.317,7.95c-0.077,1.763 -0.16,3.518 -0.243,5.269c-0.185,3.889 -0.376,7.909 -0.486,11.888c-0.088,3.182 -0.117,6.36 -0.145,9.433c-0.022,2.545 -0.046,5.086 -0.102,7.626l-0.063,2.869c-0.104,4.684 -0.207,9.37 -0.337,14.08c-0.057,2.057 -0.098,4.115 -0.14,6.179c-0.069,3.494 -0.142,7.108 -0.295,10.643c-0.049,1.13 0.104,2.244 0.422,3.305c-1.77,0.062 -3.526,0.123 -5.249,0.194zm70.889,-274.144c-0.007,1.345 -0.014,2.69 -0.014,4.033c0.001,3.27 -0.003,6.541 -0.007,9.811c-0.004,3.04 -0.008,6.079 -0.008,9.118c-0.079,2.841 -0.114,5.692 -0.149,8.45c-0.037,3.009 -0.076,6.12 -0.172,9.126c-0.099,3.091 -0.229,6.182 -0.357,9.272c-0.118,2.817 -0.236,5.634 -0.332,8.452c-0.101,2.957 -0.177,5.915 -0.252,8.873c-0.076,2.958 -0.151,5.917 -0.253,8.874c-0.093,2.703 -0.314,5.437 -0.549,8.332c-0.246,3.043 -0.501,6.19 -0.606,9.411c-0.105,3.193 -0.167,6.39 -0.228,9.585c-0.052,2.733 -0.104,5.467 -0.185,8.2c-0.08,2.683 -0.194,5.364 -0.308,8.046c-0.136,3.18 -0.275,6.467 -0.356,9.747c-0.063,2.578 -0.156,5.155 -0.249,7.732c-0.118,3.291 -0.24,6.693 -0.301,10.084c-0.061,3.34 0.026,6.625 0.11,9.803c0.073,2.79 0.144,5.426 0.118,8.045c-0.024,2.593 -0.143,5.198 -0.268,7.957c-0.146,3.208 -0.297,6.525 -0.294,9.903c0.003,3.447 0.127,6.861 0.247,10.164c0.097,2.664 0.188,5.181 0.222,7.71c0.045,3.512 0.21,6.99 0.37,10.355c0.124,2.599 0.241,5.054 0.308,7.528c0.066,2.512 0.018,5.066 -0.034,7.771c-0.062,3.213 -0.125,6.534 0.012,9.944c0.012,2.404 0.218,4.47 0.4,6.299c0.119,1.192 0.227,2.266 0.275,3.346c-0.32,1.475 -0.435,2.798 -0.521,3.864c-2.176,1.811 -3.136,4.012 -3.552,5.751c-0.909,2.792 -2.606,5.414 -5.178,8.002c-2.289,2.305 -5.307,4.314 -8.972,5.979c-1.042,0.38 -2.092,0.772 -3.149,1.167c-4.156,1.554 -8.455,3.159 -12.514,4.105c-0.216,0.05 -0.412,0.087 -0.622,0.132c0.734,-1.391 1.154,-2.973 1.154,-4.655c0,-2.101 -0.648,-4.051 -1.755,-5.66c-0.954,-3.593 -1.483,-7.19 -1.575,-10.712c-0.067,-2.596 0.018,-5.259 0.108,-8.078c0.07,-2.19 0.143,-4.456 0.143,-6.764c0,-0.164 -0.004,-0.327 -0.012,-0.491c-0.171,-3.472 -0.198,-6.948 -0.227,-10.628c-0.019,-2.48 -0.038,-4.96 -0.102,-7.438c-0.072,-2.825 -0.226,-5.622 -0.374,-8.326c-0.187,-3.395 -0.362,-6.6 -0.385,-9.783l-0.027,-3.473c-0.038,-4.831 -0.078,-9.826 -0.049,-14.703c0.017,-2.913 0.189,-5.869 0.371,-8.998c0.174,-2.985 0.354,-6.072 0.397,-9.222c0.045,-3.288 -0.087,-6.495 -0.215,-9.596c-0.125,-3.029 -0.243,-5.891 -0.196,-8.69c0.046,-2.858 0.157,-5.817 0.265,-8.679c0.118,-3.141 0.24,-6.389 0.285,-9.645c0.037,-2.723 0.168,-5.45 0.306,-8.337c0.016,-0.341 0.03,-0.695 0.046,-1.038c0.201,-2.591 0.398,-5.181 0.567,-7.771c0.183,-2.78 0.464,-5.56 0.761,-8.502c0.322,-3.18 0.654,-6.468 0.858,-9.81c0.208,-3.402 0.27,-6.763 0.33,-10.013c0.054,-2.908 0.104,-5.654 0.251,-8.386c0.145,-2.677 0.354,-5.333 0.575,-8.146c0.262,-3.327 0.533,-6.767 0.686,-10.243c0.155,-3.524 0.133,-6.985 0.112,-10.332c-0.019,-2.821 -0.035,-5.484 0.048,-8.127l0.15,-4.583c0.149,-4.486 0.305,-9.125 0.382,-13.778c0.058,-3.495 -1.714,-6.766 -4.672,-8.627c-1.026,-0.646 -2.145,-1.075 -3.297,-1.314c-0.88,-3.463 -3.538,-6.234 -7.038,-7.189c-3.842,-1.05 -7.95,0.285 -10.441,3.399c-3.685,4.606 -7.79,9.254 -12.199,13.816c-3.533,3.654 -7.342,7.064 -11.373,10.675l-2.127,1.908c-1.884,1.695 -3.71,3.427 -5.476,5.101c-2.841,2.694 -5.525,5.239 -8.332,7.548c-2.603,2.142 -5.32,4.174 -8.199,6.325c-2.245,1.679 -4.567,3.415 -6.855,5.225c-2.748,2.175 -5.429,4.418 -8.021,6.587c-2.339,1.958 -4.548,3.806 -6.818,5.622c-0.028,0.023 -0.057,0.046 -0.086,0.07c-1.621,1.326 -3.216,2.665 -4.801,3.996c-2.636,2.213 -5.126,4.304 -7.657,6.27c-1.542,1.198 -3.119,2.351 -4.737,3.508c-0.112,0.052 -0.219,0.101 -0.334,0.154c-1.771,0.815 -3.777,1.739 -5.93,3.174c-0.153,0.103 -0.305,0.209 -0.452,0.319c-5.002,3.751 -10.923,8.159 -16.918,12.425c-1.454,1.035 -2.889,2.093 -4.327,3.152c-0.55,0.405 -1.089,0.798 -1.633,1.196c-1.763,1.219 -3.503,2.396 -5.276,3.513c-2.499,1.576 -5.186,3.053 -8.029,4.615c-1.944,1.068 -3.955,2.173 -5.965,3.346c-0.478,0.278 -0.932,0.596 -1.356,0.95c-0.74,0.615 -1.563,1.453 -2.276,2.553c-0.688,0.37 -1.39,0.74 -2.11,1.119c-2.828,1.487 -5.962,3.136 -9.2,5.431c-1.489,0.327 -2.894,0.993 -4.1,1.958c-2.604,2.083 -5.609,3.917 -8.88,5.426c-0.827,-0.717 -1.648,-1.428 -2.462,-2.13c-2.134,-1.844 -4.264,-3.685 -6.366,-5.545c-2.539,-2.249 -5.118,-4.46 -7.612,-6.6c-2.008,-1.722 -4.013,-3.441 -5.996,-5.179c-1.966,-1.723 -3.877,-3.602 -5.899,-5.59c-2.163,-2.127 -4.403,-4.32 -6.829,-6.44c-2.355,-2.312 -4.719,-4.671 -7.169,-7.121l-0.213,-0.213c-0.76,-0.76 -1.638,-1.393 -2.599,-1.873c-0.44,-0.22 -1.272,-0.776 -2.007,-1.267c-0.85,-0.567 -1.778,-1.188 -2.789,-1.774c-1.701,-1.565 -3.365,-3.178 -5.112,-4.871c-2.15,-2.084 -4.374,-4.239 -6.695,-6.319c-2.49,-2.231 -5.018,-4.263 -7.462,-6.229c-2.107,-1.694 -4.098,-3.295 -5.979,-4.948c-1.847,-1.623 -3.64,-3.287 -5.538,-5.049c-2.387,-2.216 -4.855,-4.507 -7.45,-6.718c-2.727,-2.324 -5.513,-4.5 -8.207,-6.604c-1.919,-1.5 -3.732,-2.916 -5.525,-4.38c-4.542,-3.713 -9.181,-7.407 -13.786,-10.981c-1.519,-1.178 -3.03,-2.377 -4.546,-3.58c-3.013,-2.39 -6.128,-4.86 -9.4,-7.253c-3.069,-2.244 -6.231,-4.337 -9.289,-6.362c-1.767,-1.17 -3.544,-2.347 -5.314,-3.56c-0.032,-0.051 -0.064,-0.102 -0.097,-0.15c-0.517,-0.793 -1.226,-1.879 -2.298,-2.952c-1.858,-1.858 -3.882,-2.818 -5.654,-3.314c-1.844,-1.618 -3.575,-2.865 -5.292,-3.818c-0.03,-0.031 -0.06,-0.061 -0.089,-0.091c-1.302,-1.327 -4.763,-4.848 -10.154,-4.358c-3.382,0.309 -6.352,2.116 -8.36,5.09c-0.998,1.477 -1.583,3.194 -1.694,4.974c-0.031,0.497 -0.047,0.989 -0.074,1.486c-0.485,1.059 -0.797,2.211 -0.886,3.42c-0.27,3.645 -0.422,7.291 -0.569,10.818c-0.104,2.493 -0.208,4.986 -0.354,7.473c-0.371,6.306 -0.667,12.486 -0.933,18.225c-0.123,2.656 -0.33,5.311 -0.549,8.122c-0.254,3.263 -0.518,6.637 -0.643,10.064c-0.124,3.36 -0.145,6.703 -0.165,9.937c-0.018,2.852 -0.035,5.545 -0.117,8.259c-0.082,2.745 -0.192,5.489 -0.302,8.232c-0.13,3.239 -0.264,6.589 -0.35,9.921c-0.074,2.856 -0.222,5.693 -0.379,8.696c-0.161,3.066 -0.326,6.237 -0.405,9.427c-0.073,2.981 -0.11,5.963 -0.146,8.942c-0.038,3.059 -0.075,6.114 -0.154,9.169c-0.083,3.204 -0.011,6.338 0.059,9.369c0.07,3.038 0.135,5.908 0.05,8.723c-0.085,2.833 -0.339,5.717 -0.609,8.771c-0.264,2.99 -0.537,6.082 -0.655,9.278c-0.132,3.846 -0.11,7.656 -0.088,11.342c0.012,2.113 0.025,4.226 0.008,6.338c-0.033,4.001 0.06,7.988 0.15,11.844c0.045,1.933 0.09,3.865 0.12,5.798c0.083,5.485 0.188,10.179 0.324,14.526c0.034,2.013 0.114,4 0.218,5.956c0.162,3.908 0.36,7.812 0.565,11.654c0.041,2.11 0.029,4.245 0.008,6.498c-0.034,3.568 -0.069,7.259 0.15,11.047c0.205,3.541 0.534,7.064 0.88,10.512c-2.466,0.413 -4.71,0.622 -6.772,0.632c-4.389,0.022 -8.504,-0.867 -11.914,-2.573c-1.318,-0.659 -2.564,-1.07 -3.565,-1.4c-0.35,-0.116 -0.8,-0.265 -1.081,-0.373c-0.352,-0.314 -0.725,-0.604 -1.118,-0.865c-1.571,-1.048 -2.996,-2.445 -4.245,-4.162c-0.083,-0.247 -0.176,-0.547 -0.248,-0.777c-0.427,-1.374 -1.017,-3.275 -2.273,-5.122c-1.737,-3.591 -2.95,-6.901 -3.614,-9.863c-0.161,-2.762 -0.435,-5.443 -0.701,-8.044c-0.324,-3.169 -0.631,-6.163 -0.713,-9.068c-0.101,-3.558 -0.099,-7.083 -0.096,-10.815c0.001,-2.409 0.002,-4.817 -0.024,-7.224c-0.039,-3.427 0.015,-6.977 0.068,-10.41c0.039,-2.555 0.078,-5.108 0.083,-7.661c0.011,-5.616 0.075,-11.345 0.138,-16.885l0.014,-1.226c0.035,-3.11 -0.043,-6.182 -0.118,-9.152c-0.079,-3.122 -0.154,-6.072 -0.105,-9.003c0.044,-2.668 0.3,-5.44 0.571,-8.376c0.291,-3.147 0.591,-6.403 0.652,-9.795c0.06,-3.381 -0.089,-6.662 -0.234,-9.834c-0.133,-2.936 -0.26,-5.707 -0.219,-8.404c0.042,-2.703 0.201,-5.434 0.371,-8.325c0.188,-3.214 0.383,-6.538 0.412,-9.938c0.03,-3.544 -0.032,-7.085 -0.092,-10.51c-0.046,-2.599 -0.092,-5.198 -0.097,-7.802c-0.004,-1.966 0,-3.932 0.004,-5.9c0.009,-4.063 0.019,-8.266 -0.05,-12.45c-0.001,-0.084 -0.004,-0.168 -0.007,-0.251c-0.178,-4.266 -0.215,-8.489 -0.254,-12.961c-0.014,-1.585 -0.028,-3.17 -0.049,-4.755c-0.036,-2.778 -0.091,-5.555 -0.146,-8.332c-0.064,-3.216 -0.128,-6.432 -0.161,-9.648c-0.017,-1.636 -0.027,-3.272 -0.038,-4.908c-0.028,-4.352 -0.056,-8.852 -0.208,-13.344c-0.141,-4.164 -0.578,-8.19 -1,-12.084c-0.238,-2.192 -0.463,-4.263 -0.636,-6.339c-0.016,-0.195 -0.038,-0.39 -0.066,-0.583c-1.137,-7.957 -1.738,-14.646 -1.791,-19.903c0.849,-5.08 3.079,-10.1 6.323,-14.207c2.975,-3.767 7.424,-7.286 13.229,-10.464c4.792,-1.951 10.141,-3.397 15.905,-4.301c2.771,-0.434 5.5,-0.722 8.171,-0.863c0.058,0.03 0.121,0.051 0.179,0.08c1.088,1.961 2.827,3.557 5.024,4.436c2.462,0.985 4.629,2.409 7.373,4.212c1.286,0.845 2.727,1.792 4.301,2.752c3.628,2.789 7.305,5.24 10.865,7.613c1.007,0.671 2.012,1.341 3.011,2.016l1.28,0.862c3.927,2.641 7.636,5.136 10.602,8.102c0.76,0.76 1.638,1.393 2.599,1.874c0.403,0.202 1.005,0.611 1.643,1.044c0.56,0.38 1.193,0.811 1.907,1.251c2.188,2.277 4.682,3.574 6.621,4.582c0.256,0.133 0.556,0.289 0.853,0.449c0.698,1.615 1.82,3.039 3.279,4.105c3.619,2.645 7.184,5.466 10.631,8.195c1.202,0.952 2.398,1.898 3.594,2.836c2.317,1.817 4.642,3.477 6.889,5.081c2.706,1.932 5.261,3.756 7.572,5.684c2.309,1.927 4.528,4.071 6.878,6.342c2.033,1.964 4.134,3.995 6.386,5.965c2.321,2.032 4.688,3.903 6.979,5.713c2.504,1.979 4.87,3.85 7.066,5.831c2.153,1.942 4.256,4.005 6.484,6.189c2.092,2.052 4.254,4.171 6.538,6.264l0.321,0.323c1.882,1.897 4.336,4.372 7.95,6.119c0.14,0.126 0.284,0.252 0.434,0.378c0.624,1.275 1.421,2.272 2.165,3.015c0.759,0.758 1.635,1.389 2.595,1.869c0.956,0.478 1.743,0.885 2.531,1.292c0.028,0.014 0.056,0.029 0.084,0.043c0.576,0.75 1.251,1.436 2.023,2.053c0.549,0.439 1.087,0.788 1.716,1.102c0.385,0.258 1.303,1.402 1.974,2.238c1.48,1.844 3.316,4.132 6.046,6.209c1.944,1.55 3.826,2.925 5.647,4.255c2.946,2.152 5.49,4.011 7.494,6.015c1.906,1.906 4.462,2.929 7.072,2.929c1.058,0 2.125,-0.168 3.161,-0.514c0.108,-0.036 0.211,-0.077 0.318,-0.113c0.263,0.102 0.529,0.201 0.806,0.283c1.954,1.401 4.316,2.233 6.828,2.233c3.038,0 5.911,-1.381 7.809,-3.753c1.221,-1.525 3.007,-2.877 5.075,-4.442c1.768,-1.337 3.688,-2.79 5.574,-4.585c1.246,-0.397 2.199,-0.944 2.775,-1.328c0.546,-0.365 1.056,-0.783 1.521,-1.248c1.777,-1.778 3.759,-3.034 6.053,-4.489c1.523,-0.966 3.249,-2.06 4.978,-3.356c2.994,-2.231 5.951,-4.506 8.811,-6.707c1.914,-1.473 3.823,-2.942 5.736,-4.393c2.134,-1.618 4.401,-3.141 6.802,-4.753c2.688,-1.805 5.467,-3.672 8.186,-5.769c2.731,-2.106 5.281,-4.296 7.746,-6.415c2.177,-1.871 4.233,-3.638 6.329,-5.28c2.689,-2.107 5.283,-4.275 7.792,-6.371c2.181,-1.823 4.241,-3.545 6.351,-5.223c2.04,-1.624 4.289,-3.149 6.669,-4.766c2.692,-1.827 5.476,-3.717 8.197,-5.913c2.651,-2.139 5.126,-4.362 7.519,-6.512c2.159,-1.94 4.198,-3.772 6.29,-5.481c2.138,-1.748 4.327,-3.426 6.645,-5.203c2.535,-1.942 5.156,-3.951 7.726,-6.076c2.578,-2.13 5.027,-4.334 7.396,-6.466c2.178,-1.959 4.233,-3.809 6.347,-5.574c2.14,-1.786 4.305,-3.543 6.472,-5.301c2.505,-2.032 5.095,-4.133 7.642,-6.278c2.107,-1.775 4.239,-3.539 6.374,-5.305c1.354,-1.12 2.708,-2.242 4.06,-3.367c0.514,-0.056 1.036,-0.109 1.563,-0.163c2.972,-0.302 6.275,-0.639 9.648,-1.532c2.783,0.16 5.733,0.893 9.379,2.316c3.149,1.229 6.326,3.073 9.982,5.795c4.734,3.986 7.187,7.558 7.711,11.225c0.031,0.217 0.069,0.432 0.114,0.646c1.342,6.374 2.181,12.106 2.564,17.527c0.322,4.651 0.297,9.359 0.272,14.344z"/>
 </g>
</svg>