<svg width="778.9999999999999" height="402" xmlns="http://www.w3.org/2000/svg">

 <g>
  <title>background</title>
  <rect fill="none" id="canvas_background" height="404" width="781" y="-1" x="-1"/>
 </g>
 <g>
  <title>Layer 1</title>
  <path fill="#ffffff" id="svg_2" d="m476.426881,281.451c0,-2.314 -1.572,-4.261 -3.706,-4.831c-2.33,-1.38 -4.193,-1.423 -5.597,-0.971c-1.47,-0.493 -3.038,-1.19 -4.748,-2.03c-1.756,-1.431 -3.695,-1.974 -5.159,-2.384c-0.533,-0.149 -1.34,-0.375 -1.503,-0.474c-0.167,-0.167 -0.346,-0.322 -0.535,-0.464c-1.251,-0.938 -2.436,-2.162 -3.251,-3.42c3.189,-0.223 5.375,-2.577 5.375,-5.878c0,-2.612 -1.333,-4.034 -2.2,-4.729c-1.304,-4.015 -1.763,-8.143 -1.207,-11.189c1.738,-5.922 3.314,-11.741 3.661,-17.745c0.387,-6.725 -0.262,-13.051 -1.93,-18.803c-1.754,-6.049 -5.017,-11.688 -9.697,-16.762c-0.046,-0.049 -0.092,-0.098 -0.14,-0.145c-2.944,-2.945 -6.761,-4.469 -9.756,-5.467c-0.121,-0.041 -0.244,-0.077 -0.368,-0.107c-0.856,-0.214 -1.761,-0.496 -2.718,-0.794c-3.469,-1.08 -7.4,-2.306 -11.764,-1.212c-2.397,0.599 -5.498,0.671 -8.449,0.657c-0.948,-0.294 -2.123,-0.367 -3.562,-0.021l-0.053,0.013c-2.62,0.157 -4.696,2.332 -4.696,4.991c0,1.656 0.805,3.124 2.045,4.034c-0.132,0.676 -0.289,1.376 -0.433,2.019c-0.548,2.441 -1.209,5.388 -0.911,8.275c-1.385,1.164 -2.063,3.023 -1.672,4.865c0.489,2.31 2.529,3.962 4.891,3.962c1.461,0 2.67,-0.493 3.5,-0.851c1.839,-0.238 3.455,0.575 4.578,1.407c2.648,1.966 4.401,5.399 4.078,7.987c-0.026,0.206 -0.039,0.413 -0.039,0.62c0,4.147 -0.12,9.032 -1.013,13.827c-0.776,4.165 -1.873,8.558 -3.452,13.826c-0.034,0.116 -0.064,0.232 -0.091,0.351c-2.097,9.433 -0.922,17.594 3.927,27.291c1.67,3.342 4.194,5.818 6.906,7.879c-2.779,1.533 -5.346,3.714 -7.605,6.504c-4.466,5.511 -7.479,12.97 -8.061,19.953c-0.062,0.736 0.041,1.479 0.301,2.171c1.818,4.849 2.983,9.871 3.464,14.929c0.53,5.564 0.438,10.594 -0.283,15.376c-0.697,4.634 -1.976,9.427 -3.903,14.638c-0.755,-0.442 -1.676,-0.756 -2.778,-0.756c-0.013,0 -0.025,0 -0.037,0.001c-1.411,0.009 -2.645,0.509 -3.686,1.491c-1.688,0.497 -3.03,1.866 -3.451,3.647c-0.16,0.678 -0.174,1.361 -0.059,2.016c-1.215,2.685 -1.182,5.528 -1.161,7.283l0.005,0.56c0,0.409 0.05,0.816 0.149,1.213c0.738,2.953 2.461,4.99 3.718,6.478c0.647,0.766 1.382,1.634 1.382,1.979c0,2.569 1.946,4.72 4.503,4.976c1.832,0.183 3.617,0.45 5.508,0.733c3,0.45 6.103,0.915 9.352,1.004c0.797,0.021 1.599,0.037 2.407,0.037c4.941,0 10.068,-0.581 14.965,-3.847c4.855,-3.237 6.671,-8.628 7.609,-12.377c1.511,-5.538 3.074,-11.265 4.109,-17.149c1.132,-6.44 1.441,-12.467 0.944,-18.424c-0.004,-0.046 -0.008,-0.092 -0.013,-0.137c-0.644,-5.786 -2.438,-11.093 -4.175,-16.225c-0.878,-2.596 -1.721,-5.085 -2.413,-7.6c0.602,-0.558 1.199,-1.123 1.788,-1.68c2.139,-2.021 4.351,-4.111 6.47,-5.635c3.123,-2.249 6.43,-3.043 9.824,-2.365c1.878,0.377 3.796,-0.35 4.955,-1.867s1.353,-3.563 0.498,-5.271c-1.503,-3.007 -0.77,-6.465 0.485,-10.383c2.706,-0.067 4.878,-2.28 4.878,-5zm-16.182,12.496c-3.592,0.514 -7.071,1.948 -10.298,4.271c-2.66,1.913 -5.119,4.236 -7.497,6.484c-1.318,1.245 -2.563,2.422 -3.754,3.442c-1.401,1.202 -2.026,3.078 -1.626,4.881c0.892,4.015 2.167,7.783 3.4,11.428c1.63,4.818 3.17,9.37 3.701,14.057c0.416,5.068 0.143,10.234 -0.835,15.792c-0.955,5.43 -2.389,10.686 -3.929,16.329c-0.01,0.034 -0.019,0.069 -0.027,0.104c-0.859,3.438 -1.959,5.505 -3.46,6.506c-3.265,2.178 -7.163,2.259 -11.551,2.134c-2.642,-0.072 -5.314,-0.473 -8.144,-0.897c-0.832,-0.124 -1.677,-0.251 -2.535,-0.371c-0.768,-1.594 -1.825,-2.845 -2.703,-3.883c-0.65,-0.77 -1.228,-1.452 -1.511,-2.058c-0.004,-0.394 -0.007,-0.962 0.021,-1.5c1.097,-0.24 2.059,-0.84 2.757,-1.67c3.186,-0.585 6.473,-2.202 7.69,-6.553c2.215,-5.946 3.687,-11.459 4.497,-16.845c0.844,-5.6 0.958,-11.426 0.35,-17.812c-0.526,-5.541 -1.751,-11.039 -3.643,-16.362c0.618,-4.704 2.772,-9.77 5.753,-13.449c3.14,-3.875 6.773,-5.701 10.854,-5.436c1.886,0.716 4.085,0.236 5.497,-1.342c0.729,-0.815 1.145,-1.808 1.248,-2.823c1.044,-2.534 0.087,-4.806 -1.279,-6.172c-0.591,-0.591 -2.505,-2.2 -5.317,-1.557c-0.248,-0.159 -0.496,-0.317 -0.743,-0.475c-3.562,-2.275 -6.927,-4.425 -8.387,-7.345c-3.804,-7.609 -4.692,-13.368 -3.146,-20.479c1.654,-5.538 2.814,-10.209 3.649,-14.686c1.021,-5.482 1.176,-10.835 1.182,-15.378c0.614,-6.092 -2.6,-12.85 -8.08,-16.917c-2.299,-1.707 -4.795,-2.785 -7.336,-3.216c0.086,-1.27 0.509,-3.154 0.748,-4.224c0.242,-1.081 0.488,-2.174 0.671,-3.277c2.402,-0.091 4.843,-0.328 7.146,-0.904c1.643,-0.408 3.937,0.303 6.365,1.059c0.986,0.308 2.006,0.625 3.066,0.897c1.763,0.595 4.171,1.531 5.614,2.933c3.579,3.901 6.058,8.168 7.366,12.682c1.351,4.659 1.872,9.855 1.55,15.444c-0.289,5.031 -1.684,10.101 -3.339,15.731c-0.042,0.142 -0.077,0.285 -0.106,0.43c-0.779,3.901 -0.57,8.511 0.549,13.202c-0.636,0.299 -1.254,0.727 -1.839,1.312c-0.479,0.479 -0.855,1.05 -1.107,1.679c-3.04,7.601 1.927,14.929 7.202,18.994c1.862,1.712 4.004,2.312 5.588,2.755c0.533,0.149 1.34,0.375 1.503,0.474c0.38,0.38 0.818,0.696 1.299,0.937c1.392,0.696 2.869,1.408 4.424,2.042c-0.907,3.004 -1.635,6.262 -1.498,9.632z"/>
  <path fill="#ffffff" id="svg_3" d="m401.068881,336.13c0.513,-0.811 1.094,-1.729 1.706,-2.954c2.836,-5.671 6.049,-12.098 4.79,-20.916c-0.017,-0.114 -0.037,-0.228 -0.062,-0.341c-1.502,-7.007 -5.101,-13.103 -11.326,-19.184c-1.59,-1.553 -3.245,-3.052 -4.846,-4.501c-3.217,-2.913 -6.255,-5.665 -8.714,-8.739c-1.327,-1.658 -3.554,-2.296 -5.56,-1.595c-0.741,0.26 -1.393,0.683 -1.918,1.221c-1.253,-0.774 -2.546,-1.494 -3.817,-2.203c-1.98,-1.104 -4.029,-2.244 -5.725,-3.49c-3.405,-2.501 -5.355,-4.797 -6.112,-7.25c2.138,-2.221 5.526,-3.141 7.948,-2.7c3.122,0.783 7.532,1.99 11.114,3.668c0.828,0.755 1.698,1.414 2.692,2.032c0.237,1.377 0.871,3.394 3.006,4.554c0.977,0.531 2.99,1.23 5.527,-0.038c6.603,-3.301 9.911,-9.089 12.832,-14.197c1.333,-2.332 2.593,-4.535 4.03,-6.261c1.738,-2.085 1.494,-5.176 -0.548,-6.963c-3.844,-3.363 -8.72,-6.314 -15.346,-9.287c-5.934,-2.661 -11.38,-4.366 -16.649,-5.213c-4.351,-0.698 -10.896,-1.552 -17.481,-0.903c-6.045,0.594 -11.459,2.759 -16.693,4.854l-0.131,0.052c-10.349,3.895 -17.833,10.802 -21.078,19.454c-0.066,0.178 -0.123,0.359 -0.169,0.543c-2.688,10.755 -1.896,20.657 2.217,27.853c3.562,6.332 8.699,10.761 13.722,14.604c5.288,4.047 10.579,7.536 15.724,10.37l1.244,0.686c4.048,2.23 7.909,4.357 11.615,6.69c0.28,1.148 0.767,2.109 1.116,2.803c0.11,0.218 0.261,0.515 0.376,0.774c-0.187,0.858 -0.19,1.688 -0.136,2.395c-2.303,1.025 -5.158,1.265 -8.661,0.729c-3.476,-0.532 -7.085,-1.382 -10.575,-2.203c-1.172,-0.275 -2.311,-0.543 -3.401,-0.789c-2.857,-1.201 -5.855,-3.161 -9.022,-5.231c-1.585,-1.035 -3.224,-2.106 -4.881,-3.101c-2.288,-1.373 -5.253,-0.707 -6.732,1.514l-1.346,2.01c-0.699,1.041 -1.434,2.142 -2.178,3.267c0.319,-2.501 0.399,-4.968 0.207,-7.382c-0.359,-4.52 -1.415,-11.213 -6.442,-17.155c-3.964,-4.624 -9.103,-7.689 -12.62,-9.591c-4.707,-2.547 -9.309,-4.577 -13.677,-6.034c-0.038,-0.013 -0.076,-0.025 -0.114,-0.037c-0.877,-0.271 -1.807,-0.288 -2.676,-0.073c-4.811,-1.131 -8.357,-4.372 -12.815,-9.681c-0.043,-0.211 0.105,-0.565 0.229,-0.795c3.309,-2.224 7.066,-2.151 13.546,0.191c1.49,0.539 2.974,1.125 4.546,1.746c4.235,1.673 8.596,3.396 13.052,4.121c0.715,0.276 1.602,0.426 2.671,0.287c2.646,-0.04 4.81,-2.139 4.92,-4.792c0.019,-0.462 -0.025,-0.913 -0.125,-1.343c0.923,-2.296 1.58,-4.528 2.18,-6.564c0.853,-2.896 1.59,-5.396 2.841,-7.483c0.931,-1.55 0.951,-3.482 0.055,-5.052c-3.036,-5.314 -7.111,-9.403 -12.46,-12.5c-5.506,-3.189 -10.948,-5.244 -16.175,-6.107c-6.176,-1.018 -12.237,-0.417 -16.862,0.237c-8.113,0.61 -16.045,3.307 -22.352,7.604c-7.543,5.142 -12.389,12.155 -14.014,20.283c-1.193,5.966 -1.318,11.636 -0.373,16.85c0.91,5.023 2.871,10.271 5.829,15.596c0.11,0.199 0.234,0.391 0.371,0.572c3.606,4.808 6.872,8.155 10.922,11.192c0.24,0.18 0.496,0.338 0.764,0.472c3.34,1.67 6.719,2.734 9.985,3.764c2.093,0.659 4.069,1.282 5.936,2.031c5.336,2.14 8.845,4.389 11.665,7.486c0.273,0.487 0.537,1.738 0.216,3.454c-0.286,1.524 -0.853,2.545 -1.241,3.048c-1.522,0.292 -2.776,0.878 -3.767,1.34c-0.337,0.157 -0.767,0.357 -1.053,0.464c-2.924,-1.354 -5.865,-2.874 -8.718,-4.349c-2.126,-1.1 -4.324,-2.236 -6.526,-3.311c-2.037,-0.993 -4.111,-1.907 -6.117,-2.792c-2.601,-1.147 -5.095,-2.246 -7.419,-3.465c-0.022,-0.023 -0.044,-0.047 -0.066,-0.069c-0.86,-0.895 -2.401,-1.96 -4.861,-1.96c-2.247,0 -4.219,1.499 -4.818,3.665c-0.433,1.563 -0.075,3.196 0.883,4.419c-1.282,2.598 -3.034,5.063 -4.868,7.643c-2.584,3.637 -5.257,7.397 -6.986,12.007c-0.021,0.058 -0.042,0.116 -0.062,0.175c-2.364,7.094 5.57,10.498 9.546,11.896c0.955,1.289 2.125,2.087 3.495,2.383c6.51,2.462 13.573,4.37 21.007,5.674c6.494,1.139 12.146,1.692 17.406,1.692c1.729,0 3.415,-0.061 5.074,-0.179c0.047,-0.003 0.094,-0.008 0.141,-0.012c5.717,-0.571 11.076,-1.962 15.929,-4.132c4.682,-2.093 9.985,-5.009 13.77,-10.689c0.687,-0.992 1.352,-2.033 1.999,-3.124c0.355,0.341 0.749,0.649 1.211,0.88c3.845,1.923 7.294,3.959 10.947,6.115c3.639,2.149 7.402,4.371 11.558,6.448c0.124,0.063 0.251,0.119 0.379,0.171c5.144,2.057 10.885,3.26 17.924,4.433c0.271,0.046 0.547,0.068 0.822,0.068c0.806,0 1.613,0.005 2.422,0.01c0.826,0.005 1.656,0.01 2.491,0.01c3.952,0 7.993,-0.112 12.015,-0.872c5.433,-1.026 10.985,-3.127 16.502,-6.24c5.047,-2.847 9.572,-6.792 13.45,-11.729c0.209,-0.266 0.39,-0.551 0.54,-0.853c0.383,-0.773 0.765,-1.378 1.209,-2.076zm-95.29,-11.678c-1.958,5.181 -4.053,9.349 -6.454,12.818c-2.416,3.626 -6.032,5.594 -9.58,7.18c-3.854,1.724 -8.149,2.834 -12.771,3.303c-5.855,0.41 -12.202,-0.032 -19.97,-1.394c-6.639,-1.164 -12.934,-2.846 -18.729,-5.002c-0.994,-1.363 -2.224,-2.188 -3.673,-2.464c-1.48,-0.508 -2.463,-0.915 -3.116,-1.232c1.288,-2.653 3.073,-5.164 4.941,-7.793c1.891,-2.66 3.828,-5.387 5.409,-8.463c1.189,0.543 2.379,1.067 3.556,1.586c2.008,0.886 3.905,1.723 5.768,2.631c2.097,1.022 4.242,2.132 6.317,3.205c3.173,1.64 6.453,3.336 9.82,4.866c0.158,0.072 0.321,0.137 0.487,0.191c3.59,1.199 6.529,-0.175 8.286,-0.994c0.48,-0.225 1.207,-0.563 1.439,-0.584c0.776,0 1.542,-0.181 2.236,-0.528c3.224,-1.611 5.683,-5.119 6.746,-9.623c1.106,-4.69 0.404,-9.163 -1.927,-12.271c-0.083,-0.111 -0.171,-0.218 -0.263,-0.322c-4.996,-5.62 -10.969,-8.479 -15.611,-10.341c-2.22,-0.892 -4.475,-1.603 -6.655,-2.289c-2.876,-0.905 -5.6,-1.764 -8.118,-2.974c-3.047,-2.336 -5.507,-4.883 -8.351,-8.642c-2.333,-4.26 -3.869,-8.371 -4.567,-12.226c-0.72,-3.971 -0.606,-8.381 0.339,-13.106c1.117,-5.587 4.428,-10.292 9.84,-13.98c4.915,-3.349 11.169,-5.446 17.611,-5.906c0.117,-0.008 0.233,-0.021 0.35,-0.038c3.938,-0.562 9.087,-1.104 13.993,-0.294c4.03,0.665 8.333,2.312 12.791,4.894c3,1.737 5.43,3.912 7.373,6.604c-1.021,2.303 -1.713,4.656 -2.39,6.953c-0.473,1.607 -0.931,3.16 -1.485,4.674c-2.521,-0.716 -5.186,-1.769 -7.945,-2.859c-1.569,-0.62 -3.191,-1.261 -4.819,-1.85c-7.124,-2.576 -15.481,-4.404 -23.436,1.562c-0.189,0.142 -0.368,0.297 -0.535,0.464c-2.452,2.452 -5.024,8.316 -1.49,13.617c0.099,0.148 0.205,0.291 0.319,0.427c5.037,6.045 11.251,12.6 21.271,13.852c0.338,0.041 0.677,0.05 1.01,0.022c3.266,1.209 6.691,2.779 10.211,4.685c4.481,2.423 7.591,4.743 9.764,7.278c2.425,2.866 3.686,6.401 4.088,11.464c0.328,4.108 -0.354,8.328 -2.08,12.899zm88.052,4.251c-0.388,0.774 -0.77,1.379 -1.213,2.077c-0.442,0.699 -0.936,1.479 -1.456,2.466c-2.997,3.73 -6.43,6.7 -10.211,8.832c-4.564,2.577 -9.088,4.301 -13.445,5.124c-3.92,0.741 -8.127,0.716 -12.588,0.688c-0.688,-0.004 -1.377,-0.008 -2.064,-0.01c-6.12,-1.028 -11.081,-2.067 -15.261,-3.711c-3.768,-1.894 -7.164,-3.899 -10.757,-6.02c-2.323,-1.373 -4.698,-2.774 -7.193,-4.149c2.06,-3.865 4.63,-7.821 7.104,-11.528c0.179,0.116 0.358,0.234 0.54,0.353c3.562,2.328 7.244,4.735 11.131,6.29c0.251,0.1 0.509,0.18 0.772,0.238c1.179,0.262 2.42,0.555 3.701,0.855c3.509,0.825 7.485,1.762 11.353,2.354c7.219,1.106 13.294,-0.146 18.057,-3.719c0.189,-0.143 0.368,-0.297 0.535,-0.465c2.286,-2.286 1.839,-5.245 1.623,-6.667c0,-0.003 0,-0.006 -0.001,-0.008c0.179,-0.52 0.272,-1.068 0.272,-1.628c0,-2.586 -0.979,-4.523 -1.627,-5.806c-0.031,-0.062 -0.065,-0.129 -0.1,-0.197c0.311,-1.892 -0.491,-3.855 -2.161,-4.969c-4.734,-3.157 -9.735,-5.912 -14.571,-8.576l-1.241,-0.684c-4.712,-2.596 -9.582,-5.811 -14.476,-9.555c-4.174,-3.194 -8.406,-6.806 -11.1,-11.594c-3.761,-6.582 -2.461,-15.37 -1.284,-20.209c3.066,-7.82 10.808,-11.726 15.18,-13.365c0.033,-0.013 0.067,-0.026 0.101,-0.039l0.181,-0.072c4.797,-1.919 9.328,-3.731 13.959,-4.186c4.139,-0.407 8.876,-0.146 14.916,0.824c4.394,0.706 9.02,2.166 14.143,4.463c3.734,1.675 6.775,3.302 9.294,4.983c-0.705,1.142 -1.367,2.3 -2.02,3.44c-1.596,2.791 -3.133,5.48 -5.103,7.549c-0.32,-0.281 -0.676,-0.52 -1.058,-0.71c-1.617,-0.809 -2.245,-1.37 -2.797,-1.921c-0.38,-0.38 -0.818,-0.696 -1.299,-0.937c-4.614,-2.307 -10.166,-3.829 -13.94,-4.772c-0.077,-0.02 -0.154,-0.037 -0.232,-0.052c-7.452,-1.492 -15.7,2.158 -19.61,8.675c-0.546,0.909 -0.788,1.969 -0.692,3.025c0.733,8.062 6.335,13.047 10.485,16.096c2.201,1.617 4.528,2.913 6.778,4.167c1.63,0.907 3.196,1.78 4.508,2.669c0.89,1.705 2.742,2.791 4.66,2.73c0.505,-0.017 1.778,-0.16 2.964,-1.089c1.96,1.994 4.016,3.856 6.03,5.681c1.603,1.451 3.116,2.822 4.571,4.243c4.764,4.652 7.392,8.964 8.499,13.955c0.719,5.361 -1.003,9.153 -3.857,14.861z"/>
  <path fill="#ffffff" id="svg_4" d="m115.314881,322.686c-0.198,-0.314 -0.431,-0.608 -0.698,-0.875c-0.938,-0.938 -2.209,-1.465 -3.536,-1.465c-0.316,0 -0.64,0.021 -0.968,0.063c0.037,-1.036 0.168,-2.192 0.303,-3.377c0.179,-1.576 0.365,-3.205 0.375,-4.883c0.192,-3.701 0.265,-7.411 0.335,-11c0.05,-2.561 0.102,-5.209 0.197,-7.785c0.171,-4.651 0.274,-9.35 0.373,-13.893c0.037,-1.669 0.073,-3.338 0.112,-5.006l0.131,-5.232c0.114,-4.47 0.232,-9.093 0.293,-13.654c0.045,-3.404 -0.034,-6.82 -0.11,-10.124c-0.066,-2.88 -0.135,-5.857 -0.118,-8.752c0.017,-2.936 0.102,-5.952 0.184,-8.869c0.091,-3.26 0.186,-6.632 0.191,-9.99c0.005,-3.335 -0.011,-6.687 -0.027,-10.044c-0.011,-2.3 -0.021,-4.603 -0.026,-6.906c1.611,-2.511 1.197,-5.379 1.014,-6.649c-0.006,-0.038 -0.011,-0.077 -0.017,-0.117c1.039,-1.266 1.413,-2.994 0.92,-4.621c-0.639,-2.109 -2.583,-3.551 -4.786,-3.551c-3.148,0 -6.42,-0.094 -9.585,-0.185c-2.58,-0.074 -5.247,-0.151 -7.897,-0.179c-4.985,-0.054 -10.068,-0.053 -14.979,-0.051l-2.586,0c-5.098,0 -10.548,0.101 -17.671,0.328l-2.805,0.086c-4.836,0.145 -9.834,0.295 -14.761,0.716c-7.658,0.129 -14.657,6.442 -15.997,14.479c-0.045,0.271 -0.068,0.546 -0.068,0.822c0,2.424 0.203,4.786 0.399,7.069c0.308,3.588 0.599,6.977 0.071,10.145c-0.024,0.145 -0.042,0.292 -0.053,0.438c-0.485,6.301 -0.482,12.837 -0.48,19.157l0,1.219c0,6.431 -0.177,12.219 -0.54,17.622c-1.334,1.287 -2.549,2.629 -3.734,3.939c-1.429,1.578 -2.779,3.069 -4.166,4.27c-2.657,2.299 -5.72,3.295 -9.107,2.954c-1.684,-0.17 -3.345,0.529 -4.403,1.853s-1.375,3.095 -0.838,4.703c1.142,3.428 0.921,7.271 0.688,11.341c-0.049,0.853 -0.099,1.719 -0.137,2.596c-0.374,0.773 -0.56,1.653 -0.505,2.577c0.153,2.61 2.301,5.346 5.521,5.275c0.62,-0.019 1.209,-0.146 1.751,-0.365c3.371,0.838 6.463,2.766 8.891,5.581c3.327,3.859 4.858,8.15 4.199,11.773c-0.054,0.295 -0.081,0.595 -0.081,0.895c0,3.281 -1.008,6.535 -2.074,9.98c-0.878,2.838 -1.786,5.77 -2.274,9.04c-1.482,6.584 -1.375,14.009 0.322,22.071c1.525,7.243 4.565,13.901 7.624,20.019c1.458,2.916 4.977,6.541 9.552,8.065c0.196,0.065 0.396,0.119 0.599,0.159c4.253,0.853 8.419,0.998 12.448,1.139c1.17,0.041 2.338,0.082 3.5,0.141l1.26,0.062c4.234,0.203 8.233,0.395 11.995,1.9c0.597,0.239 1.228,0.358 1.858,0.358c0.719,0 1.437,-0.155 2.103,-0.464c1.25,-0.579 2.205,-1.648 2.641,-2.955c6.093,-18.279 -1.887,-23.954 -5.601,-25.546c-0.129,-0.056 -0.261,-0.105 -0.395,-0.149c-1.534,-0.51 -3.131,-0.291 -4.388,0.511c-3.013,-0.288 -4.672,-0.506 -6.107,-1.698c-0.519,-1.258 -0.386,-3.722 0.915,-6.323c0.962,-1.925 0.585,-4.25 -0.937,-5.771c-2.432,-2.432 -3.096,-6.611 -3.865,-11.451c-0.09,-0.568 -0.181,-1.138 -0.274,-1.706c-0.436,-5.915 -0.053,-11.439 0.454,-17.523l0.043,-0.516c0.511,-6.115 1.04,-12.438 -0.591,-19.504c-0.036,-0.153 -0.079,-0.306 -0.128,-0.456c-1.333,-4 -3.666,-6.597 -6.311,-8.448c6.5,-3.117 11.429,-9.629 12.392,-17.327c0.026,-0.206 0.039,-0.413 0.039,-0.62c0,-4.433 0.915,-8.262 1.884,-12.317c0.61,-2.553 1.241,-5.193 1.646,-8.029c0.012,-0.084 0.022,-0.169 0.03,-0.254c0.483,-5.314 0.951,-11.517 0.386,-17.876c-0.12,-1.357 -0.269,-2.72 -0.418,-4.09c-0.441,-4.036 -0.857,-7.854 -0.569,-11.73c0.278,-0.886 2.135,-1.884 9.085,-1.884c0.366,0 0.75,-0.012 1.147,-0.026c0.552,-0.018 1.432,-0.048 1.833,0.042c0.304,0.54 0.656,1.009 1.058,1.41c0.05,4.155 -0.056,8.366 -0.16,12.466l-0.055,2.202c-0.042,1.764 -0.071,3.53 -0.1,5.295c-0.067,4.13 -0.137,8.401 -0.396,12.54c-0.151,2.41 -0.265,4.824 -0.379,7.24c-0.166,3.518 -0.338,7.154 -0.629,10.679c-0.25,3.027 -0.553,6.122 -0.847,9.114c-0.289,2.946 -0.577,5.892 -0.825,8.84c-0.223,2.655 -0.586,5.288 -0.97,8.076c-0.444,3.224 -0.903,6.558 -1.125,9.889c-0.193,2.514 -0.443,5.084 -0.707,7.805c-0.411,4.232 -0.836,8.609 -1.056,12.952c-0.391,7.704 0.065,15.817 5.961,22.98c3.524,4.762 9.184,8.039 13.734,10.367c5.38,2.751 11.149,4.179 16.712,4.117c7.445,-0.077 13.166,-2.041 17.491,-6.004c1.033,-0.947 1.622,-2.285 1.622,-3.687c0,-3.288 0.262,-6.37 0.54,-9.634c0.283,-3.327 0.575,-6.769 0.575,-10.48c0,-1.489 -0.63,-2.913 -1.729,-3.906c-1.254,-1.132 -2.642,-1.4 -3.808,-1.413zm-5.008,14.95c-0.219,2.573 -0.443,5.214 -0.534,7.995c-2.3,1.437 -5.299,2.135 -9.258,2.176c-3.907,0.072 -8.109,-1.002 -12.054,-3.02c-3.603,-1.844 -8.03,-4.359 -10.3,-7.481c-0.065,-0.089 -0.132,-0.176 -0.203,-0.261c-3.596,-4.314 -4.104,-9.396 -3.759,-16.197c0.208,-4.112 0.622,-8.372 1.022,-12.492c0.257,-2.649 0.523,-5.39 0.728,-8.054c0.202,-3.031 0.618,-6.048 1.058,-9.241c0.385,-2.794 0.783,-5.683 1.028,-8.603c0.244,-2.903 0.528,-5.802 0.812,-8.702c0.297,-3.03 0.604,-6.163 0.86,-9.266c0.306,-3.7 0.482,-7.426 0.652,-11.03c0.112,-2.364 0.223,-4.728 0.371,-7.086c0.274,-4.37 0.346,-8.759 0.415,-13.003c0.028,-1.739 0.057,-3.479 0.099,-5.217l0.055,-2.191c0.132,-5.255 0.27,-10.689 0.089,-16.115c-0.07,-2.108 -1.438,-3.876 -3.322,-4.546c-0.135,-0.16 -0.286,-0.325 -0.452,-0.491c-3.227,-3.227 -7.236,-3.088 -9.393,-3.012c-0.276,0.01 -0.544,0.02 -0.799,0.02c-4.718,0 -17.251,0 -18.977,10.356c-0.022,0.135 -0.039,0.27 -0.051,0.406c-0.412,4.936 0.088,9.512 0.571,13.937c0.143,1.303 0.284,2.598 0.398,3.889c0.488,5.488 0.087,10.889 -0.372,15.956c-0.341,2.333 -0.882,4.599 -1.455,6.996c-1.039,4.347 -2.112,8.839 -2.156,14.292c-0.836,5.592 -5.795,10.266 -10.958,10.266c-3.084,0 -5.855,2.673 -6.897,5.188c-1.011,2.44 -0.556,5.039 1.187,6.782c0.479,0.479 1.05,0.855 1.679,1.107l1.209,0.478c4.416,1.733 7.005,2.877 8.101,5.88c1.209,5.45 0.773,10.659 0.313,16.17l-0.043,0.52c-0.548,6.594 -0.96,12.601 -0.442,19.334c0.011,0.146 0.029,0.293 0.053,0.438c0.103,0.618 0.202,1.238 0.3,1.855c0.748,4.705 1.577,9.925 4.466,14.259c-1.63,4.995 -1.244,10.013 1.168,13.631c0.183,0.274 0.392,0.529 0.625,0.762c4.169,4.169 8.923,4.622 12.744,4.986c1.058,0.101 2.066,0.196 3.033,0.359c0.641,1.606 0.537,4.2 -0.023,7.043c-3.387,-0.698 -6.667,-0.854 -9.877,-1.009l-1.23,-0.06c-1.215,-0.063 -2.435,-0.105 -3.657,-0.147c-3.669,-0.129 -7.14,-0.25 -10.487,-0.883c-1.688,-0.663 -3.149,-2.224 -3.518,-2.96c-2.759,-5.519 -5.491,-11.471 -6.782,-17.605c-1.413,-6.714 -1.52,-12.76 -0.317,-17.969c0.032,-0.139 0.058,-0.277 0.078,-0.418c0.367,-2.57 1.14,-5.065 1.958,-7.707c1.202,-3.882 2.443,-7.892 2.519,-12.5c1.015,-6.489 -1.354,-13.619 -6.542,-19.636c-3.574,-4.146 -8.114,-7.069 -13.115,-8.508c0.001,-0.018 0.002,-0.036 0.003,-0.054c0.159,-2.759 0.33,-5.738 0.065,-8.812c3.686,-0.729 7.125,-2.43 10.155,-5.051c1.848,-1.6 3.469,-3.389 5.036,-5.12c1.497,-1.654 2.912,-3.216 4.419,-4.509c1.006,-0.863 1.629,-2.09 1.731,-3.413c0.479,-6.22 0.711,-12.876 0.711,-20.351l0,-1.219c-0.002,-6.338 -0.004,-12.329 0.435,-18.18c0.686,-4.327 0.333,-8.437 -0.009,-12.414c-0.172,-2.004 -0.335,-3.906 -0.359,-5.758c0.751,-3.412 3.856,-5.758 6.3,-5.758c0.145,0 0.289,-0.006 0.433,-0.019c4.708,-0.41 9.411,-0.551 14.39,-0.7l2.825,-0.086c7.012,-0.223 12.363,-0.323 17.352,-0.323l2.589,0c4.888,-0.002 9.938,-0.003 14.868,0.05c2.562,0.028 5.184,0.103 7.719,0.176c1.256,0.036 2.529,0.073 3.809,0.104c-0.684,0.87 -1.07,1.955 -1.07,3.092c0,2.962 0.014,5.926 0.028,8.885c0.016,3.337 0.032,6.667 0.027,9.981c-0.005,3.225 -0.098,6.529 -0.188,9.725c-0.083,2.972 -0.169,6.044 -0.188,9.09c-0.018,3.04 0.053,6.091 0.121,9.042c0.074,3.214 0.151,6.538 0.108,9.76c-0.06,4.499 -0.178,9.09 -0.292,13.531l-0.131,5.25c-0.04,1.674 -0.076,3.349 -0.113,5.025c-0.098,4.506 -0.2,9.166 -0.368,13.741c-0.098,2.663 -0.151,5.355 -0.202,7.959c-0.069,3.548 -0.142,7.216 -0.33,10.793c-0.004,0.088 -0.007,0.176 -0.007,0.264c0,1.16 -0.151,2.486 -0.311,3.891c-0.478,4.194 -1.072,9.415 2.255,13.851c0.142,0.189 0.297,0.368 0.464,0.535c1.94,1.941 4.144,2.146 6.131,1.746c0.45,0.219 0.911,0.38 1.369,0.498c-0.102,1.692 -0.245,3.373 -0.393,5.107z"/>
  <path fill="#ffffff" id="svg_5" d="m216.038881,327.67c-1.581,-4.127 -3.745,-9.78 -10.257,-11.641c-1.747,-0.501 -3.625,-0.012 -4.909,1.272c-1.854,1.854 -4.473,2.845 -8.06,3.772c-6.547,-0.034 -12.541,-0.624 -17.824,-1.753c-5.206,-1.112 -11.1,-2.765 -15.421,-6.588c-0.329,-0.356 -0.543,-0.791 -0.93,-1.607c-0.482,-1.018 -1.115,-2.352 -2.269,-3.711c-0.321,-0.847 -0.4,-1.689 -0.497,-3.016c0.507,0.009 1.012,0.018 1.513,0.026c3.612,0.063 7.023,0.122 10.542,0.334c3.877,0.232 7.852,0.592 11.696,0.939c2.318,0.21 4.636,0.419 6.957,0.605c2.838,0.227 5.693,0.36 8.454,0.49c3.538,0.166 6.879,0.322 10.238,0.659c3.533,0.354 7.148,0.862 10.646,1.355c2.567,0.362 5.221,0.736 7.874,1.055c2.295,0.267 4.484,-1.063 5.286,-3.233s0.009,-4.608 -1.917,-5.892c-2.288,-1.525 -2.447,-2.703 -2.364,-3.347c2.456,-5.66 3.483,-10.479 3.231,-15.126c-0.21,-3.883 -1.103,-7.584 -1.966,-11.164c-0.256,-1.063 -0.513,-2.125 -0.75,-3.189c-0.037,-0.167 -0.083,-0.333 -0.137,-0.497c-1.522,-4.566 -3.26,-9.401 -5.65,-13.819c-2.851,-5.271 -6.033,-9.372 -9.727,-12.538c-0.043,-0.037 -0.086,-0.073 -0.131,-0.108c-6.223,-4.978 -13.305,-7.077 -18.779,-8.349c-5.037,-1.171 -9.447,-1.85 -13.479,-2.059c-0.984,-0.622 -2.322,-1.013 -3.758,-0.697c-5.77,-0.48 -10.727,-0.208 -15.124,0.825c-5.428,1.275 -10.695,3.749 -15.232,7.152c-5.125,3.844 -9.694,8.659 -13.968,14.72c-4.129,5.857 -7.357,11.757 -9.596,17.536c-1.864,4.813 -2.867,9.73 -3.837,14.485c-0.297,1.457 -0.594,2.914 -0.916,4.361c-0.139,0.627 -0.157,1.274 -0.051,1.907c0.297,1.784 0.553,3.585 0.811,5.393c0.626,4.401 1.274,8.952 2.523,13.503c1.46,5.318 3.804,12.149 9.031,18.166c0.209,0.838 0.675,2.105 1.905,3.335c1.504,1.505 2.961,3.11 4.369,4.662c4.224,4.656 8.592,9.471 14.738,12.104c0.127,0.055 0.257,0.104 0.389,0.147c1.959,0.653 3.902,1.435 5.782,2.189c3.776,1.517 7.681,3.086 12.115,3.824c0.271,0.046 0.546,0.068 0.822,0.068c2.793,0 5.579,0.183 8.529,0.375c2.997,0.196 6.053,0.396 9.164,0.396c2.266,0 4.562,-0.105 6.885,-0.396c0.156,-0.019 0.311,-0.046 0.464,-0.08c4.298,-0.955 9.353,-2.255 14.259,-4.657c3.97,-1.941 9.013,-4.82 12.812,-9.887c1.493,-1.991 1.295,-4.776 -0.464,-6.535c-1.314,-1.307 -2.144,-3.473 -3.022,-5.766zm-13.724,13.212c-3.883,1.9 -8.125,3.002 -11.796,3.824c-4.5,0.533 -9.081,0.233 -13.928,-0.083c-2.84,-0.186 -5.772,-0.378 -8.74,-0.396c-3.225,-0.592 -6.35,-1.847 -9.65,-3.173c-1.952,-0.784 -3.968,-1.595 -6.132,-2.324c-4.062,-1.803 -7.327,-5.4 -11.098,-9.557c-1.319,-1.454 -2.677,-2.951 -4.136,-4.439c-0.211,-0.81 -0.661,-1.983 -1.768,-3.139c-3.216,-3.598 -5.361,-7.945 -7.165,-14.514c-1.081,-3.938 -1.656,-7.982 -2.266,-12.265c-0.218,-1.529 -0.441,-3.102 -0.691,-4.668c0.257,-1.192 0.501,-2.389 0.745,-3.585c0.928,-4.549 1.805,-8.845 3.364,-12.872c1.944,-5.019 4.785,-10.195 8.444,-15.385c3.661,-5.192 7.519,-9.275 11.795,-12.482c3.441,-2.582 7.425,-4.455 11.519,-5.417c2.246,-0.528 4.746,-0.79 7.559,-0.79c0.003,0 0.008,0 0.012,0c0.835,0.625 1.873,0.994 2.993,0.994c0.844,0 1.752,0.057 2.713,0.117c1.067,0.066 2.17,0.135 3.321,0.136c0.516,0.028 0.955,-0.066 1.398,-0.194c2.932,0.271 6.163,0.824 9.813,1.673c6.563,1.526 11.112,3.49 14.731,6.365c2.722,2.349 5.135,5.506 7.375,9.648c1.88,3.475 3.317,7.311 4.878,11.981c0.233,1.037 0.483,2.074 0.733,3.109c0.792,3.287 1.542,6.391 1.702,9.36c0.173,3.185 -0.629,6.582 -2.599,11.014c-0.118,0.265 -0.212,0.538 -0.282,0.818c-0.332,1.326 -0.447,2.638 -0.355,3.915c-2.804,-0.389 -5.667,-0.765 -8.538,-1.053c-3.622,-0.362 -7.253,-0.532 -10.765,-0.697c-2.68,-0.125 -5.451,-0.256 -8.125,-0.47c-2.287,-0.183 -4.571,-0.39 -6.854,-0.596c-3.918,-0.354 -7.97,-0.722 -11.997,-0.963c-3.731,-0.225 -7.41,-0.288 -10.968,-0.35c-2.531,-0.044 -5.148,-0.09 -7.73,-0.193c-1.757,-0.073 -3.44,0.797 -4.4,2.283c-0.96,1.485 -1.063,3.367 -0.272,4.949c0.533,1.064 0.62,1.97 0.739,3.608c0.145,1.99 0.326,4.468 1.769,7.354c0.24,0.48 0.557,0.919 0.937,1.299c0.372,0.372 0.588,0.81 1.002,1.684c0.572,1.206 1.355,2.857 2.967,4.469c0.062,0.063 0.126,0.123 0.191,0.182c6.083,5.474 13.594,7.641 20.14,9.039c6.134,1.311 13.042,1.976 20.532,1.976c0.409,0 0.816,-0.05 1.213,-0.149c3.243,-0.811 6.832,-1.847 10.095,-3.967c0.619,0.894 1.186,2.263 1.961,4.286c0.658,1.719 1.366,3.568 2.373,5.361c-2.115,1.863 -4.538,3.19 -6.759,4.277z"/>
  <path fill="#ffffff" id="svg_6" d="m148.793881,284.062c0.925,2.273 3.404,3.541 5.796,2.988c6.315,-1.458 12.198,-1.951 17.988,-1.504c3.041,0.234 6.132,0.733 9.405,1.262c3.334,0.537 6.782,1.094 10.241,1.359c0.128,0.01 0.256,0.015 0.384,0.015c1.255,0 2.469,-0.473 3.397,-1.331c1.021,-0.946 1.603,-2.276 1.603,-3.669c0,-10.114 -1.978,-18.209 -5.879,-24.06c-0.099,-0.148 -0.205,-0.291 -0.319,-0.427c-6.963,-8.355 -20.199,-7.063 -27.374,-3.475c-1.29,0.645 -2.234,1.281 -3.067,1.842c-0.693,0.467 -1.241,0.836 -1.951,1.191c-0.186,0.093 -0.365,0.197 -0.538,0.312c-7.442,4.961 -11.415,14.211 -9.956,22.647c-0.266,1.431 0.179,2.627 0.27,2.85zm15.016,-17.028c1.128,-0.588 1.983,-1.165 2.746,-1.678c0.693,-0.467 1.241,-0.836 1.951,-1.191c4.1,-2.051 11.732,-2.922 15.06,0.748c1.974,3.081 3.252,7.376 3.773,12.615c-1.232,-0.184 -2.485,-0.386 -3.765,-0.592c-3.331,-0.537 -6.774,-1.092 -10.23,-1.359c-1.585,-0.122 -3.188,-0.183 -4.809,-0.183c-3.34,0 -6.75,0.258 -10.198,0.772c0.472,-3.52 2.486,-7.041 5.472,-9.132z"/>
 </g>
</svg>