<svg width="767.9999999999999" height="525" xmlns="http://www.w3.org/2000/svg">

 <g>
  <title>background</title>
  <rect fill="none" id="canvas_background" height="527" width="770" y="-1" x="-1"/>
 </g>
 <g>
  <title>Layer 1</title>
  <path fill="#ffffff" id="svg_2" d="m438.83549,192.358l-0.003,-3.356c0,-7.208 -2.254,-14.256 -6.697,-20.946c-3.23,-4.865 -7.81,-10.972 -14.604,-15.05c-0.08,-0.048 -0.161,-0.095 -0.243,-0.141c-5.333,-3 -10.092,-5.836 -14.552,-8.672c-2.973,-1.89 -5.953,-3.624 -8.835,-5.301c-2.197,-1.278 -4.273,-2.486 -6.332,-3.75c-1.064,-0.653 -2.124,-1.316 -3.187,-1.979c-2.965,-1.853 -6.005,-3.753 -9.275,-5.554c-0.882,-1.382 -1.932,-2.339 -2.723,-2.932c-0.479,-0.36 -0.991,-0.676 -1.528,-0.944c-1.157,-0.579 -2.325,-1.149 -3.496,-1.721c-3.792,-1.852 -7.373,-3.601 -10.589,-5.632c-5.185,-3.274 -9.906,-6.202 -15.066,-8.803c-2.415,-1.414 -4.787,-3.019 -7.293,-4.716c-1.939,-1.313 -3.945,-2.67 -6.032,-3.975c-1.863,-1.165 -3.736,-2.31 -5.61,-3.455c-2.747,-1.679 -5.588,-3.416 -8.308,-5.167c-2.009,-1.294 -3.989,-2.624 -6.085,-4.032c-2.499,-1.678 -5.082,-3.413 -7.758,-5.108c-2.979,-1.888 -6.055,-3.676 -9.03,-5.405c-1.065,-0.619 -2.136,-1.241 -3.208,-1.871c-0.648,-0.907 -1.438,-1.721 -2.363,-2.437c-0.42,-0.325 -0.865,-0.617 -1.332,-0.871c-3.308,-1.804 -6.329,-3.74 -9.527,-5.79c-1.636,-1.048 -3.253,-2.083 -4.884,-3.086c-2.843,-1.748 -5.688,-3.349 -8.44,-4.897c-2.344,-1.319 -4.557,-2.564 -6.789,-3.904c-0.219,-0.131 -0.443,-0.254 -0.672,-0.369c-5.399,-2.701 -10.758,-5.229 -16.93,-6.489c-7.028,-1.435 -13.696,-0.904 -18.725,-0.282c-5.521,0.685 -12.391,1.537 -18.796,5.198c-0.772,0.441 -1.481,0.982 -2.11,1.611c-0.716,0.716 -1.278,1.454 -1.722,2.158c-0.175,0.107 -0.342,0.211 -0.502,0.311c-2.307,0.323 -4.469,1.408 -6.252,3.19c-0.344,0.343 -0.661,0.711 -0.951,1.099c-0.19,0.093 -0.396,0.19 -0.573,0.274c-0.375,0.178 -0.75,0.356 -1.117,0.541c-0.13,0.065 -0.258,0.133 -0.385,0.203c-2.31,1.284 -4.588,2.599 -6.856,3.909c-2.78,1.605 -5.406,3.122 -8.071,4.57c-1.757,0.955 -3.509,1.911 -5.256,2.865c-3.296,1.8 -6.578,3.591 -9.861,5.352c-2.378,1.274 -4.826,2.457 -7.417,3.708c-2.617,1.264 -5.323,2.57 -8.012,4.008l-2.229,1.19c-4.34,2.317 -8.678,4.634 -13.018,6.972c-2.875,1.548 -5.721,3.164 -8.473,4.726c-2.21,1.254 -4.424,2.511 -6.665,3.74c-2.162,1.186 -4.38,2.313 -6.728,3.504c-2.828,1.436 -5.752,2.921 -8.674,4.568c-2.918,1.645 -5.649,3.438 -8.289,5.173c-2.139,1.405 -4.165,2.736 -6.214,3.944c-1.733,0.864 -3.439,1.695 -5.129,2.519c-5.53,2.694 -11.234,5.474 -17.238,9.105c-2.506,0.732 -4.942,2.148 -6.838,4.043c-0.079,0.08 -0.149,0.149 -0.213,0.21c-1.967,0.385 -4.729,1.138 -7.084,3.493c-0.453,0.453 -0.838,0.903 -1.167,1.333c-0.61,0.382 -1.134,0.752 -1.588,1.084c-1.746,0.143 -4.472,0.79 -6.782,3.2c-7.067,2.046 -11.677,5.893 -15.304,9.52c-0.76,0.76 -1.392,1.638 -1.873,2.599c-0.507,1.014 -1.222,1.893 -1.488,2.159c-0.76,0.76 -1.392,1.638 -1.873,2.599c-3.49,6.98 -2.099,13.92 -1.083,18.987c0.324,1.616 0.658,3.283 0.702,4.392c-0.171,2.65 -0.419,5.301 -0.681,8.1c-0.276,2.946 -0.561,5.992 -0.75,9.064c-0.169,2.739 -0.45,5.487 -0.748,8.396c-0.302,2.957 -0.614,6.015 -0.808,9.126c-0.172,2.753 -0.334,5.504 -0.498,8.255c-0.184,3.098 -0.367,6.194 -0.562,9.289c-0.189,2.988 -0.404,5.973 -0.62,8.956c-0.207,2.86 -0.413,5.719 -0.596,8.579c-0.193,3.017 -0.309,6.023 -0.421,8.931c-0.115,2.981 -0.224,5.796 -0.408,8.621c-0.201,3.063 -0.298,6.098 -0.392,9.032c-0.095,2.956 -0.184,5.747 -0.37,8.524c-0.184,2.738 -0.488,5.493 -0.811,8.41c-0.326,2.941 -0.662,5.982 -0.875,9.083c-0.214,3.112 -0.291,6.175 -0.365,9.136c-0.073,2.931 -0.143,5.698 -0.335,8.426c-0.205,2.905 -0.366,5.822 -0.521,8.644c-0.161,2.93 -0.328,5.958 -0.541,8.888c-0.198,2.726 -0.532,5.479 -0.885,8.395c-0.355,2.936 -0.722,5.971 -0.957,9.078c-0.245,3.249 -0.515,6.512 -0.785,9.772c-0.214,2.597 -0.429,5.191 -0.631,7.778c-0.181,2.312 0.448,4.614 1.777,6.514c3.435,4.907 6.445,10.567 8.684,14.95l0.322,0.632c3.007,5.894 6.116,11.987 10.843,17.303c0.786,0.884 1.722,1.621 2.766,2.178c2.299,1.227 4.594,2.391 6.813,3.518c2.759,1.4 5.366,2.723 7.91,4.121c2.169,1.191 4.325,2.562 6.608,4.012c2.443,1.552 4.97,3.156 7.691,4.652c2.879,1.582 5.811,3.087 8.646,4.543c2.089,1.072 4.189,2.15 6.285,3.269c1.198,0.639 2.511,1.026 3.858,1.141c0.174,0.039 0.359,0.087 0.544,0.132c0.224,0.055 0.458,0.112 0.703,0.169c6.961,4.398 13.449,7.082 19.769,8.184c1.181,0.267 2.354,0.567 3.526,0.865c3.266,0.832 6.967,1.774 10.906,2.106c4.863,0.409 9.963,0.305 15.594,-0.32c8.821,-0.979 21.569,-3.474 30.395,-13.771c0.03,-0.035 0.06,-0.07 0.089,-0.106c6.391,-7.668 9.659,-15.868 11.792,-22.155c2.605,-7.678 4.398,-14.979 5.475,-22.302c0.962,-4.186 0.871,-7.999 0.79,-11.38c-0.02,-0.833 -0.041,-1.666 -0.041,-2.499c0,-0.23 -0.008,-0.46 -0.024,-0.689c-0.249,-3.607 -0.257,-7.304 -0.266,-11.218c-0.004,-1.964 -0.009,-3.93 -0.043,-5.896c-0.095,-5.44 -0.163,-11.291 -0.017,-17.212c0.118,-4.815 0.414,-9.801 0.701,-14.623l0.156,-2.65c0.236,-4.036 0.609,-8.203 0.97,-12.232c0.152,-1.692 0.303,-3.384 0.446,-5.076c0.209,-2.479 0.375,-4.959 0.541,-7.434c0.23,-3.455 0.448,-6.718 0.784,-9.958c0.014,-0.135 0.025,-0.271 0.034,-0.406c0.209,-3.351 0.456,-6.676 0.7,-9.984c0.218,-2.944 0.435,-5.874 0.625,-8.794c0.185,-2.832 0.347,-5.656 0.509,-8.474c0.198,-3.443 0.396,-6.875 0.634,-10.301c0.21,-3.03 0.561,-6.07 0.932,-9.289c0.352,-3.047 0.715,-6.198 0.959,-9.406c0.253,-3.33 0.297,-6.58 0.338,-9.724c0.042,-3.165 0.082,-6.155 0.326,-9.055c0.264,-3.134 0.645,-6.279 1.047,-9.609c0.354,-2.933 0.722,-5.965 1.01,-9.046c0.029,-0.31 0.043,-0.621 0.043,-0.933c0,-0.424 -0.013,-0.871 -0.043,-1.336c0.764,-1.723 1.047,-3.675 0.727,-5.65c-0.771,-4.751 -4.813,-8.266 -9.599,-8.395l-0.056,-0.004c-2.82,-0.223 -5.021,0.285 -6.718,1.135c-2.206,0.139 -4.607,-0.145 -7.392,-0.474c-2.782,-0.329 -5.823,-0.699 -9.153,-0.659c-2.141,-0.797 -4.108,-0.836 -5.641,-0.631c-6.005,0.807 -8.734,5.595 -10.045,7.896c-0.116,0.204 -0.269,0.471 -0.396,0.686c-2.036,1.767 -3.287,4.297 -3.43,7.025c-0.147,2.806 -0.395,5.586 -0.657,8.53c-0.241,2.716 -0.491,5.524 -0.66,8.39c-0.168,2.852 -0.263,5.692 -0.354,8.438c-0.099,2.989 -0.193,5.812 -0.374,8.637c-0.176,2.752 -0.31,5.508 -0.444,8.265c-0.141,2.905 -0.287,5.909 -0.483,8.812c-0.18,2.678 -0.475,5.373 -0.786,8.226c-0.312,2.855 -0.634,5.808 -0.844,8.817c-0.21,3.022 -0.306,6.008 -0.398,8.896c-0.091,2.854 -0.178,5.549 -0.366,8.221c-0.178,2.537 -0.52,5.139 -0.881,7.894c-0.387,2.948 -0.787,5.996 -1.007,9.16c-0.21,3.028 -0.363,6.063 -0.512,8.999c-0.135,2.68 -0.275,5.451 -0.456,8.13c-0.209,3.111 -0.372,6.237 -0.529,9.261c-0.137,2.629 -0.273,5.257 -0.441,7.883c-0.204,3.192 -0.356,6.398 -0.503,9.499c-0.122,2.556 -0.242,5.11 -0.393,7.664c-0.208,3.535 -0.381,7.078 -0.553,10.619c-0.101,2.074 -0.202,4.147 -0.31,6.22c-0.327,2.686 -0.555,5.329 -0.775,7.889c-0.442,5.138 -0.86,9.99 -2.011,14.596c-0.615,2.46 -1.362,4.215 -2.694,6.291c-2.043,2.311 -4.5,3.174 -7.89,2.79c-4.084,-0.46 -8.969,-2.796 -13.328,-5.141c-4.895,-3.932 -9.817,-6.573 -14.587,-9.133c-0.657,-0.353 -1.322,-0.709 -1.992,-1.072c-1.031,-1.842 -2.397,-3.006 -3.207,-3.584c-0.425,-0.305 -0.874,-0.574 -1.342,-0.809c-3.589,-1.794 -7.023,-3.986 -10.345,-6.105c-1.006,-0.642 -2.032,-1.297 -3.064,-1.941c-0.257,-0.409 -0.521,-0.794 -0.791,-1.155c0.017,-0.882 0.033,-1.763 0.049,-2.645c0.06,-3.237 0.121,-6.585 0.243,-9.854c0.113,-3.01 0.146,-6.01 0.179,-8.91c0.036,-3.161 0.069,-6.148 0.196,-9.142c0.119,-2.794 0.216,-5.591 0.313,-8.389c0.111,-3.225 0.223,-6.45 0.37,-9.675c0.15,-3.275 0.313,-6.553 0.475,-9.83c0.136,-2.746 0.272,-5.492 0.401,-8.238c0.125,-2.635 0.457,-5.366 0.808,-8.258c0.382,-3.146 0.777,-6.396 0.935,-9.794c0.154,-3.331 0.123,-6.585 0.092,-9.731c-0.029,-2.932 -0.056,-5.701 0.063,-8.411c0.12,-2.759 0.311,-5.5 0.513,-8.401c0.22,-3.159 0.448,-6.426 0.576,-9.72c0.131,-3.386 0.08,-6.696 0.03,-9.897c-0.044,-2.882 -0.087,-5.604 0,-8.283c0.085,-2.656 0.229,-5.404 0.368,-8.062c0.172,-3.289 0.351,-6.69 0.431,-10.108c0.062,-2.626 0.191,-5.238 0.327,-8.002c0.164,-3.313 0.333,-6.739 0.376,-10.198c0.049,-3.824 0.081,-7.808 0.096,-12.059c0.074,-0.056 0.148,-0.113 0.221,-0.172c1.628,-1.302 3.312,-2.254 5.262,-3.357c1.745,-0.986 3.629,-2.051 5.54,-3.428c2.18,-0.317 3.797,-1.246 4.49,-1.708c1.332,-0.889 2.429,-2.083 3.201,-3.48c0.104,-0.069 0.281,-0.176 0.562,-0.317c2.438,-1.243 4.946,-2.392 7.601,-3.609c3.142,-1.44 6.39,-2.929 9.613,-4.626c3.385,-1.784 6.751,-3.634 10.007,-5.423c2.237,-1.229 4.472,-2.458 6.715,-3.667c3.038,-1.636 6.032,-3.341 8.929,-4.989c2.508,-1.428 5.102,-2.904 7.637,-4.285c2.687,-1.464 5.484,-2.923 8.188,-4.335c2.799,-1.461 5.693,-2.972 8.549,-4.528c2.899,-1.579 5.911,-3.154 8.824,-4.678c2.631,-1.375 5.262,-2.751 7.877,-4.162c2.719,-1.467 5.376,-3.002 7.946,-4.488c2.916,-1.685 5.67,-3.277 8.48,-4.76c2.52,-1.33 5.013,-2.709 7.425,-4.043c3.131,-1.733 6.089,-3.37 9.115,-4.916c2.849,-1.455 5.814,-2.774 8.953,-4.171c2.637,-1.174 5.364,-2.388 8.082,-3.715c2.565,-1.253 5.072,-2.57 7.495,-3.843c0.998,-0.524 1.978,-1.039 2.947,-1.542c0.021,0.012 0.041,0.024 0.062,0.037c2.035,1.227 4.301,2.594 6.93,3.775c0.002,0.003 0.005,0.006 0.008,0.009c1.001,1.16 2.666,3.087 5.365,4.476c4.902,2.617 9.458,5.164 13.925,7.787c2.005,1.177 4.001,2.261 5.932,3.31c2.833,1.539 5.509,2.992 7.99,4.607c3.851,2.508 7.684,5.25 11.742,8.154l1.428,1.021c0.425,0.304 0.874,0.574 1.342,0.808c1.414,0.707 2.71,1.133 3.671,1.424c2.885,2.622 5.688,4.36 8.2,5.917c1.356,0.841 2.637,1.635 3.759,2.476c0.479,0.36 0.991,0.676 1.528,0.944c1.318,0.66 2.49,1.08 3.356,1.388c1.172,1.04 2.265,1.822 3.186,2.481c0.79,0.565 1.361,0.974 1.779,1.393c0.466,0.465 0.977,0.884 1.524,1.249c3.066,2.044 5.885,3.859 8.61,5.614c2.659,1.712 5.409,3.482 8.343,5.438c0.081,0.055 0.164,0.108 0.247,0.16c2.643,1.652 5.239,3.465 7.751,5.218c2.19,1.53 4.456,3.111 6.775,4.604c3.153,2.032 6.31,3.938 9.362,5.783c1.946,1.176 3.892,2.351 5.831,3.556c5.166,3.209 10.267,6.226 15.591,9.221c0.142,0.08 0.286,0.156 0.432,0.229c1.573,0.787 3.125,1.647 4.767,2.558c2.347,1.301 4.866,2.697 7.668,3.978c0.62,1.222 1.387,2.252 2.155,3.118c-0.503,4.608 -0.569,8.913 -0.574,13.747c-0.355,3.318 -0.422,6.494 -0.485,9.571c-0.052,2.498 -0.101,4.857 -0.303,7.1c-0.197,2.195 -0.44,4.374 -0.698,6.68c-0.38,3.402 -0.772,6.92 -1.007,10.506l-0.207,3.129c-0.307,4.596 -0.623,9.349 -0.832,14.081c-0.239,5.405 -0.434,11.031 -0.595,17.198c-0.146,5.465 -0.288,11.329 -0.354,17.176c-0.038,3.278 0.097,6.478 0.227,9.571c0.107,2.562 0.21,4.985 0.216,7.373c-0.125,2.761 -0.451,5.628 -0.795,8.659c-0.339,2.978 -0.688,6.057 -0.868,9.244c-0.256,4.538 -0.314,9.066 -0.372,13.445c-0.022,1.741 -0.045,3.482 -0.08,5.222c-0.116,5.713 -0.174,12.457 0.274,19.162c0.325,4.896 0.783,9.252 1.405,13.327c-0.562,0.683 -1.045,1.367 -1.464,2.022c-0.153,0.103 -0.304,0.209 -0.452,0.32c-2.416,1.812 -5.156,3.136 -8.059,4.537c-0.582,0.281 -1.162,0.562 -1.74,0.845c-1.088,0.397 -2.257,1.026 -3.37,2.015c-1.37,0.554 -2.65,1.41 -3.798,2.557c-0.182,0.183 -0.356,0.371 -0.524,0.566c-0.012,0.005 -0.024,0.01 -0.036,0.015c-0.624,0.256 -1.4,0.574 -2.238,0.993c-0.098,0.049 -0.195,0.1 -0.291,0.152c-2.896,1.569 -5.579,3.27 -8.174,4.914c-2.486,1.576 -4.834,3.065 -7.182,4.321c-2.446,1.31 -5.014,2.503 -7.731,3.767c-2.734,1.271 -5.562,2.584 -8.375,4.076c-2.837,1.504 -5.525,3.112 -8.126,4.668c-2.558,1.53 -4.974,2.976 -7.409,4.256c-2.487,1.309 -5.062,2.514 -7.787,3.789c-2.719,1.273 -5.53,2.59 -8.329,4.052c-2.556,1.335 -5.099,2.693 -7.641,4.053c-2.727,1.457 -5.453,2.914 -8.195,4.34c-2.584,1.344 -5.174,2.614 -7.917,3.96c-2.655,1.303 -5.4,2.65 -8.124,4.063c-2.766,1.435 -5.535,2.866 -8.307,4.299c-2.541,1.314 -5.084,2.629 -7.625,3.946c-2.843,1.474 -5.582,3.042 -8.231,4.56c-2.572,1.473 -5.003,2.864 -7.472,4.146c-2.522,1.311 -5.058,2.6 -7.596,3.892c-2.793,1.421 -5.59,2.845 -8.379,4.297c-0.318,0.166 -0.628,0.35 -0.927,0.549c-1.181,0.787 -1.78,1.103 -2.081,1.227c-4.14,-1.485 -7.851,-3.691 -13.313,-7.32c-4.319,-3.54 -8.265,-5.894 -12.084,-8.171c-1.706,-1.017 -3.331,-1.985 -4.967,-3.048c-0.292,-0.288 -0.58,-0.572 -0.866,-0.854c-2.042,-2.01 -3.805,-3.746 -4.884,-5.365c-2.557,-3.837 -7.406,-5.427 -11.739,-3.851c-4.409,1.604 -8.593,3.503 -12.64,5.34c-1.449,0.657 -2.898,1.315 -4.356,1.958c-4.73,2.087 -9.896,3.837 -15.354,5.202c-2.703,0.676 -5,2.447 -6.341,4.89c-1.34,2.441 -1.602,5.331 -0.721,7.974c1.523,4.57 4.44,8.404 8.151,10.879c0.13,0.112 0.264,0.222 0.4,0.327c4.707,3.661 9.575,6.837 14.282,9.908l0.356,0.232c1.551,1.012 3.083,2.056 4.616,3.099c3.194,2.174 6.498,4.422 10.059,6.477c3.084,1.778 6.204,3.381 9.22,4.93c2.08,1.068 4.044,2.077 5.989,3.135c2.313,1.259 4.646,2.49 6.982,3.725c1.646,0.869 3.328,1.758 4.999,2.654c1.99,4.068 5.136,5.522 7.407,6.026c5.065,1.254 9.892,1.89 14.348,1.89c0.048,0 0.097,0 0.145,-0.001c0.265,0.03 0.742,0.121 1.109,0.191c1.159,0.22 2.74,0.521 4.635,0.521c1.607,0 3.44,-0.216 5.433,-0.88c0.117,-0.039 0.319,-0.113 0.436,-0.156c7.637,-2.863 15.508,-5.815 23.105,-11.646c0.221,-0.041 0.435,-0.08 0.629,-0.108c2.101,-0.1 4.122,-0.86 5.771,-2.18c4.067,-3.254 9.029,-6.21 13.273,-7.907c0.495,-0.198 0.974,-0.436 1.431,-0.71c2.036,-1.222 4.262,-2.248 6.617,-3.335c2.736,-1.263 5.565,-2.567 8.529,-4.346c0.481,-0.289 0.938,-0.617 1.363,-0.982c2.228,-1.909 5.142,-3.164 8.516,-4.617c4.085,-1.76 8.656,-3.729 12.76,-7.297l1.27,-0.576c4.62,-2.092 9.397,-4.255 14.112,-6.606c5.354,-2.669 10.896,-5.521 16.471,-8.475c3.112,-1.648 6.094,-3.417 8.977,-5.127c2.406,-1.427 4.679,-2.774 6.992,-4.04c2.835,-1.552 5.621,-3.175 8.314,-4.745c2.6,-1.515 5.055,-2.945 7.567,-4.328c1.697,-0.934 3.395,-1.872 5.093,-2.812c3.555,-1.966 7.229,-3.999 10.851,-5.951c3.264,-1.76 6.552,-3.414 10.032,-5.166c2.021,-1.017 4.043,-2.035 6.06,-3.073c0.554,-0.285 1.078,-0.621 1.567,-1.002c0.083,-0.044 0.168,-0.089 0.256,-0.135c0.889,-0.473 2.126,-1.13 3.406,-2.097c0.762,-0.219 1.498,-0.529 2.191,-0.926c9.367,-5.353 15.735,-13.327 18.473,-23.108c0.619,-1.335 1.112,-2.59 1.558,-3.724c0.645,-1.642 1.254,-3.193 1.8,-3.738c3.532,-3.533 3.869,-9.052 1.011,-12.963c-0.002,-0.232 -0.001,-0.474 -0.001,-0.686l0,-0.348c0,-0.156 -0.004,-0.312 -0.011,-0.468c-0.134,-2.847 -0.039,-5.808 0.062,-8.942c0.085,-2.662 0.173,-5.414 0.122,-8.243c-0.033,-1.87 -0.08,-3.739 -0.126,-5.608c-0.099,-4.004 -0.192,-7.786 -0.17,-11.609c0.015,-2.609 -0.033,-5.201 -0.079,-7.709c-0.061,-3.317 -0.118,-6.451 -0.041,-9.565c0.062,-2.483 0.087,-4.968 0.112,-7.452c0.033,-3.413 0.065,-6.636 0.192,-9.884c0.209,-5.421 0.474,-10.958 0.73,-16.313l0.05,-1.041c0.129,-2.682 0.416,-5.417 0.721,-8.312c0.307,-2.924 0.624,-5.948 0.787,-9.063c0.146,-2.807 0.348,-5.703 0.542,-8.502c0.202,-2.913 0.411,-5.925 0.566,-8.935c0.175,-3.385 0.309,-6.772 0.441,-10.159c0.097,-2.451 0.193,-4.901 0.306,-7.347c0.155,-3.343 0.187,-6.653 0.217,-9.854c0.025,-2.671 0.049,-5.194 0.14,-7.722c0.132,-3.714 0.172,-7.43 0.21,-11.022c0.023,-2.198 0.047,-4.396 0.092,-6.593c0.1,-4.818 0.094,-9.648 0.088,-14.319zm-20.082,13.902c-0.046,2.261 -0.07,4.523 -0.095,6.785c-0.037,3.47 -0.075,7.059 -0.198,10.525c-0.1,2.789 -0.126,5.562 -0.151,8.244c-0.03,3.159 -0.059,6.143 -0.196,9.122c-0.115,2.493 -0.213,4.988 -0.312,7.482c-0.13,3.306 -0.26,6.612 -0.43,9.914c-0.146,2.833 -0.35,5.755 -0.546,8.581c-0.2,2.885 -0.407,5.868 -0.563,8.844c-0.136,2.591 -0.412,5.228 -0.705,8.019c-0.32,3.044 -0.65,6.191 -0.807,9.44l-0.05,1.044c-0.259,5.4 -0.526,10.985 -0.738,16.493c-0.139,3.533 -0.174,7.054 -0.207,10.459c-0.024,2.385 -0.048,4.77 -0.107,7.154c-0.088,3.548 -0.023,7.047 0.039,10.432c0.046,2.498 0.089,4.858 0.075,7.226c-0.024,4.127 0.078,8.241 0.176,12.22c0.046,1.824 0.091,3.649 0.124,5.474c0.041,2.328 -0.035,4.716 -0.116,7.243c-0.105,3.308 -0.215,6.726 -0.061,10.271l0,0.105c-0.002,1.604 -0.004,3.583 0.458,5.723c-0.769,1.536 -1.354,3.025 -1.884,4.374c-0.439,1.119 -0.854,2.176 -1.308,3.082c-0.326,0.653 -0.58,1.34 -0.757,2.047c-1.049,4.193 -3.36,7.555 -7.038,10.214c-2.321,0.314 -4.487,1.392 -6.27,3.174c-0.266,0.267 -0.517,0.547 -0.751,0.841c-0.095,0.051 -0.189,0.102 -0.271,0.145c-0.694,0.369 -1.547,0.821 -2.431,1.446c-1.685,0.862 -3.374,1.713 -5.062,2.562c-3.451,1.737 -7.02,3.533 -10.532,5.427c-3.717,2.004 -7.439,4.063 -11.04,6.055c-1.685,0.932 -3.368,1.863 -5.052,2.789c-2.729,1.502 -5.407,3.063 -7.997,4.571c-2.699,1.573 -5.248,3.059 -7.845,4.479c-2.617,1.432 -5.147,2.933 -7.596,4.385c-2.803,1.662 -5.45,3.232 -8.137,4.656c-5.43,2.877 -10.824,5.651 -16.032,8.248c-4.382,2.186 -8.78,4.178 -13.438,6.286l-2.763,1.253c-1.092,0.496 -2.085,1.185 -2.933,2.032c-1.746,1.746 -4.642,2.993 -7.995,4.438c-4.025,1.733 -8.558,3.686 -12.875,7.181c-1.865,1.065 -3.88,1.995 -5.999,2.973c-2.523,1.164 -5.125,2.364 -7.84,3.938c-5.062,2.111 -10.507,5.249 -15.359,8.836c-0.271,0.049 -0.537,0.101 -0.773,0.135c-2.216,0.105 -4.34,0.946 -6.031,2.396c-5.408,4.636 -11.534,7.037 -18.661,9.714c-0.181,-0.033 -0.383,-0.071 -0.555,-0.104c-1.207,-0.229 -2.851,-0.542 -4.868,-0.554c-0.184,0.001 -0.362,0.001 -0.542,0.009c-1.597,-0.024 -3.306,-0.184 -5.114,-0.476c-0.388,-0.564 -0.848,-1.133 -1.394,-1.679c-0.667,-0.667 -1.425,-1.236 -2.252,-1.691c-2.758,-1.517 -5.54,-2.986 -8.23,-4.406c-2.264,-1.196 -4.523,-2.389 -6.766,-3.609c-2.154,-1.171 -4.317,-2.282 -6.409,-3.356c-2.933,-1.506 -5.704,-2.929 -8.366,-4.464c-2.915,-1.682 -5.772,-3.626 -8.798,-5.686c-1.64,-1.116 -3.28,-2.231 -4.94,-3.314l-0.357,-0.232c-1.733,-1.132 -3.431,-2.238 -5.091,-3.35c0.61,-0.256 1.215,-0.516 1.815,-0.78c1.521,-0.671 3.037,-1.358 4.551,-2.046c1.653,-0.75 3.266,-1.482 4.859,-2.18c0.701,0.713 1.407,1.407 2.105,2.095c0.487,0.48 0.985,0.97 1.49,1.476c0.466,0.466 0.977,0.884 1.524,1.249c2.326,1.551 4.502,2.849 6.608,4.104c3.582,2.136 6.675,3.979 9.954,6.713c0.273,0.228 0.559,0.44 0.855,0.638c6.198,4.133 11.927,7.753 19.272,10.201c0.243,0.08 0.488,0.152 0.737,0.214c8.235,2.061 14.535,-1.751 17.539,-3.734c2.576,-1.339 5.16,-2.653 7.74,-3.966c2.587,-1.316 5.171,-2.632 7.741,-3.967c2.835,-1.472 5.56,-3.032 8.195,-4.541c2.584,-1.479 5.024,-2.878 7.498,-4.16c2.535,-1.314 5.07,-2.625 7.604,-3.935c2.779,-1.438 5.558,-2.873 8.329,-4.312c2.523,-1.309 5.051,-2.548 7.727,-3.861c2.725,-1.337 5.542,-2.719 8.331,-4.169c2.811,-1.461 5.604,-2.954 8.398,-4.447c2.486,-1.329 4.973,-2.659 7.473,-3.965c2.412,-1.26 4.908,-2.428 7.55,-3.665c2.811,-1.315 5.718,-2.677 8.615,-4.199c2.923,-1.537 5.691,-3.194 8.369,-4.796c2.491,-1.491 4.844,-2.898 7.225,-4.16c2.353,-1.247 4.822,-2.396 7.437,-3.61c2.851,-1.324 5.798,-2.694 8.741,-4.271c2.996,-1.604 5.77,-3.361 8.452,-5.063c2.354,-1.492 4.579,-2.903 6.813,-4.124c0.25,-0.117 0.51,-0.216 0.766,-0.321c1.276,-0.522 3.164,-1.296 5.007,-2.716c1.651,-0.517 3.547,-1.551 5.174,-3.584c0.133,-0.064 0.267,-0.129 0.401,-0.193c2.797,-1.352 5.896,-2.848 9.075,-4.941c2.278,-0.654 3.838,-1.962 4.919,-3.041c0.762,-0.762 1.396,-1.641 1.878,-2.604l0.123,-0.246c0.131,-0.264 0.302,-0.606 0.453,-0.888c4.131,-1.948 6.469,-6.509 5.517,-11.081c-1.026,-4.928 -1.706,-10.248 -2.139,-16.746c-0.396,-5.926 -0.346,-11.877 -0.233,-17.427c0.036,-1.788 0.06,-3.577 0.083,-5.366c0.057,-4.357 0.11,-8.473 0.342,-12.579c0.147,-2.621 0.45,-5.289 0.771,-8.113c0.377,-3.318 0.767,-6.75 0.914,-10.287c0.006,-0.139 0.009,-0.278 0.009,-0.417c0,-2.877 -0.118,-5.697 -0.233,-8.426c-0.125,-2.961 -0.242,-5.758 -0.211,-8.502c0.065,-5.716 0.206,-11.488 0.35,-16.878c0.158,-6.049 0.349,-11.558 0.582,-16.842c0.199,-4.508 0.508,-9.147 0.807,-13.634l0.209,-3.153c0.205,-3.128 0.556,-6.268 0.927,-9.592c0.258,-2.311 0.524,-4.699 0.741,-7.108c0.264,-2.93 0.322,-5.75 0.378,-8.477c0.062,-2.919 0.118,-5.676 0.422,-8.257c0.046,-0.388 0.068,-0.778 0.068,-1.168c0,-5.595 0.055,-9.729 0.744,-14.376c0.34,-1.096 0.503,-2.247 0.471,-3.408c-0.085,-2.947 -1.29,-5.147 -2.604,-6.759c-0.121,-4.348 -3.046,-8.133 -7.249,-9.334c-3.841,-1.097 -7.118,-2.915 -10.913,-5.019c-1.686,-0.935 -3.426,-1.899 -5.294,-2.841c-4.997,-2.814 -9.787,-5.649 -14.64,-8.664c-2.01,-1.249 -4.025,-2.467 -6.043,-3.686c-3.065,-1.852 -5.962,-3.602 -8.875,-5.479c-2.006,-1.292 -4.021,-2.699 -6.155,-4.188c-2.679,-1.871 -5.448,-3.804 -8.474,-5.701c-3.021,-2.012 -5.801,-3.801 -8.49,-5.533c-2.442,-1.572 -4.961,-3.194 -7.629,-4.963c-1.279,-1.17 -2.476,-2.027 -3.471,-2.739c-0.79,-0.565 -1.361,-0.974 -1.779,-1.393c-2.195,-2.195 -4.66,-3.07 -6.291,-3.65c-0.221,-0.078 -0.436,-0.155 -0.628,-0.227c-1.486,-1.053 -2.931,-1.948 -4.233,-2.755c-2.347,-1.455 -4.2,-2.604 -5.905,-4.31c-2.36,-2.36 -5.069,-3.166 -6.688,-3.647c-0.147,-0.043 -0.319,-0.095 -0.475,-0.143l-0.475,-0.339c-4.24,-3.034 -8.246,-5.899 -12.464,-8.646c-3.15,-2.051 -6.306,-3.765 -9.357,-5.422c-1.869,-1.016 -3.635,-1.975 -5.353,-2.983c-4.55,-2.671 -9.179,-5.264 -14.134,-7.916c-0.049,-0.058 -0.098,-0.115 -0.147,-0.172c-1.02,-1.181 -2.728,-3.158 -5.517,-4.553c-0.247,-0.124 -0.5,-0.237 -0.758,-0.34c-1.588,-0.635 -3.16,-1.554 -4.936,-2.622c-1.685,-3.254 -5.074,-5.4 -8.88,-5.4c-0.477,0 -1.128,-0.006 -1.78,-0.012c-0.717,-0.006 -1.435,-0.013 -1.958,-0.013c-3.674,0 -6.952,1.998 -8.691,5.051c-0.625,0.327 -1.246,0.653 -1.863,0.978c-2.401,1.262 -4.67,2.453 -6.971,3.578c-2.399,1.171 -4.847,2.261 -7.438,3.415c-3.24,1.442 -6.59,2.934 -9.914,4.631c-3.324,1.697 -6.567,3.492 -9.705,5.228c-2.433,1.346 -4.73,2.618 -7.075,3.855c-3.15,1.663 -6.202,3.427 -9.153,5.132c-2.557,1.478 -4.973,2.874 -7.432,4.2c-2.539,1.369 -5.095,2.706 -7.651,4.042c-2.987,1.562 -6.076,3.177 -9.125,4.838c-2.7,1.471 -5.514,2.94 -8.234,4.36c-2.782,1.452 -5.658,2.953 -8.5,4.501c-2.7,1.47 -5.377,2.994 -7.966,4.467c-2.796,1.592 -5.687,3.238 -8.519,4.763c-2.293,1.235 -4.578,2.491 -6.865,3.748c-3.179,1.748 -6.466,3.554 -9.694,5.255c-2.736,1.441 -5.597,2.752 -8.625,4.14c-2.724,1.249 -5.541,2.54 -8.281,3.937c-1.893,0.946 -3.558,2.061 -4.989,3.336c-1.443,0.415 -2.51,1.037 -3.039,1.389c-0.551,0.367 -1.063,0.787 -1.531,1.254c-1.232,1.232 -2.922,2.188 -5.062,3.397c-1.302,0.736 -2.788,1.576 -4.37,2.603c-9.632,-1.344 -12.711,6.941 -13.053,7.967c-0.34,1.02 -0.513,2.087 -0.513,3.162c0,1.831 0.595,4.446 2.296,6.668c-0.014,4.366 -0.046,8.441 -0.096,12.343c-0.04,3.094 -0.192,6.19 -0.354,9.468c-0.137,2.769 -0.278,5.632 -0.346,8.516c-0.074,3.13 -0.237,6.241 -0.41,9.533c-0.145,2.758 -0.294,5.609 -0.385,8.467c-0.102,3.153 -0.054,6.245 -0.007,9.235c0.048,3.069 0.093,5.968 -0.018,8.812c-0.116,2.986 -0.323,5.958 -0.542,9.105c-0.202,2.901 -0.411,5.901 -0.543,8.922c-0.141,3.242 -0.11,6.411 -0.08,9.476c0.029,3.003 0.057,5.84 -0.071,8.611c-0.123,2.65 -0.457,5.397 -0.81,8.305c-0.38,3.125 -0.772,6.356 -0.932,9.732c-0.128,2.729 -0.264,5.459 -0.399,8.188c-0.164,3.303 -0.328,6.604 -0.479,9.906c-0.15,3.299 -0.265,6.6 -0.379,9.897c-0.095,2.745 -0.189,5.488 -0.306,8.229c-0.141,3.307 -0.178,6.591 -0.214,9.768c-0.032,2.898 -0.063,5.637 -0.167,8.386c-0.129,3.46 -0.192,6.905 -0.253,10.237c-0.048,2.613 -0.095,5.227 -0.175,7.853c-0.107,3.518 1.644,6.834 4.609,8.729c0.221,0.141 0.446,0.272 0.674,0.395c0.36,0.503 0.788,1.025 1.301,1.539c0.579,0.578 1.225,1.083 1.926,1.504c1.502,0.901 3.06,1.895 4.709,2.947c2.576,1.644 5.399,3.445 8.466,5.169c0.968,1.683 2.194,2.771 2.934,3.326c0.333,0.25 0.681,0.479 1.042,0.686c2.005,1.146 3.906,2.166 5.745,3.152c4.532,2.432 8.445,4.532 12.046,7.533c0.5,0.417 1.041,0.784 1.613,1.097c6.572,3.585 13.723,7.022 21.473,7.896c10.293,1.151 19.493,-2.513 25.898,-10.342c0.207,-0.253 0.4,-0.515 0.581,-0.786c2.806,-4.209 4.524,-8.09 5.747,-12.977c1.538,-6.153 2.044,-12.039 2.535,-17.731c0.224,-2.602 0.436,-5.06 0.739,-7.489c0.03,-0.237 0.051,-0.476 0.063,-0.715c0.117,-2.215 0.224,-4.433 0.332,-6.65c0.168,-3.473 0.337,-6.946 0.542,-10.413c0.155,-2.629 0.28,-5.261 0.405,-7.892c0.143,-3.02 0.292,-6.143 0.485,-9.171c0.173,-2.705 0.314,-5.413 0.455,-8.12c0.153,-2.948 0.312,-5.997 0.511,-8.955c0.192,-2.848 0.336,-5.704 0.475,-8.467c0.144,-2.843 0.292,-5.781 0.489,-8.62c0.177,-2.554 0.521,-5.172 0.885,-7.943c0.384,-2.928 0.782,-5.955 1.002,-9.096c0.214,-3.052 0.311,-6.066 0.404,-8.98c0.091,-2.829 0.177,-5.501 0.361,-8.151c0.182,-2.617 0.469,-5.248 0.773,-8.033c0.32,-2.93 0.651,-5.96 0.859,-9.053c0.208,-3.091 0.358,-6.189 0.504,-9.187c0.129,-2.655 0.258,-5.31 0.427,-7.96c0.2,-3.129 0.304,-6.238 0.404,-9.246c0.091,-2.741 0.177,-5.33 0.331,-7.927c0.151,-2.568 0.377,-5.106 0.616,-7.794c0.143,-1.603 0.288,-3.234 0.417,-4.891c0.437,-0.096 0.859,-0.22 1.264,-0.368c1.674,0.065 3.444,0.274 5.372,0.502c1.488,0.176 3.077,0.364 4.754,0.491c-0.078,0.653 -0.157,1.303 -0.235,1.948c-0.406,3.361 -0.827,6.836 -1.122,10.332c-0.304,3.606 -0.35,7.095 -0.395,10.469c-0.04,2.965 -0.077,5.767 -0.283,8.471c-0.214,2.821 -0.54,5.644 -0.885,8.633c-0.38,3.299 -0.774,6.71 -1.016,10.193c-0.244,3.505 -0.446,7.017 -0.649,10.54c-0.159,2.767 -0.318,5.54 -0.5,8.323c-0.186,2.863 -0.398,5.734 -0.612,8.619c-0.246,3.318 -0.492,6.654 -0.704,10.014c-0.361,3.534 -0.596,7.063 -0.824,10.479c-0.157,2.357 -0.314,4.719 -0.514,7.08c-0.14,1.658 -0.289,3.316 -0.438,4.976c-0.375,4.182 -0.763,8.506 -1.016,12.854l-0.155,2.629c-0.296,4.992 -0.603,10.154 -0.73,15.317c-0.155,6.289 -0.085,12.393 0.014,18.052c0.033,1.865 0.036,3.729 0.04,5.591c0.009,3.963 0.018,8.056 0.291,12.214c0.004,0.876 0.024,1.752 0.046,2.629c0.062,2.585 0.115,4.817 -0.329,6.592c-0.083,0.334 -0.149,0.671 -0.198,1.011c-0.892,6.243 -2.424,12.515 -4.684,19.173c-2.363,6.963 -4.808,11.67 -8.168,15.72c-3.262,3.772 -8.626,5.89 -17.378,6.862c-4.321,0.48 -8.15,0.569 -11.704,0.268c-2.29,-0.192 -4.895,-0.856 -7.652,-1.558c-1.4,-0.357 -2.848,-0.726 -4.356,-1.061c-0.174,-0.039 -0.349,-0.073 -0.525,-0.103c-4.111,-0.685 -8.716,-2.756 -14.078,-6.33c-1.406,-0.938 -3.023,-1.501 -4.698,-1.644c-0.174,-0.039 -0.359,-0.087 -0.544,-0.132c-0.382,-0.094 -0.793,-0.193 -1.23,-0.287c-1.686,-0.886 -3.372,-1.752 -5.052,-2.614c-2.836,-1.456 -5.515,-2.831 -8.146,-4.277c-2.167,-1.191 -4.323,-2.561 -6.604,-4.01c-2.445,-1.553 -4.974,-3.158 -7.697,-4.655c-2.833,-1.557 -5.71,-3.017 -8.492,-4.429c-1.564,-0.794 -3.168,-1.608 -4.75,-2.433c-2.538,-3.255 -4.669,-7.431 -6.909,-11.82l-0.326,-0.639c-2.101,-4.113 -4.826,-9.254 -8.057,-14.264c0.115,-1.41 0.231,-2.822 0.348,-4.234c0.273,-3.309 0.547,-6.619 0.796,-9.917c0.2,-2.656 0.525,-5.339 0.869,-8.178c0.365,-3.021 0.743,-6.143 0.977,-9.345c0.227,-3.107 0.398,-6.227 0.563,-9.243c0.153,-2.778 0.305,-5.557 0.501,-8.332c0.225,-3.181 0.303,-6.31 0.378,-9.334c0.072,-2.874 0.14,-5.587 0.324,-8.266c0.184,-2.687 0.483,-5.391 0.8,-8.254c0.332,-3.001 0.675,-6.104 0.888,-9.274c0.209,-3.126 0.309,-6.223 0.404,-9.219c0.093,-2.899 0.181,-5.637 0.359,-8.368c0.203,-3.092 0.321,-6.175 0.436,-9.157c0.112,-2.91 0.218,-5.659 0.395,-8.421c0.18,-2.806 0.383,-5.611 0.585,-8.418c0.22,-3.043 0.439,-6.088 0.632,-9.136c0.197,-3.12 0.382,-6.243 0.567,-9.367c0.162,-2.73 0.323,-5.461 0.493,-8.193c0.169,-2.716 0.448,-5.446 0.744,-8.337c0.304,-2.977 0.619,-6.055 0.813,-9.195c0.17,-2.759 0.428,-5.516 0.702,-8.436c0.277,-2.959 0.563,-6.019 0.753,-9.112c0.013,-0.205 0.019,-0.41 0.019,-0.615c0,-3.083 -0.583,-5.991 -1.097,-8.557c-0.326,-1.626 -0.832,-4.154 -0.766,-5.462c0.935,-1.155 1.818,-2.433 2.588,-3.748c2.517,-2.334 4.5,-3.369 7.297,-3.872c1.538,-0.205 3.608,-0.812 5.505,-2.456c0.551,-0.165 1.088,-0.377 1.605,-0.636c1.795,-0.897 3.055,-1.838 3.976,-2.524c0.212,-0.158 0.383,-0.285 0.524,-0.386c1.313,-0.52 2.721,-1.375 3.999,-2.772c1.863,-0.44 4.187,-1.281 6.212,-3.305c0.324,-0.324 0.494,-0.479 0.664,-0.632c0.145,-0.131 0.29,-0.262 0.456,-0.417c0.935,-0.256 1.833,-0.647 2.663,-1.166c5.687,-3.554 11.163,-6.222 16.96,-9.047c1.847,-0.9 3.712,-1.809 5.61,-2.758c0.192,-0.096 0.382,-0.199 0.568,-0.308c2.601,-1.517 5.034,-3.116 7.387,-4.662c2.469,-1.623 4.802,-3.155 7.127,-4.466c2.544,-1.434 5.15,-2.757 7.909,-4.158c2.384,-1.21 4.85,-2.462 7.29,-3.801c2.325,-1.275 4.625,-2.58 6.92,-3.882c2.78,-1.578 5.405,-3.068 8.083,-4.51c4.319,-2.326 8.637,-4.632 12.957,-6.938l2.233,-1.193c2.331,-1.246 4.737,-2.408 7.284,-3.638c2.664,-1.286 5.417,-2.616 8.168,-4.09c3.329,-1.785 6.655,-3.601 9.996,-5.424c1.735,-0.948 3.475,-1.897 5.219,-2.845c2.895,-1.573 5.758,-3.227 8.528,-4.826c2.104,-1.215 4.217,-2.437 6.358,-3.629c0.19,-0.093 0.383,-0.184 0.575,-0.275c1.419,-0.673 3.39,-1.609 5.261,-3.199c0.334,-0.125 0.662,-0.267 0.982,-0.427c1.428,-0.714 2.494,-1.381 3.35,-1.917c0.447,-0.28 0.809,-0.506 1.179,-0.714c1.686,-0.665 3.567,-1.885 5.007,-4.119c2.6,-0.89 5.736,-1.279 9.009,-1.685c5.216,-0.646 8.999,-0.637 12.263,0.029c3.692,0.754 7.47,2.528 11.651,4.614c2.355,1.406 4.681,2.714 6.934,3.982c2.705,1.522 5.261,2.96 7.774,4.505c1.523,0.938 3.036,1.907 4.566,2.888c2.645,1.695 5.36,3.435 8.318,5.146c0.549,0.745 1.192,1.428 1.93,2.047c0.402,0.337 0.831,0.643 1.281,0.913c1.886,1.132 3.772,2.228 5.643,3.315c2.941,1.709 5.72,3.324 8.373,5.006c2.452,1.554 4.924,3.214 7.314,4.819c2.083,1.399 4.236,2.845 6.406,4.243c2.918,1.879 5.86,3.678 8.707,5.417c1.817,1.111 3.634,2.221 5.44,3.35c1.777,1.111 3.547,2.309 5.421,3.577c2.763,1.871 5.62,3.805 8.729,5.605c0.177,0.102 0.357,0.199 0.54,0.291c4.449,2.225 8.801,4.926 13.622,7.971c4.138,2.613 8.385,4.688 12.491,6.693c0.029,0.014 0.059,0.028 0.088,0.042c0.879,1.324 1.907,2.244 2.688,2.819c0.461,0.34 0.95,0.64 1.462,0.896c3.733,1.867 7.246,4.061 10.964,6.385c1.107,0.692 2.213,1.382 3.322,2.063c2.26,1.387 4.536,2.711 6.736,3.992c2.84,1.653 5.522,3.213 8.163,4.892c4.726,3.005 9.743,5.998 15.337,9.146c3.295,2.019 5.958,5.628 8.133,8.903c2.259,3.401 3.357,6.633 3.357,9.881l0.003,3.381c0.02,4.562 0.026,9.283 -0.068,13.874z"/>
  <path fill="#ffffff" id="svg_3" d="m305.91749,330.104c-3.961,2.117 -8.215,3.468 -13.355,4.242c-5.975,0.899 -10.857,1.154 -15.339,0.81l-2.882,-0.406c-5.811,-0.814 -11.299,-1.583 -16.499,-2.755c-5.625,-1.267 -10.15,-2.794 -13.877,-6.085c-1.5,-1.65 -3.188,-6.174 -3.188,-13.779c0,-2.651 -1.054,-5.195 -2.928,-7.07c-5.681,-5.682 -12.828,-8.542 -21.18,-8.502c-4.86,0.023 -9.403,1.118 -13.412,2.084c-0.269,0.064 -0.536,0.129 -0.799,0.191c-6.946,-0.187 -14.641,4.53 -14.641,12.168c0,6.437 1.107,13.113 3.291,19.847c1.893,5.837 5.002,11.472 9.784,17.73c4.15,5.434 9.213,9.983 15.053,13.527c6.798,4.602 12.249,7.697 17.649,10.025c5.666,2.44 12.416,5.146 19.521,6.705c6.562,1.438 13.388,2.33 20.288,2.65c1.971,0.092 3.968,0.138 6.006,0.138c4.473,0 9.137,-0.222 14.111,-0.668c6.827,-0.612 13.665,-1.877 19.538,-3.014c0.176,-0.033 0.351,-0.072 0.525,-0.116c7.15,-1.787 13.606,-4.384 19.189,-7.717c5.786,-3.456 11.156,-7.948 15.962,-13.354c0.146,-0.164 0.285,-0.332 0.42,-0.506c4.238,-5.448 7.324,-11.327 9.172,-17.472c0.77,-2.559 1.296,-5.118 1.688,-7.659c0.39,-0.11 0.783,-0.24 1.183,-0.392c2.5,-0.618 4.73,-2.193 6.138,-4.499c1.679,-2.749 1.912,-5.547 1.299,-7.958c-0.61,-7.418 -2.174,-13.371 -4.866,-18.597c-3.599,-6.984 -9.073,-12.279 -13.441,-16.112c-3.777,-3.313 -7.86,-6.082 -12.201,-8.275c1.817,-0.05 3.594,-0.14 5.309,-0.226c2.37,-0.119 4.608,-0.231 6.68,-0.231c0.417,0 0.834,-0.026 1.248,-0.078c0.635,-0.08 1.25,-0.216 1.84,-0.402c5.492,-0.037 9.933,-4.5 9.933,-10c0,-1.267 -0.235,-2.478 -0.665,-3.593c-0.011,-0.535 -0.063,-1.068 -0.159,-1.595c-0.979,-5.389 -2.751,-10.097 -4.464,-14.649c-0.342,-0.908 -0.683,-1.815 -1.017,-2.727c-1.896,-5.178 -4.031,-10.729 -6.785,-16.238c-0.114,-0.229 -0.237,-0.454 -0.369,-0.673c-4.139,-6.897 -9.841,-11.612 -13.77,-14.559c-0.07,-0.053 -0.142,-0.104 -0.213,-0.155c-5.238,-3.717 -10.902,-6.9 -17.316,-9.73c-0.989,-0.437 -1.975,-0.884 -2.959,-1.331c-4.888,-2.218 -9.943,-4.512 -15.715,-5.768c-6.654,-1.447 -13.088,-1.572 -19.31,-1.693l-0.551,-0.011c-7.051,-0.139 -13.513,0.306 -19.748,1.355c-5.334,0.897 -12.338,2.247 -19.207,4.734c-6.647,2.407 -12.708,5.729 -17.76,8.663c-0.139,0.081 -0.276,0.165 -0.411,0.252c-7.183,4.648 -13.218,10.518 -17.452,16.974c-4.233,6.456 -7.219,14.321 -8.635,22.747c-1.52,9.049 -0.861,17.518 1.957,25.169c0.053,0.143 0.108,0.285 0.167,0.425c3.39,8.05 8.62,14.492 15.544,19.146c5.413,3.638 11.93,6.428 20.512,8.783c4.379,1.2 8.785,2.024 13.046,2.821c2.063,0.386 4.018,0.751 5.938,1.152c6.202,1.643 11.865,2.771 17.346,3.862c1.322,0.264 2.639,0.526 3.951,0.794c3.044,0.62 6.096,1.354 9.327,2.132c3.697,0.889 7.521,1.809 11.667,2.638c0.105,0.021 0.211,0.041 0.317,0.059c2.928,0.487 5.817,1.623 9.163,2.938c1.576,0.619 3.195,1.256 4.935,1.872c0.961,0.704 1.619,1.295 2.036,1.721c-0.186,4.981 -3.557,8.27 -6.619,10.241zm26.43,-14.253c-0.077,-0.7 -0.229,-1.39 -0.451,-2.058c-1.552,-4.654 -5.346,-9.02 -11.277,-12.974c-0.739,-0.493 -1.541,-0.886 -2.385,-1.167c-1.785,-0.595 -3.518,-1.275 -5.351,-1.996c-3.98,-1.564 -8.095,-3.182 -13.019,-4.023c-3.715,-0.747 -7.299,-1.608 -10.767,-2.442c-3.257,-0.784 -6.624,-1.594 -10.011,-2.284c-1.342,-0.273 -2.686,-0.541 -4.037,-0.811c-5.25,-1.046 -10.679,-2.127 -16.367,-3.644c-0.171,-0.046 -0.343,-0.087 -0.517,-0.123c-2.223,-0.469 -4.464,-0.888 -6.632,-1.293c-4.039,-0.755 -7.854,-1.469 -11.433,-2.45c-6.343,-1.74 -11.134,-3.734 -14.646,-6.094c-3.574,-2.403 -6.325,-5.799 -8.176,-10.096c-1.534,-4.295 -1.845,-9.25 -0.924,-14.732c0.96,-5.715 2.909,-10.934 5.636,-15.091c2.684,-4.091 6.622,-7.9 11.398,-11.024c4.239,-2.456 9.232,-5.189 14.309,-7.027c5.36,-1.94 11.215,-3.059 15.718,-3.817c4.996,-0.841 10.242,-1.193 16.037,-1.082l0.554,0.011c5.504,0.107 10.703,0.208 15.447,1.24c3.693,0.804 7.584,2.569 11.701,4.438c1.048,0.476 2.098,0.951 3.15,1.416c5.123,2.261 9.608,4.77 13.708,7.667c2.71,2.039 6.052,4.82 8.327,8.465c2.229,4.516 4.061,9.298 5.71,13.801c0.354,0.965 0.716,1.929 1.079,2.895c0.463,1.229 0.917,2.437 1.343,3.628c-2.029,0.095 -4.006,0.167 -5.89,0.145c-0.133,-0.739 -0.246,-1.605 -0.336,-2.287c-0.495,-3.764 -1.173,-8.918 -4.915,-13.597c-4.712,-5.89 -10.563,-12.41 -20.407,-15.222c-1.721,-0.492 -3.649,-0.428 -5.076,-0.173c-4.561,-1.775 -9.615,-3.517 -15.239,-4.168c-5.854,-0.677 -11.947,-0.804 -18.109,-0.377c-5.218,0.362 -10.868,1.121 -17.272,2.321c-0.04,0.008 -0.08,0.015 -0.119,0.023c-8.159,1.631 -13.678,7.577 -17.6,12.733c-2.914,3.245 -3.811,6.921 -4.416,9.404c-0.169,0.69 -0.328,1.343 -0.494,1.84c-0.131,0.393 -0.237,0.794 -0.318,1.201c-1.907,9.536 3.562,18.916 13.299,22.811c0.286,0.115 0.578,0.216 0.874,0.304c1.933,0.572 3.873,1.228 5.927,1.922c3.424,1.157 6.964,2.354 10.765,3.254c3.323,0.788 6.593,1.349 9.755,1.892c2.477,0.425 4.814,0.826 7.099,1.318c2.824,0.608 5.647,1.344 8.636,2.123c2.486,0.648 5.057,1.317 7.675,1.921c2.243,0.517 4.469,0.958 6.622,1.386c3.329,0.662 6.474,1.286 9.468,2.131c3.399,0.958 6.844,2.293 10.49,3.707c1.559,0.604 3.122,1.21 4.661,1.78c4.152,1.556 8.052,3.919 11.589,7.021c3.04,2.668 6.794,6.242 8.854,10.239c0.346,0.671 0.659,1.384 0.94,2.144c-0.424,0.198 -0.835,0.428 -1.231,0.687c-2.557,1.672 -4.209,4.421 -4.485,7.464l-0.092,1.012c-0.423,4.702 -0.823,9.144 -1.946,12.878c-1.107,3.681 -2.993,7.278 -5.609,10.697c-3.387,3.765 -7.102,6.866 -11.045,9.222c-3.837,2.29 -8.39,4.114 -13.535,5.423c-5.557,1.073 -11.455,2.155 -17.252,2.676c-6.327,0.567 -12.019,0.723 -17.401,0.472c-5.775,-0.269 -11.474,-1.012 -16.933,-2.208c-5.441,-1.194 -10.854,-3.367 -15.892,-5.537c-4.25,-1.832 -8.739,-4.409 -14.555,-8.356c-0.154,-0.105 -0.313,-0.206 -0.473,-0.303c-3.819,-2.29 -6.991,-5.125 -9.696,-8.666c-3.365,-4.405 -5.479,-8.143 -6.652,-11.76c-0.737,-2.273 -1.3,-4.517 -1.686,-6.714c3.047,-0.732 5.917,-1.395 8.319,-1.406c1.635,-0.012 3.014,0.217 4.209,0.732c0.613,7.769 2.82,16.742 8.974,22.896c0.112,0.112 0.228,0.222 0.345,0.328c7.443,6.768 15.881,9.354 23.152,10.991c6.003,1.352 12.162,2.215 18.118,3.05l3.143,0.442c0.193,0.027 0.387,0.05 0.581,0.065c6.142,0.514 12.578,0.214 20.252,-0.94c7.538,-1.136 14.152,-3.297 20.223,-6.607c0.174,-0.095 0.344,-0.194 0.512,-0.3c11.448,-7.158 17.456,-18.884 16.068,-31.367zm-16.986,-49.143c-3.591,-0.989 -7.118,-1.689 -10.534,-2.368c-2.1,-0.417 -4.082,-0.811 -6.029,-1.259c-2.34,-0.539 -4.662,-1.145 -7.121,-1.785c-3.061,-0.797 -6.226,-1.622 -9.468,-2.32c-2.695,-0.581 -5.354,-1.037 -7.927,-1.478c-2.988,-0.513 -5.812,-0.998 -8.524,-1.641c-2.895,-0.686 -5.848,-1.684 -8.975,-2.741c-1.957,-0.662 -3.976,-1.344 -6.064,-1.976c-0.326,-0.161 -0.554,-0.331 -0.697,-0.464c0.199,-0.715 0.36,-1.375 0.501,-1.952c0.102,-0.414 0.229,-0.937 0.331,-1.295c0.109,-0.131 0.215,-0.265 0.317,-0.401c3.442,-4.589 5.204,-5.422 5.828,-5.563c5.6,-1.046 10.469,-1.704 14.884,-2.01c4.938,-0.342 9.792,-0.243 14.427,0.292c4.171,0.483 8.638,2.271 12.958,3.999c1.182,0.473 2.442,0.715 3.715,0.715c0.917,0 1.747,-0.102 2.464,-0.236c2.841,1.39 5.223,3.904 8.245,7.679c0.301,0.506 0.557,2.454 0.727,3.743c0.224,1.702 0.485,3.689 1.051,5.788c-0.153,0.519 -0.266,1.056 -0.333,1.609c-0.157,1.259 -0.07,2.497 0.224,3.664z"/>
 </g>
</svg>