<svg width="438.37" height="412.073" xmlns="http://www.w3.org/2000/svg">

 <g>
  <title>background</title>
  <rect fill="none" id="canvas_background" height="402" width="582" y="-1" x="-1"/>
 </g>
 <g>
  <title>Layer 1</title>
  <path fill="#ffffff" id="svg_1" d="m248.728,86.029c-1.243,-3.616 -4.414,-6.244 -8.493,-6.762c-0.624,-0.08 -1.255,-0.1 -1.885,-0.06c-4.663,0.292 -9.366,0.425 -13.915,0.554l-1.374,0.039c-2.864,0.082 -5.743,0.041 -8.791,0c-2.166,-0.03 -4.405,-0.064 -6.666,-0.045c-2.701,0.019 -5.346,0.158 -7.904,0.293c-2.669,0.141 -5.191,0.274 -7.696,0.274c-0.103,0 -0.204,0.001 -0.306,0.005c-3.003,0.092 -6.044,0.03 -9.264,-0.036c-2.941,-0.061 -5.982,-0.121 -9.073,-0.061c-3.182,0.063 -6.288,0.278 -9.293,0.487c-3.149,0.219 -6.123,0.425 -9.038,0.454l-1.168,0.011c-5.641,0.056 -11.474,0.113 -17.189,0.12c-0.027,0 -0.054,0 -0.08,0c-2.858,0 -5.778,-0.168 -8.867,-0.345c-3.045,-0.175 -6.194,-0.356 -9.419,-0.377c-3.617,-0.023 -7.233,-0.09 -10.852,-0.157c-2.507,-0.046 -5.015,-0.092 -7.523,-0.125c-3.152,-0.042 -6.27,0.035 -9.282,0.108c-3.159,0.077 -6.144,0.149 -9.11,0.095c-3.002,-0.054 -6,-0.212 -9.174,-0.38c-2.995,-0.158 -6.092,-0.321 -9.215,-0.391c-3.613,-0.081 -7.226,-0.182 -10.839,-0.284c-2.521,-0.071 -5.044,-0.142 -7.566,-0.205c-3.064,-0.078 -6.227,-0.219 -9.285,-0.355c-2.976,-0.132 -6.054,-0.27 -9.125,-0.354c-2.899,-0.08 -5.798,-0.15 -8.697,-0.221c-3.244,-0.079 -6.487,-0.158 -9.729,-0.25c-3.021,-0.085 -6.041,-0.185 -9.062,-0.285c-3.125,-0.103 -6.249,-0.206 -9.374,-0.294c-3.263,-0.092 -6.501,-0.081 -9.634,-0.068c-3.051,0.012 -5.934,0.022 -8.822,-0.056c-3.329,-0.089 -6.609,-0.039 -9.784,0.009c-3.013,0.046 -5.859,0.09 -8.686,0.021c-2.797,-0.068 -5.616,-0.258 -8.6,-0.459c-3.192,-0.215 -6.494,-0.438 -9.861,-0.508c-3.605,-0.074 -7.211,-0.114 -10.815,-0.153c-2.559,-0.028 -5.116,-0.056 -7.674,-0.096c-3.896,-0.062 -7.792,-0.09 -11.686,-0.119c-2.271,-0.017 -4.542,-0.033 -6.811,-0.056c-5.735,-0.053 -10.778,4.19 -11.915,9.643c-1.462,4.476 -2.703,8.981 -3.904,13.347l-0.637,2.31c-1.583,5.714 -2.979,11.33 -4.151,16.69c-0.4,1.833 -0.858,3.672 -1.342,5.619c-0.894,3.595 -1.818,7.312 -2.434,11.237c-0.968,6.174 -1.596,12.511 -2.035,17.342c-0.21,2.313 0.392,4.61 1.676,6.508c0.519,1.344 1.25,2.385 1.938,3.151c1.948,2.166 4.755,3.408 7.701,3.408c4.239,0 8.554,0.082 12.728,0.16c1.875,0.035 3.747,0.07 5.619,0.099c3.302,0.048 6.513,-0.08 9.618,-0.205c3.083,-0.124 5.996,-0.244 8.838,-0.184c2.793,0.057 5.588,0.208 8.547,0.368c3.24,0.175 6.59,0.355 9.995,0.407c2.445,0.037 4.894,0.108 7.35,0.18c3.603,0.104 7.326,0.213 11.09,0.217l4.759,0.198c4.261,0.175 8.523,0.351 12.793,0.558c3.098,0.15 6.152,0.172 9.106,0.195c3.024,0.022 5.881,0.043 8.705,0.192c2.84,0.149 5.684,0.268 8.528,0.387c3.093,0.129 6.188,0.258 9.28,0.429c2.669,0.147 5.404,0.469 8.299,0.809c3.052,0.358 6.208,0.729 9.475,0.913c3.214,0.18 6.375,0.212 9.432,0.244c2.932,0.03 5.701,0.059 8.432,0.209c3.175,0.175 6.352,0.281 9.424,0.384c2.783,0.093 5.66,0.189 8.44,0.335c2.646,0.139 5.341,0.425 8.192,0.729c3.111,0.331 6.329,0.673 9.646,0.833c2.635,0.127 5.269,0.286 7.902,0.445c3.258,0.197 6.627,0.4 9.986,0.542c3.396,0.142 6.688,0.064 9.874,-0.01c2.818,-0.068 5.479,-0.129 8.067,-0.041c2.548,0.087 5.093,0.211 7.637,0.335c3.355,0.163 6.824,0.332 10.297,0.417c3.456,0.083 6.888,0.058 10.207,0.033c2.679,-0.021 5.209,-0.039 7.758,-0.006c2.032,0.027 4.066,0.094 6.177,0.172c-0.269,1.45 -0.544,2.877 -0.841,4.293c-0.87,4.151 -2.024,8.265 -3.246,12.62l-0.68,2.433c-0.887,3.188 -1.713,5.936 -2.532,8.409c-3.479,0.165 -7.019,0.31 -10.452,0.328c-5.721,0.031 -11.422,-0.079 -17.25,-0.203c-2.41,-0.051 -4.823,-0.07 -7.234,-0.088c-3.5,-0.026 -6.807,-0.051 -10.118,-0.175c-2.708,-0.101 -5.471,-0.379 -8.395,-0.672c-2.872,-0.289 -5.841,-0.587 -8.887,-0.724c-3.016,-0.201 -6.029,-0.422 -9.043,-0.642c-2.705,-0.198 -5.411,-0.396 -8.118,-0.581c-3.125,-0.213 -6.185,-0.268 -9.145,-0.321c-2.852,-0.051 -5.545,-0.1 -8.182,-0.281c-2.748,-0.189 -5.589,-0.441 -8.336,-0.686c-2.914,-0.259 -5.927,-0.527 -8.947,-0.732c-2.651,-0.18 -5.318,-0.469 -8.142,-0.774c-2.958,-0.32 -6.016,-0.651 -9.138,-0.858c-3.096,-0.205 -6.184,-0.329 -9.17,-0.448c-2.823,-0.113 -5.49,-0.22 -8.174,-0.39c-2.634,-0.167 -5.266,-0.362 -7.897,-0.558c-3.079,-0.229 -6.262,-0.466 -9.436,-0.654c-3.229,-0.19 -6.378,-0.199 -9.424,-0.208c-2.776,-0.008 -5.399,-0.015 -7.962,-0.154c-2.527,-0.137 -5.111,-0.422 -7.846,-0.725c-3.057,-0.338 -6.218,-0.688 -9.493,-0.844c-4.812,-0.229 -9.626,-0.422 -14.439,-0.615l-2.952,-0.118c-3.255,-0.132 -6.468,-0.134 -9.567,-0.127c-2.725,-0.003 -5.292,0.003 -7.853,-0.079c-3.712,-0.119 -7.449,-0.185 -11.064,-0.249c-2.119,-0.038 -4.238,-0.075 -6.359,-0.123c-2.472,-0.055 -5.017,-0.264 -7.711,-0.486c-3.125,-0.257 -6.355,-0.522 -9.712,-0.562c-3.399,-0.034 -6.659,0.182 -9.81,0.396c-1.147,0.078 -2.268,0.154 -3.364,0.216c-2.376,-0.697 -4.984,-0.511 -7.409,0.638c-3.991,1.313 -6.872,5.071 -6.872,9.501c0,2.893 1.228,5.499 3.192,7.325c-0.026,0.111 -0.051,0.223 -0.073,0.334c-1.324,6.621 -2.604,13.101 -3.853,19.504l-0.279,1.437c-1.147,5.91 -2.232,11.492 -3.885,16.819c-1.642,5.291 -3.498,9.949 -5.645,14.16c-2.566,1.299 -4.524,3.681 -5.219,6.627c-1.065,4.514 1.112,9.167 5.26,11.242c2.101,1.051 4.634,1.515 7.146,1.081c2.066,0.037 4.157,0.108 6.332,0.183c3.388,0.115 6.884,0.234 10.424,0.216c3.303,-0.02 6.617,-0.09 9.821,-0.157c3.132,-0.066 6.371,-0.135 9.515,-0.153c3.146,-0.019 6.286,-0.106 9.322,-0.192c3.435,-0.096 6.68,-0.187 9.95,-0.187c3.247,0 6.508,0.144 9.96,0.295c3.006,0.132 6.114,0.27 9.257,0.306l3.572,0.039c5.117,0.054 10.409,0.109 15.584,0.259c2.923,0.084 5.827,0.078 8.637,0.071c3.602,-0.006 7.008,-0.015 10.385,0.155c3.203,0.231 6.463,0.58 9.914,0.948c3.722,0.398 7.571,0.81 11.476,1.079c3.647,0.252 7.295,0.432 10.824,0.606c3.647,0.18 7.095,0.35 10.503,0.591c3.018,0.319 6.028,0.567 8.941,0.808c2.895,0.239 5.63,0.465 8.379,0.754c3.644,0.384 7.285,0.74 10.922,1.097c2.197,0.216 4.393,0.431 6.588,0.651c2.574,0.259 5.232,0.579 7.804,0.89c3.16,0.381 6.428,0.774 9.718,1.079c2.532,0.234 5.078,0.572 7.774,0.93c3.161,0.42 6.431,0.854 9.783,1.124l0.22,0.018c5.703,0.462 11.602,0.939 17.443,1.323c3.484,0.228 6.88,0.233 10.164,0.239c2.642,0.004 5.137,0.008 7.587,0.123c2.345,0.109 4.684,0.279 7.161,0.46c3.428,0.249 6.971,0.506 10.588,0.597c0.984,0.024 1.967,0.045 2.946,0.063c-0.438,1.677 -0.856,3.338 -1.269,4.976c-0.642,2.549 -1.247,4.957 -1.907,7.349c-1.929,6.991 -3.621,13.771 -5.022,19.479l-0.525,2.139c-1.396,5.674 -2.839,11.541 -4.115,17.42c-0.929,4.275 -1.72,8.655 -2.485,12.891c-0.043,0.237 -0.086,0.476 -0.129,0.714c-0.461,0.104 -0.927,0.207 -1.396,0.312c-2.99,0.667 -6.082,1.355 -9.122,2.186c-5.42,1.478 -10.818,2.954 -16.198,4.457c-2.959,0.826 -5.909,1.676 -8.858,2.526c-2.417,0.696 -4.834,1.393 -7.253,2.075c-2.78,0.783 -5.526,1.634 -8.182,2.457c-2.702,0.837 -5.255,1.628 -7.843,2.355c-2.973,0.835 -5.96,1.636 -8.954,2.439c-2.384,0.641 -4.771,1.281 -7.159,1.94c-2.597,0.716 -5.26,1.331 -8.08,1.981c-2.636,0.608 -5.361,1.237 -8.116,1.975c-2.695,0.722 -5.323,1.537 -7.865,2.327c-2.798,0.869 -5.441,1.689 -8.099,2.371c-0.172,0.044 -0.342,0.093 -0.511,0.146c-0.316,0.05 -1.044,0.093 -1.585,0.125c-1.432,0.085 -3.24,0.192 -5.212,0.646c-2.96,-1.306 -5.933,-2.666 -8.836,-3.995l-3.477,-1.589c-1.883,-0.857 -3.77,-1.705 -5.655,-2.552c-3.413,-1.533 -6.941,-3.118 -10.336,-4.715c-2.815,-1.324 -5.638,-2.626 -8.458,-3.927c-2.538,-1.17 -5.072,-2.34 -7.597,-3.523c-2.278,-1.068 -4.533,-2.238 -6.921,-3.477c-2.904,-1.506 -5.907,-3.063 -9.062,-4.484l-1.54,-0.693c-4.855,-2.187 -9.876,-4.448 -14.935,-6.547c-2.286,-0.947 -4.585,-1.814 -6.867,-2.638c1.33,-3.563 2.303,-7.046 2.907,-10.422c1.426,-7.962 1.206,-16.064 -0.636,-23.434c-1.151,-4.603 -5.371,-7.772 -10.118,-7.565c-2.734,0.113 -5.49,0.301 -8.155,0.482c-3.487,0.237 -6.78,0.461 -10.037,0.536c-2.842,0.064 -5.784,-0.068 -8.897,-0.209c-2.982,-0.135 -6.072,-0.28 -9.236,-0.241c-2.916,0.029 -5.825,0.12 -8.639,0.207c-3.296,0.103 -6.409,0.199 -9.532,0.207c-3.16,0.009 -6.454,-0.03 -9.64,-0.066c-2.97,-0.034 -5.927,-0.067 -8.817,-0.067c-4.767,0 -8.871,3.364 -9.806,8.039c-0.519,2.593 -0.956,5.014 -1.378,7.355c-0.425,2.354 -0.826,4.577 -1.307,6.984c-0.025,0.127 -0.048,0.254 -0.069,0.382l-0.108,0.676c-0.958,5.987 -1.862,11.643 -2.921,17.271c-0.692,3.684 -1.306,7.362 -1.9,10.921c-0.412,2.466 -0.822,4.927 -1.257,7.381c-0.261,1.469 -0.53,2.934 -0.798,4.398c-0.847,4.618 -1.724,9.394 -2.342,14.294c-0.21,1.67 -0.453,3.358 -0.696,5.062c-0.662,4.628 -1.346,9.413 -1.545,14.383c-0.161,4.016 2.098,7.738 5.735,9.449c4.434,2.086 8.984,3.783 13.386,5.425c1.674,0.625 3.339,1.246 4.98,1.883c2.176,0.845 4.361,1.67 6.548,2.496c3.589,1.355 7.3,2.757 10.867,4.215c5.046,2.06 10.011,4.691 15.268,7.478l0.745,0.395c1.442,0.765 3.049,1.164 4.682,1.164c0.759,0 1.462,-0.069 2.086,-0.166c1.76,0.776 3.529,1.583 5.365,2.421c2.5,1.141 5.087,2.32 7.701,3.438c2.786,1.19 5.561,2.244 8.245,3.263c2.742,1.041 5.332,2.023 7.831,3.106c3.463,1.501 6.91,3.021 10.352,4.539c1.827,0.806 3.651,1.61 5.473,2.41c2.469,1.085 4.924,2.321 7.522,3.63c2.585,1.302 5.259,2.648 8.053,3.891c2.828,1.259 5.646,2.338 8.371,3.382c2.697,1.032 5.244,2.008 7.67,3.101c2.417,1.088 4.83,2.344 7.385,3.672c2.598,1.352 5.284,2.748 8.115,4.036c2.353,1.071 4.721,2.13 7.095,3.189c2.902,1.297 5.811,2.597 8.705,3.926c1.323,0.608 2.749,0.914 4.176,0.914c1.247,0 2.495,-0.233 3.678,-0.701c2.537,-1.003 5.008,-2.082 7.398,-3.125c2.971,-1.297 5.778,-2.521 8.588,-3.561c4.076,-1.506 8.309,-2.974 12.402,-4.394l3.948,-1.373c3.515,-1.225 7.168,-2.417 10.702,-3.569c1.93,-0.63 3.86,-1.26 5.786,-1.899c5.339,-1.773 10.658,-3.481 16.557,-5.37c2.798,-0.895 5.622,-1.697 8.613,-2.548c2.648,-0.753 5.389,-1.532 8.125,-2.385c2.691,-0.84 5.42,-1.587 8.309,-2.377c2.77,-0.758 5.635,-1.542 8.502,-2.425c3.002,-0.924 5.902,-1.965 8.708,-2.971c2.724,-0.978 5.297,-1.9 7.874,-2.693c2.556,-0.785 5.147,-1.485 7.893,-2.227c2.933,-0.791 5.965,-1.61 9.004,-2.556c0.063,-0.021 0.127,-0.04 0.19,-0.062c2.885,-0.961 5.634,-2.03 8.293,-3.063c2.437,-0.947 4.737,-1.842 7.017,-2.609c2.507,-0.843 5.059,-1.587 7.76,-2.375c2.528,-0.737 5.144,-1.5 7.764,-2.363c2.679,-0.882 5.223,-1.878 7.684,-2.841c2.598,-1.017 5.051,-1.978 7.47,-2.732c5.167,-1.612 10.346,-3.104 15.207,-4.493c3.585,-1.024 6.302,-3.957 7.05,-7.609c0.505,-2.467 1.129,-4.909 1.79,-7.495c0.726,-2.842 1.477,-5.779 2.095,-8.876c0.777,-3.888 1.542,-7.778 2.307,-11.671l0.983,-4.997c0.604,-3.067 1.014,-6.074 1.41,-8.982c0.372,-2.731 0.724,-5.313 1.213,-7.8c0.611,-3.117 1.236,-6.235 1.862,-9.354c0.485,-2.42 0.971,-4.841 1.451,-7.267c0.577,-2.924 1.194,-5.842 1.812,-8.764c0.549,-2.602 1.099,-5.206 1.624,-7.817c0.745,-3.703 1.516,-7.406 2.287,-11.116l1.132,-5.459c0.51,-2.474 0.991,-4.957 1.474,-7.444c0.583,-3.009 1.186,-6.12 1.827,-9.128c0.788,-3.69 1.618,-7.384 2.45,-11.085c0.403,-1.798 0.808,-3.598 1.192,-5.33c0.59,-2.566 1.355,-5.154 2.167,-7.895c0.925,-3.123 1.881,-6.351 2.623,-9.74c0.747,-3.412 1.335,-6.788 1.903,-10.052c0.478,-2.747 0.93,-5.342 1.461,-7.904c0.723,-3.479 1.312,-6.937 1.881,-10.281c0.454,-2.667 0.884,-5.186 1.372,-7.7c0.482,-2.479 1.026,-5.027 1.552,-7.493c0.722,-3.387 1.468,-6.889 2.106,-10.422c0.338,-1.87 0.683,-3.736 1.027,-5.602c0.748,-4.048 1.521,-8.234 2.212,-12.403c0.401,-2.42 0.839,-4.833 1.276,-7.246c0.637,-3.508 1.294,-7.135 1.844,-10.799c0.588,-3.928 1.085,-7.879 1.564,-11.7c0.271,-2.152 0.541,-4.305 0.828,-6.456c0.253,-1.896 0.516,-3.793 0.778,-5.691c0.563,-4.063 1.145,-8.265 1.633,-12.471c0.413,-3.544 0.644,-7.048 0.867,-10.438c0.179,-2.714 0.348,-5.277 0.602,-7.831c0.25,-2.523 0.623,-5.085 1.018,-7.798c0.487,-3.35 0.991,-6.814 1.286,-10.408c0.022,-0.271 0.033,-0.544 0.033,-0.817c0,-0.482 0.096,-1.267 0.196,-2.098c0.401,-3.285 1.037,-8.516 -1.929,-13.894zm-18.261,15.517c-0.248,2.858 -0.67,5.759 -1.116,8.823c-0.409,2.815 -0.832,5.726 -1.128,8.701c-0.286,2.884 -0.475,5.735 -0.656,8.493c-0.217,3.288 -0.421,6.394 -0.776,9.442c-0.464,3.991 -1.029,8.083 -1.577,12.04c-0.268,1.93 -0.534,3.858 -0.792,5.788c-0.294,2.202 -0.57,4.404 -0.848,6.607c-0.466,3.707 -0.947,7.539 -1.5,11.23c-0.504,3.358 -1.105,6.678 -1.743,10.193c-0.455,2.512 -0.911,5.024 -1.328,7.544c-0.661,3.987 -1.417,8.081 -2.148,12.04c-0.35,1.891 -0.699,3.784 -1.042,5.679c-0.583,3.226 -1.265,6.424 -1.985,9.809c-0.544,2.55 -1.106,5.188 -1.623,7.842c-0.533,2.745 -1.003,5.498 -1.456,8.161c-0.564,3.316 -1.099,6.448 -1.747,9.575c-0.598,2.879 -1.099,5.757 -1.583,8.54c-0.557,3.195 -1.081,6.213 -1.736,9.202c-0.588,2.683 -1.401,5.432 -2.263,8.342c-0.862,2.913 -1.754,5.924 -2.498,9.165c-0.397,1.787 -0.798,3.571 -1.198,5.354c-0.848,3.771 -1.692,7.532 -2.496,11.294c-0.681,3.193 -1.302,6.398 -1.902,9.498c-0.467,2.41 -0.934,4.816 -1.427,7.21l-1.125,5.426c-0.78,3.752 -1.56,7.498 -2.313,11.245c-0.513,2.549 -1.05,5.09 -1.586,7.628c-0.635,3.007 -1.269,6.01 -1.862,9.015c-0.477,2.407 -0.959,4.813 -1.44,7.215c-0.632,3.147 -1.263,6.293 -1.879,9.435c-0.602,3.06 -1.01,6.057 -1.404,8.954c-0.373,2.739 -0.726,5.327 -1.216,7.813l-0.985,5.01c-0.76,3.87 -1.521,7.739 -2.294,11.608c-0.515,2.578 -1.168,5.135 -1.859,7.843c-0.207,0.81 -0.416,1.628 -0.624,2.455c-3.265,0.949 -6.621,1.946 -10.006,3.002c-3.093,0.966 -5.994,2.102 -8.801,3.2c-2.31,0.904 -4.491,1.758 -6.647,2.469c-2.295,0.755 -4.634,1.438 -7.109,2.159c-2.773,0.81 -5.642,1.646 -8.536,2.619c-2.72,0.915 -5.346,1.937 -7.887,2.924c-2.512,0.978 -4.887,1.9 -7.273,2.699c-2.646,0.82 -5.335,1.547 -8.181,2.314c-2.787,0.753 -5.67,1.531 -8.555,2.418c-3.021,0.929 -5.935,1.974 -8.752,2.985c-2.713,0.973 -5.274,1.892 -7.838,2.681c-2.566,0.79 -5.156,1.499 -7.897,2.249c-2.929,0.802 -5.957,1.631 -8.983,2.574c-2.495,0.778 -4.994,1.488 -7.642,2.241c-3.013,0.856 -6.128,1.742 -9.237,2.737c-5.958,1.907 -11.332,3.633 -16.768,5.438c-1.893,0.629 -3.789,1.247 -5.684,1.865c-3.627,1.183 -7.377,2.406 -11.086,3.699l-3.916,1.361c-4.187,1.452 -8.516,2.953 -12.781,4.529c-3.351,1.239 -6.556,2.638 -9.655,3.99c-0.983,0.43 -1.944,0.849 -2.891,1.255c-1.636,-0.736 -3.273,-1.468 -4.908,-2.198c-2.332,-1.042 -4.658,-2.081 -6.97,-3.133c-2.352,-1.071 -4.692,-2.288 -7.169,-3.576c-2.689,-1.398 -5.47,-2.845 -8.402,-4.165c-2.95,-1.328 -5.888,-2.453 -8.729,-3.542c-2.596,-0.994 -5.047,-1.933 -7.393,-2.977c-2.357,-1.049 -4.705,-2.23 -7.189,-3.481c-2.715,-1.367 -5.522,-2.781 -8.476,-4.079c-1.813,-0.796 -3.627,-1.596 -5.443,-2.396c-3.48,-1.535 -6.967,-3.073 -10.471,-4.592c-2.923,-1.267 -5.853,-2.378 -8.686,-3.453c-2.61,-0.991 -5.076,-1.927 -7.482,-2.955c-2.391,-1.021 -4.755,-2.101 -7.258,-3.242c-2.795,-1.276 -5.686,-2.595 -8.643,-3.84c-1.229,-0.517 -2.548,-0.783 -3.88,-0.783c-0.575,0 -1.118,0.04 -1.619,0.102c-4.734,-2.497 -9.62,-4.999 -14.745,-7.091c-3.812,-1.557 -7.65,-3.006 -11.361,-4.408c-2.13,-0.805 -4.258,-1.608 -6.375,-2.43c-1.721,-0.669 -3.471,-1.321 -5.229,-1.978c-1.893,-0.706 -3.738,-1.395 -5.532,-2.097c0.226,-1.823 0.492,-3.685 0.764,-5.592c0.259,-1.813 0.516,-3.611 0.74,-5.388c0.548,-4.346 1.336,-8.641 2.17,-13.188c0.276,-1.504 0.552,-3.009 0.819,-4.517c0.447,-2.521 0.869,-5.048 1.292,-7.581c0.577,-3.459 1.174,-7.036 1.828,-10.518c1.109,-5.896 2.078,-11.952 3.014,-17.81l0.078,-0.484c0.42,-2.111 0.787,-4.11 1.138,-6.047c0.097,0.002 0.194,0.003 0.292,0.004c3.255,0.038 6.619,0.078 9.92,0.067c3.408,-0.009 6.81,-0.114 10.101,-0.217c2.711,-0.084 5.516,-0.171 8.224,-0.199c2.618,-0.02 5.293,0.096 8.126,0.223c3.312,0.15 6.736,0.306 10.262,0.224c3.177,-0.072 6.332,-0.267 9.407,-0.473c0.005,2.296 -0.196,4.637 -0.607,6.934c-0.811,4.526 -2.711,9.553 -5.648,14.938c-1.395,2.559 -1.605,5.598 -0.575,8.323c1.03,2.726 3.198,4.866 5.936,5.862c1.819,0.662 3.654,1.303 5.491,1.945c3.777,1.319 7.344,2.565 10.78,3.99c4.781,1.982 9.662,4.182 14.382,6.308l1.544,0.695c2.648,1.192 5.279,2.557 8.063,4.001c2.457,1.274 4.998,2.592 7.638,3.83c2.563,1.202 5.137,2.39 7.712,3.577c2.774,1.279 5.551,2.561 8.321,3.863c3.553,1.672 7.163,3.293 10.654,4.861c1.855,0.833 3.711,1.667 5.564,2.511l3.438,1.57c4.225,1.935 8.594,3.935 12.997,5.803c2.898,1.228 6.195,1.018 8.902,-0.544c0.422,-0.056 1.146,-0.099 1.657,-0.129c1.728,-0.102 3.854,-0.228 6.158,-0.934c3.042,-0.789 5.961,-1.695 8.786,-2.573c2.465,-0.766 4.793,-1.488 7.105,-2.107c2.418,-0.647 4.858,-1.21 7.442,-1.807c2.898,-0.669 5.896,-1.36 8.901,-2.189c2.344,-0.646 4.687,-1.275 7.025,-1.903c3.068,-0.823 6.13,-1.646 9.177,-2.501c2.845,-0.8 5.646,-1.667 8.354,-2.507c2.651,-0.821 5.155,-1.597 7.688,-2.311c2.458,-0.693 4.911,-1.4 7.365,-2.107c2.896,-0.835 5.794,-1.67 8.701,-2.481c5.341,-1.492 10.7,-2.957 16.08,-4.425c2.588,-0.706 5.319,-1.314 8.21,-1.959c2.695,-0.602 5.482,-1.223 8.241,-1.948c3.72,-0.979 6.549,-4.005 7.275,-7.782c0.462,-2.401 0.9,-4.83 1.34,-7.26c0.734,-4.065 1.494,-8.27 2.349,-12.204c1.218,-5.611 2.628,-11.343 3.991,-16.886l0.528,-2.148c1.367,-5.572 3.017,-12.179 4.878,-18.925c0.721,-2.61 1.383,-5.244 2.023,-7.791c0.894,-3.55 1.741,-6.919 2.736,-10.248c0.263,-0.475 0.563,-0.979 0.896,-1.534c0.607,-1.017 1.296,-2.169 1.963,-3.504c1.55,-3.1 1.384,-6.781 -0.438,-9.729c-1.822,-2.948 -5.041,-4.743 -8.507,-4.743c-5.818,0 -11.515,-0.012 -17.227,-0.153c-3.139,-0.078 -6.294,-0.308 -9.636,-0.55c-2.494,-0.181 -5.073,-0.369 -7.674,-0.491c-2.901,-0.136 -5.743,-0.141 -8.491,-0.145c-3.106,-0.005 -6.041,-0.01 -8.888,-0.196c-5.688,-0.374 -11.51,-0.845 -17.139,-1.3l-0.222,-0.018c-2.843,-0.229 -5.719,-0.611 -8.764,-1.015c-2.771,-0.368 -5.637,-0.748 -8.564,-1.019c-3.013,-0.279 -6.001,-0.639 -9.164,-1.021c-2.668,-0.322 -5.427,-0.654 -8.196,-0.933c-2.212,-0.223 -4.425,-0.439 -6.64,-0.657c-3.591,-0.352 -7.185,-0.704 -10.781,-1.082c-2.971,-0.313 -5.947,-0.558 -8.825,-0.796c-2.985,-0.246 -5.805,-0.479 -8.646,-0.782c-0.115,-0.012 -0.231,-0.022 -0.347,-0.031c-3.683,-0.263 -7.459,-0.45 -11.111,-0.63c-3.433,-0.169 -6.982,-0.345 -10.435,-0.583c-3.53,-0.243 -7.188,-0.634 -10.726,-1.013c-3.504,-0.375 -7.128,-0.762 -10.714,-1.018c-0.066,-0.005 -0.133,-0.009 -0.2,-0.012c-3.944,-0.203 -7.813,-0.193 -11.555,-0.186c-2.779,0.008 -5.404,0.012 -8.017,-0.063c-5.359,-0.154 -10.743,-0.211 -15.95,-0.266l-3.551,-0.039c-2.818,-0.033 -5.63,-0.156 -8.608,-0.288c-3.517,-0.155 -7.153,-0.315 -10.84,-0.315c-3.55,0 -7.088,0.099 -10.51,0.195c-2.928,0.082 -5.955,0.167 -8.879,0.184c-3.297,0.019 -6.614,0.089 -9.821,0.157c-3.129,0.066 -6.365,0.134 -9.514,0.153c-0.563,0.003 -1.127,0.003 -1.694,-0.002c0.926,-2.418 1.795,-4.939 2.614,-7.578c1.977,-6.369 3.218,-12.757 4.417,-18.934l0.277,-1.423c1.229,-6.306 2.489,-12.688 3.792,-19.206c0.2,-0.84 0.346,-1.654 0.446,-2.441c1.396,-0.07 2.759,-0.11 4.083,-0.094c2.654,0.031 5.401,0.257 8.309,0.496c2.868,0.236 5.834,0.48 8.901,0.548c2.152,0.048 4.304,0.086 6.456,0.125c3.544,0.062 7.208,0.126 10.775,0.241c2.887,0.092 5.743,0.09 8.505,0.089c3.035,-0.004 5.903,-0.004 8.749,0.111l2.958,0.119c4.763,0.19 9.527,0.381 14.288,0.608c2.651,0.126 5.369,0.427 8.247,0.745c2.889,0.319 5.876,0.649 8.964,0.816c3.075,0.167 6.08,0.175 8.986,0.183c2.898,0.008 5.635,0.016 8.302,0.173c3.02,0.179 6.126,0.41 9.13,0.633c2.707,0.202 5.413,0.402 8.121,0.573c2.913,0.184 5.82,0.301 8.632,0.414c2.99,0.12 5.815,0.233 8.652,0.42c2.704,0.179 5.424,0.474 8.304,0.786c2.895,0.313 5.889,0.638 8.942,0.845c2.811,0.19 5.717,0.449 8.528,0.699c2.846,0.253 5.788,0.515 8.736,0.717c3.142,0.216 6.218,0.271 9.192,0.325c2.839,0.051 5.52,0.1 8.145,0.279c2.675,0.182 5.348,0.377 8.02,0.573c3.093,0.226 6.186,0.452 9.281,0.659c0.077,0.005 0.154,0.009 0.231,0.013c2.521,0.109 5.123,0.371 7.877,0.647c3.103,0.312 6.311,0.634 9.646,0.759c3.61,0.135 7.223,0.162 10.716,0.188c2.319,0.018 4.641,0.035 6.96,0.083c5.968,0.127 11.813,0.239 17.776,0.208c4.602,-0.024 9.146,-0.245 13.542,-0.458c1.458,-0.071 2.913,-0.142 4.362,-0.205c3.927,-0.171 7.39,-2.626 8.85,-6.276c2.393,-5.98 4.141,-11.925 5.396,-16.438l0.669,-2.391c1.256,-4.479 2.555,-9.112 3.563,-13.919c0.72,-3.44 1.328,-6.918 1.916,-10.282c0.348,-1.992 0.695,-3.981 1.065,-5.952c0.548,-2.924 -0.234,-5.94 -2.134,-8.229c-1.899,-2.289 -4.721,-3.614 -7.695,-3.614c-3.098,0 -6.225,-0.119 -9.536,-0.244c-2.693,-0.102 -5.478,-0.208 -8.263,-0.244c-2.759,-0.036 -5.512,-0.015 -8.177,0.005c-3.306,0.025 -6.429,0.049 -9.562,-0.027c-3.231,-0.079 -6.43,-0.235 -9.815,-0.4c-2.64,-0.128 -5.281,-0.256 -7.924,-0.347c-3.165,-0.107 -6.245,-0.035 -9.226,0.035c-2.994,0.07 -5.822,0.136 -8.562,0.022c-3.177,-0.134 -6.453,-0.332 -9.621,-0.523c-2.715,-0.164 -5.43,-0.328 -8.146,-0.458c-2.74,-0.132 -5.534,-0.429 -8.493,-0.744c-2.988,-0.318 -6.078,-0.646 -9.259,-0.813c-2.971,-0.156 -5.944,-0.255 -8.821,-0.352c-2.965,-0.099 -6.032,-0.202 -8.991,-0.365c-3.179,-0.175 -6.304,-0.207 -9.327,-0.238c-2.962,-0.031 -5.76,-0.059 -8.518,-0.214c-2.659,-0.149 -5.38,-0.469 -8.26,-0.807c-3.07,-0.361 -6.244,-0.734 -9.531,-0.916c-3.182,-0.175 -6.365,-0.309 -9.547,-0.442c-2.773,-0.116 -5.545,-0.232 -8.313,-0.377c-3.273,-0.172 -6.493,-0.196 -9.606,-0.219c-2.88,-0.021 -5.6,-0.042 -8.289,-0.172c-4.317,-0.209 -8.628,-0.387 -12.937,-0.564l-4.949,-0.206c-0.141,-0.006 -0.282,-0.009 -0.422,-0.009c-3.545,0 -7.192,-0.106 -10.719,-0.208c-2.548,-0.074 -5.089,-0.148 -7.627,-0.187c-3.018,-0.045 -6.031,-0.208 -9.221,-0.38c-2.993,-0.162 -6.088,-0.329 -9.217,-0.393c-3.447,-0.071 -6.804,0.065 -10.049,0.196c-2.965,0.119 -5.77,0.231 -8.512,0.19c-1.845,-0.028 -3.693,-0.063 -5.544,-0.098c-1.197,-0.022 -2.406,-0.045 -3.623,-0.066c0.282,-2.434 0.611,-4.951 0.997,-7.408c0.479,-3.053 1.258,-6.188 2.084,-9.508c0.497,-1.998 1.011,-4.064 1.472,-6.175c1.094,-5.004 2.402,-10.261 3.887,-15.625l0.646,-2.339c0.78,-2.833 1.533,-5.569 2.328,-8.248c0.292,0.002 0.583,0.004 0.874,0.006c3.837,0.028 7.675,0.056 11.513,0.116c2.59,0.042 5.182,0.07 7.774,0.098c3.54,0.039 7.08,0.077 10.619,0.15c2.9,0.06 5.829,0.257 8.93,0.466c3.063,0.207 6.23,0.42 9.459,0.499c3.22,0.077 6.4,0.029 9.476,-0.017c3.104,-0.046 6.037,-0.092 8.946,-0.014c3.191,0.084 6.362,0.073 9.429,0.063c3.114,-0.013 6.054,-0.023 9.001,0.06c3.091,0.087 6.182,0.189 9.273,0.291c3.052,0.101 6.104,0.202 9.158,0.288c3.268,0.092 6.537,0.171 9.806,0.251c2.879,0.07 5.758,0.14 8.637,0.219c2.899,0.08 5.889,0.213 8.781,0.341c3.153,0.141 6.413,0.286 9.67,0.368c2.504,0.063 5.008,0.134 7.512,0.204c3.65,0.103 7.301,0.205 10.953,0.287c2.819,0.063 5.631,0.211 8.607,0.368c3.204,0.169 6.518,0.344 9.866,0.405c3.385,0.063 6.728,-0.02 9.957,-0.098c2.961,-0.072 5.761,-0.137 8.54,-0.104c2.472,0.032 4.941,0.078 7.411,0.123c3.626,0.067 7.376,0.136 11.094,0.16c2.714,0.017 5.475,0.176 8.397,0.344c3.269,0.188 6.672,0.422 10.118,0.378c5.803,-0.007 11.68,-0.064 17.363,-0.121l1.169,-0.011c3.51,-0.035 6.925,-0.272 10.227,-0.501c2.889,-0.2 5.616,-0.39 8.302,-0.443c2.689,-0.053 5.401,0.002 8.272,0.061c3.282,0.067 6.675,0.135 10.129,0.035c2.979,-0.005 5.834,-0.156 8.599,-0.302c2.44,-0.129 4.746,-0.25 6.989,-0.267c2.048,-0.014 4.091,0.014 6.249,0.044c3.122,0.043 6.35,0.087 9.641,-0.006l1.367,-0.039c1.835,-0.052 3.694,-0.105 5.576,-0.168c-0.051,0.626 -0.092,1.279 -0.105,1.965z"/>
 </g>
</svg>