<svg width="786" height="460" xmlns="http://www.w3.org/2000/svg">

 <g>
  <title>background</title>
  <rect fill="none" id="canvas_background" height="462" width="788" y="-1" x="-1"/>
 </g>
 <g>
  <title>Layer 1</title>
  <path fill="#ffffff" id="svg_2" d="m108.727411,354.633c0.685,-0.855 1.094,-1.94 1.094,-3.121c0,-2.319 -1.579,-4.27 -3.721,-4.835c-1.278,-1.547 -3.419,-2.231 -5.438,-1.559c-1.044,0.348 -1.897,1.007 -2.49,1.84c-0.397,0.045 -0.767,0.112 -1.106,0.192c-2.723,0.643 -5.155,2.537 -6.591,5.11c-3.332,4.482 -7.199,7.225 -11.199,9.862c-1.622,1.069 -3.25,2.063 -4.973,3.116c-3.181,1.942 -6.469,3.95 -9.696,6.452c-7.435,5.351 -10.591,12.844 -13.376,19.458c-0.274,0.65 -0.547,1.3 -0.824,1.946c-0.091,0.213 -0.167,0.431 -0.228,0.654c-0.552,2.021 -1.176,4.108 -1.78,6.126c-1.004,3.356 -2.042,6.827 -2.85,10.317c-1.38,5.969 -2.404,12.42 -0.569,19.149c0.593,2.176 2.569,3.685 4.824,3.685c8.881,0 16.673,-1.381 23.16,-4.104c7.38,-3.098 13.712,-7.803 18.391,-13.652c0.229,-0.181 0.434,-0.367 0.616,-0.548c1.322,-0.461 2.418,-1.467 2.974,-2.809c0.288,-0.694 0.409,-1.429 0.375,-2.15c0.218,-0.162 0.434,-0.299 0.637,-0.401c0.533,-0.266 1.013,-0.625 1.419,-1.06c5.362,-5.745 9.092,-11.965 11.086,-18.487c1.872,-6.119 2.565,-13.008 2.119,-21.06c-0.281,-5.083 -0.903,-9.809 -1.854,-14.121zm-9.827,32.258c-1.483,4.853 -4.28,9.567 -8.316,14.025c-2.386,1.441 -4.646,3.785 -6.038,6.278c-0.817,0.578 -1.305,1.308 -1.583,1.866c-0.182,0.366 -0.315,0.748 -0.401,1.138c-3.528,4.008 -8.138,7.268 -13.467,9.504c-4.249,1.784 -9.305,2.856 -15.072,3.202c-0.18,-3.2 0.378,-6.595 1.271,-10.457c0.736,-3.182 1.684,-6.351 2.688,-9.705c0.588,-1.967 1.196,-3.997 1.755,-6.025c0.239,-0.561 0.476,-1.123 0.713,-1.687c2.502,-5.941 4.865,-11.554 10.057,-15.263c0.055,-0.039 0.11,-0.08 0.164,-0.122c2.806,-2.183 5.741,-3.975 8.847,-5.872c1.72,-1.051 3.499,-2.137 5.265,-3.302c4.685,-3.089 9.623,-6.606 13.98,-12.6c0.119,-0.163 0.228,-0.333 0.325,-0.51c0.765,3.627 1.271,7.623 1.511,11.947c0.379,6.857 -0.176,12.608 -1.699,17.583z"/>
  <path fill="#ffffff" id="svg_3" d="m472.477411,357.895c-0.979,-6.752 -3.475,-13.603 -7.416,-20.361c-0.026,-0.044 -0.053,-0.087 -0.079,-0.131c-2.772,-4.436 -5.992,-8.309 -9.569,-11.51c-3.859,-3.456 -8.141,-5.725 -12.553,-7.932c-0.056,-0.027 -0.112,-0.055 -0.169,-0.08c-7.085,-3.221 -12.77,-4.976 -18.429,-5.691c-6.222,-0.792 -12.63,-0.406 -19.058,1.139c-0.471,0.025 -1.048,0.072 -1.834,0.139c-1.177,0.099 -2.641,0.221 -3.604,0.221c-0.295,0 -0.588,0.026 -0.878,0.078c-0.325,0.058 -0.645,0.149 -0.952,0.271c-6.647,-0.872 -13.587,-0.169 -21.586,2.169c-4.393,1.283 -9.019,2.913 -13.821,4.868c-1.027,-7.591 -5.906,-14.018 -8.697,-17.358c0.138,-0.658 0.566,-1.678 0.903,-2.478c0.328,-0.781 0.701,-1.666 1.016,-2.61c0.065,-0.196 0.119,-0.397 0.16,-0.601c0.734,-3.676 -0.153,-6.843 -0.867,-9.388c-0.592,-2.109 -0.941,-3.466 -0.689,-4.726c0.01,-0.053 0.02,-0.105 0.028,-0.159c0.426,-2.554 1.318,-5.034 2.264,-7.659c0.62,-1.721 1.252,-3.476 1.784,-5.331c1.245,-0.455 2.284,-1.396 2.848,-2.649c0.807,-1.796 0.483,-3.898 -0.824,-5.37c-4.696,-5.284 -10.923,-7.167 -19.041,-5.761c-2.352,0.408 -4.541,1.059 -6.658,1.689c-2.717,0.808 -5.283,1.572 -7.513,1.572c-1.659,0 -3.21,0.823 -4.141,2.197c-0.93,1.374 -1.118,3.12 -0.502,4.66c1.478,3.693 -1.037,8.804 -2.668,11.522c-0.455,0.758 -0.701,1.685 -0.713,2.568c-0.003,0.225 -0.082,0.877 -0.135,1.31c-0.054,0.44 -0.108,0.888 -0.148,1.33c-0.801,1.855 -1.524,3.702 -2.228,5.495c-0.92,2.348 -1.789,4.564 -2.769,6.664c-1.68,3.597 -3.95,7.049 -6.94,10.552c-1.317,1.412 -1.664,2.935 -1.75,3.984c-3.439,4.351 -5.814,9.188 -7.919,14.034c-0.969,-1.397 -1.478,-2.597 -1.435,-3.327c0.021,-0.354 0.4,-0.765 1.129,-1.22c1.397,-0.874 2.275,-2.381 2.345,-4.028c0.07,-1.646 -0.676,-3.223 -1.995,-4.212c-1.979,-1.485 -3.115,-5.049 -3.115,-9.777c0,-0.953 0.267,-1.362 1.509,-2.848c1.065,-1.273 2.493,-2.98 3.263,-5.46c0.415,-0.782 0.98,-1.735 1.529,-2.663c0.734,-1.238 1.494,-2.52 2.073,-3.679c0.164,-0.326 0.291,-0.67 0.379,-1.023c1.034,-4.136 -0.085,-9.237 -2.783,-12.694c-2.149,-2.753 -5.136,-4.27 -8.408,-4.27c-1.66,0 -3.444,-0.105 -5.332,-0.217c-5.9,-0.35 -12.584,-0.745 -18.861,1.946c-0.329,0.141 -0.643,0.317 -0.935,0.526c-2.073,1.479 -2.919,4.019 -2.175,6.495c-0.199,0.269 -0.396,0.538 -0.591,0.804c-1.465,1.999 -2.848,3.886 -4.326,4.625c-1.096,0.549 -1.952,1.479 -2.406,2.616c-2.524,6.315 -5.555,12.316 -8.187,17.354c-1.876,3.589 -3.908,7.188 -5.875,10.67c-1.218,2.157 -2.435,4.313 -3.625,6.48c-3.149,5.73 -5.945,11.701 -8.649,17.476l-0.225,0.48c-0.245,0.522 -0.484,1.039 -0.719,1.55c0.395,-1.631 0.807,-3.284 1.255,-4.927c0.117,-0.429 0.176,-0.871 0.176,-1.315c0,-0.506 0.363,-1.827 0.628,-2.791c0.815,-2.966 1.818,-6.61 0.138,-9.891c0.734,-1.064 1.325,-2.438 1.325,-4.19c0,-0.329 -0.033,-0.657 -0.097,-0.98c-0.8,-4 -3.721,-7.469 -7.815,-9.28c-1.148,-0.508 -2.337,-0.857 -3.534,-1.052c1.338,-5.902 1.318,-11.848 -0.042,-17.967c-0.263,-1.183 -0.947,-2.23 -1.924,-2.947c-5.448,-3.995 -12.144,-5.681 -20.45,-5.147c-7.899,0.505 -14.272,2.309 -19.482,5.514c-5.09,3.132 -9.984,7.755 -14.176,13.388c-0.194,0.176 -0.382,0.323 -0.631,0.52c-0.464,0.365 -1.042,0.819 -1.752,1.53c-0.38,0.38 -0.696,0.818 -0.937,1.299c-0.457,0.915 -1.309,2.617 -1.866,2.896c-1.611,0.805 -3.626,1.406 -5.76,2.043c-2.45,0.731 -4.983,1.487 -7.372,2.683c-0.48,0.24 -0.919,0.556 -1.299,0.937c-0.899,0.899 -2.494,1.667 -4.181,2.48c-2.255,1.087 -4.811,2.318 -6.911,4.419l-0.748,0.753c-1.022,1.032 -2.149,2.171 -3.079,2.878c-6.489,0.098 -13.55,0.943 -19.706,4.88c-2.304,-2.817 -4.95,-5.717 -8.193,-8.993l-1.606,-1.627c-3.372,-3.42 -6.858,-6.956 -10.646,-10.231c-2.204,-1.905 -4.417,-3.812 -6.637,-5.723c-1.99,-1.714 -3.984,-3.432 -5.979,-5.154c-1.022,-0.884 -2.052,-1.759 -3.083,-2.636c-3.211,-2.729 -6.243,-5.307 -9.092,-8.155c-4.536,-4.538 -7.599,-8.305 -9.933,-12.215c-2.831,-4.742 -4.8,-9.401 -6.02,-14.244c-1.118,-5.321 0.063,-10.158 2.331,-16.228c1.373,-3.677 2.956,-7.284 4.632,-11.104c0.885,-2.015 1.797,-4.094 2.671,-6.176c0.103,-0.068 0.228,-0.147 0.331,-0.213c0.909,-0.577 2.365,-1.5 3.465,-3.292c0.796,-0.983 1.247,-2.003 1.593,-2.785c0.083,-0.189 0.193,-0.436 0.265,-0.578c0.025,-0.029 0.051,-0.058 0.076,-0.087c4.097,-4.778 8.59,-9.006 12.048,-12.155c5.134,-4.676 9.211,-8.06 13.221,-10.971c1.138,-0.827 2.269,-1.664 3.399,-2.501c3.652,-2.704 7.101,-5.258 10.785,-7.452c3.326,-1.98 6.814,-3.674 10.507,-5.467c1.68,-0.816 3.361,-1.632 5.029,-2.477c5.968,-3.026 10.991,-5.448 15.807,-7.622c2.296,-1.037 4.583,-2.136 6.794,-3.199c2.985,-1.435 6.07,-2.918 9.125,-4.217c0.038,0.005 0.076,0.011 0.114,0.015c1.063,0.136 3.02,0.381 5.319,-0.725c1.051,-0.463 2.102,-0.934 3.153,-1.405c3.991,-1.789 7.76,-3.479 11.686,-4.805c4.61,-1.558 10.058,-3.323 15.508,-4.604c4.599,-1.08 9.652,-1.955 15.902,-2.754c4.397,-0.562 8.867,-0.612 13.6,-0.665l2.451,-0.03c1.357,-0.02 2.718,-0.058 4.082,-0.096c4.16,-0.118 8.091,-0.229 12.037,0.193c5.035,0.457 10.007,1.364 15.199,2.772c4.067,1.104 7.968,3.103 12.474,5.768c0.405,0.645 1.014,1.351 2.013,2.017c0.173,0.115 0.353,0.22 0.538,0.313c5.784,2.892 9.541,7.99 11.481,15.581c0.677,4.313 0.045,9.189 -1.982,15.315c-1.924,4.807 -3.729,9.067 -6.164,12.408c-2.567,2.602 -4.616,5.158 -6.6,7.633c-1.922,2.398 -3.74,4.667 -5.969,6.917c-4.971,4.083 -9.604,7.459 -14.156,10.318c-5.69,3.573 -10.503,6.422 -15.499,8.711c-3.899,1.788 -8.071,2.988 -12.487,4.258c-1.462,0.42 -2.922,0.841 -4.372,1.282c-5.446,1.659 -11.256,3.356 -17.146,4.292c-6.26,0.994 -12.019,1.518 -17.604,1.603l-0.861,0.013c-5.591,0.087 -11.37,0.176 -16.837,-0.541c-4.426,-0.582 -8.83,-1.887 -13.492,-3.269c-1.218,-0.361 -2.438,-0.723 -3.661,-1.072c-0.053,-0.015 -0.106,-0.03 -0.16,-0.043c-2.217,-0.554 -4.55,-2.465 -7.021,-4.487c-4.388,-3.592 -9.843,-8.06 -17.781,-7.271c-1.148,0.115 -2.222,0.624 -3.038,1.439c-1.065,1.066 -1.639,2.469 -1.615,3.952c0.009,0.545 0.095,1.042 0.232,1.495c-0.215,0.243 -0.42,0.515 -0.608,0.821c-1.019,1.653 -1.151,3.643 -0.394,5.914c0.075,0.225 0.166,0.443 0.271,0.655c3.358,6.718 8.707,12.316 15.468,16.191c5.179,2.969 11.583,5.113 19.051,6.38c5.661,4.108 12.213,4.643 18.563,5.16c1.654,0.135 3.365,0.274 5.094,0.49c6.458,0.68 12.724,0.864 19.157,0.566c1.376,-0.064 2.751,-0.114 4.125,-0.164c4.85,-0.177 9.865,-0.359 14.875,-1.155c6.022,-0.958 11.921,-2.238 18.455,-3.689c0.125,-0.028 0.249,-0.06 0.372,-0.098c5.351,-1.628 10.76,-3.759 17.024,-6.705c4.9,-2.305 9.933,-5.201 15.837,-9.114c4.838,-3.207 9.202,-6.839 14.268,-11.305c4.744,-4.184 8.951,-8.356 12.908,-12.809l0.478,-0.553c3.737,-4.324 7.602,-8.794 10.725,-13.974c3.755,-6.229 6.349,-11.53 8.162,-16.683c2.061,-5.851 3.328,-12.083 3.766,-18.522c0.442,-6.507 -0.229,-12.939 -1.993,-19.119c-1.519,-5.32 -4.354,-10.708 -8.928,-16.964c-3.048,-4.159 -7.227,-9.483 -12.523,-13.772c-5.212,-4.219 -10.976,-7.076 -15.968,-9.422c-5.008,-2.354 -10.491,-4.247 -17.259,-5.958c-5.933,-1.5 -11.902,-2.578 -17.743,-3.207c-6.646,-0.717 -12.478,-1.087 -17.828,-1.133l-1.179,-0.01c-5.445,-0.048 -11.074,-0.096 -16.615,0.23c-5.96,0.426 -13.829,1.101 -21.832,2.546c-6.882,1.243 -14.266,2.755 -21.705,5.413c-4.204,1.576 -8.317,3.541 -12.296,5.441c-3.96,1.891 -7.701,3.678 -11.498,5.102c-0.14,0.053 -0.278,0.112 -0.414,0.177c-5.479,2.638 -10.837,5.229 -16.15,7.909c-4.003,2.021 -7.885,4.241 -11.639,6.388c-1.399,0.801 -2.799,1.601 -4.204,2.391c-1.942,1.091 -3.948,2.082 -6.073,3.131c-3.326,1.642 -6.765,3.339 -10.042,5.5c-3.594,2.371 -6.845,5.13 -9.989,7.798c-1.435,1.218 -2.919,2.478 -4.39,3.658l-1.673,1.339c-3.944,3.152 -8.017,6.408 -11.851,10.179c-0.088,0.022 -0.178,0.043 -0.267,0.065c-1.164,0.297 -2.923,0.746 -4.393,2.216c-5.691,5.691 -10.798,10.861 -15.676,16.514c-4.392,5.089 -8.677,10.719 -13.944,18.328c-2.089,3.134 -3.898,6.266 -5.647,9.295c-1.747,3.025 -3.396,5.882 -5.307,8.749c-0.064,0.095 -0.124,0.193 -0.181,0.293c-1.874,3.279 -3.036,6.438 -4.16,9.492c-1.404,3.816 -2.617,7.112 -4.981,9.949c-1.045,1.255 -1.412,2.941 -0.982,4.517c1.808,6.631 4.196,12.596 7.302,18.238c3.524,6.401 7.135,11.715 11.037,16.247c3.914,4.545 8.456,8.438 12.848,12.203l1.247,1.069c5.096,4.381 10.496,8.323 15.106,11.602c4.218,2.999 9.795,6.92 15.523,10.641c2.579,1.675 5.161,3.534 7.657,5.332c2.461,1.772 5.005,3.604 7.61,5.311c1.747,1.145 3.503,2.256 5.25,3.36c1.041,0.658 2.065,1.306 3.073,1.951c-5.56,3.293 -11.062,6.847 -16.362,10.57c-1.396,0.98 -2.8,1.951 -4.207,2.924c-3.997,2.763 -8.13,5.62 -12.128,8.744c-4.629,3.616 -9.138,7.282 -13.912,11.164l-1.618,1.314c-0.133,0.108 -0.261,0.224 -0.382,0.346c-0.95,0.949 -1.474,1.84 -1.821,2.429c-0.071,0.12 -0.123,0.208 -0.163,0.272c-6.523,4.759 -12.512,11.014 -18.289,19.102c-0.411,0.576 -0.695,1.232 -0.834,1.926c-1.623,8.118 -2.014,15.229 -1.196,21.741c0.971,7.715 3.147,15.02 6.294,21.124c3.652,7.085 8.633,13.117 14.403,17.445c0.569,0.427 1.222,0.727 1.916,0.881c3.496,0.777 7.337,1.168 11.462,1.168c1.366,0 2.764,-0.043 4.19,-0.129c3.399,-0.205 6.673,-1.02 9.84,-1.808c1.447,-0.36 2.941,-0.731 4.413,-1.034c1.488,-0.163 2.638,-0.817 3.362,-1.23c0.034,-0.02 0.068,-0.039 0.101,-0.058c0.097,-0.021 0.192,-0.043 0.288,-0.068c8.7,-2.318 15.591,-6.645 21.184,-10.57c3.448,-2.421 6.719,-5.116 9.882,-7.724c2.419,-1.994 4.92,-4.056 7.475,-5.972c0.068,-0.051 0.135,-0.104 0.201,-0.159c5.927,-4.938 10.685,-11.718 14.544,-20.725c0.045,-0.104 0.086,-0.211 0.124,-0.318c2.875,-8.221 4.653,-14.584 5.761,-20.635c1.14,-6.219 1.73,-13.015 1.857,-21.389c0.105,-6.901 -0.369,-14.088 -1.408,-21.359c-0.013,-0.092 -0.029,-0.183 -0.047,-0.273c-0.123,-0.612 -0.272,-1.179 -0.445,-1.703c1.383,-0.653 2.715,-1.327 4.002,-2.025c-0.028,0.16 -0.054,0.32 -0.079,0.481c-0.867,5.59 -0.401,11.968 1.346,18.458c0.639,3.287 0.59,6.02 0.529,9.465c-0.019,1.056 -0.038,2.142 -0.038,3.285c0,0.329 0.033,0.658 0.097,0.98c0.288,1.441 0.523,3.036 0.772,4.724c0.57,3.868 1.215,8.247 2.768,12.19c1.117,3.306 2.73,6.474 4.292,9.539c1.481,2.907 2.88,5.654 3.762,8.299c0.075,0.225 0.165,0.443 0.271,0.655c3.073,6.146 9.622,5.275 13.14,4.811c0.839,-0.111 1.639,-0.218 2.295,-0.249c3.76,0.544 10.205,-0.342 15.283,-10.499c0.078,-0.156 0.148,-0.317 0.209,-0.48c1.548,-4.127 4.224,-7.845 7.087,-11.751c0.05,0.763 0.116,1.533 0.203,2.313c0.57,5.135 3.281,9.629 7.632,12.654c4.932,3.43 11.391,4.6 17.279,3.126c0.124,-0.031 0.247,-0.066 0.368,-0.107c4.5,-1.5 7.392,-4.937 9.944,-7.97c1.795,-2.133 3.491,-4.147 5.404,-5.104c0.712,-0.355 1.302,-0.858 1.752,-1.453c1.168,-0.672 2.051,-1.806 2.377,-3.188c0.458,-1.937 -0.28,-3.926 -1.81,-5.106c1.163,-3.406 2.879,-6.62 4.686,-10.004l0.936,-1.768c2.631,-4.981 4.44,-9.728 5.513,-14.468c3.542,-4.499 7.044,-9.461 10.683,-15.133c3.728,-5.815 7.006,-11.281 10.021,-16.706c0.31,-0.557 0.615,-1.114 0.918,-1.674c0.024,0.436 0.037,0.872 0.037,1.312c0,1.326 0.526,2.598 1.465,3.535c2.244,2.244 3.872,5.305 5.596,8.545c1.661,3.121 3.484,6.548 6.111,9.67c-0.175,0.217 -0.345,0.412 -0.513,0.587c-1.058,-0.122 -2.021,-0.148 -2.828,-0.148c-2.762,0 -5,2.238 -5,5c0,0.178 0.009,0.353 0.027,0.525c-1.313,1.143 -2.486,2.484 -3.473,3.992c-5.526,1.987 -9.961,5.971 -14.266,9.837c-2.18,1.957 -4.237,3.805 -6.338,5.306c-0.493,0.352 -0.918,0.791 -1.254,1.295c-0.484,0.727 -1.154,1.484 -1.864,2.286c-1.753,1.983 -3.928,4.443 -4.911,8.184c-1.29,4.14 0.619,7.278 2.31,9.521c-0.253,0.7 -0.335,1.37 -0.335,1.944c0,4.239 4.175,6.527 8.104,6.527c2.583,0 4.531,0.542 6.998,1.229c1.418,0.395 3.021,0.841 4.89,1.22c5.158,1.255 10.146,0.313 14.024,-2.588c5.217,-0.08 10.63,-1.643 16.121,-4.656c5.01,-2.747 9.441,-7.098 13.173,-12.93c4.061,-6.349 5.951,-12.005 5.951,-17.803c0,-1.707 -0.732,-3.041 -1.564,-4.204c2.952,-5.61 1.644,-11.053 0.646,-15.202c-0.146,-0.608 -0.289,-1.2 -0.417,-1.777c0.299,-0.357 0.699,-0.802 1.179,-1.282c1.444,-1.443 1.82,-3.55 1.13,-5.339c3.021,-2.399 5.992,-5.272 8.97,-8.67c3.276,-3.739 6.022,-7.892 8.678,-11.907c0.824,-1.245 1.647,-2.49 2.485,-3.72c0.983,-1.444 2.019,-2.958 3.091,-4.503c0.728,1.788 1.578,3.498 2.418,5.145c-2.088,4.026 -2.043,9.329 0.139,15.835c-1.214,1.786 -2.448,3.566 -3.653,5.304c-1.308,1.886 -2.599,3.746 -3.836,5.574c-0.879,1.297 -1.782,2.569 -2.684,3.841c-2.111,2.976 -4.295,6.053 -6.18,9.445c-0.121,0.217 -0.225,0.441 -0.312,0.673c-1.39,3.706 -3.093,6.941 -4.896,10.368c-1.839,3.494 -3.739,7.105 -5.335,11.314c-1.832,4.028 -0.067,8.528 4.279,11.019c1.953,1.568 4.032,1.717 5.239,1.788c0.884,1.561 2.543,2.534 4.35,2.534c6.371,0 13.148,-0.186 19.807,-2.405c1.622,-0.54 2.855,-1.872 3.27,-3.53c0.698,-2.791 3.497,-4.286 8.006,-6.494c2.801,-1.372 5.697,-2.79 8.269,-4.933c0.529,-0.441 0.963,-0.987 1.271,-1.604c0.184,-0.367 0.902,-0.966 1.663,-1.6c0.659,-0.55 1.4,-1.167 2.188,-1.936c8.105,-6.73 4.716,-17.797 3.35,-21.921c-0.215,-1.476 0.166,-3.35 0.568,-5.327c0.321,-1.581 0.667,-3.28 0.788,-5.079c4.277,-1.48 8.741,-2.843 13.201,-3.656c5.813,-1.063 11.616,-1.653 17.247,-1.754c5.673,-0.1 11.606,0.724 17.207,1.577c5.681,0.864 11.229,2.226 16.494,4.045c6.134,2.661 11.341,6.821 14.709,11.75c1.138,2.353 1.843,4.787 2.589,7.358c0.658,2.27 1.332,4.594 2.326,6.872c-0.145,0.211 -0.289,0.42 -0.433,0.629c-2.91,4.227 -5.682,8.253 -7.595,13.411c-3.065,0.859 -6.504,2.026 -10.148,3.849c-1.282,0.641 -2.229,1.802 -2.596,3.188c-0.368,1.386 -0.124,2.863 0.672,4.057c2.236,3.354 5.371,4.122 7.521,4.405c0.359,0.229 0.751,0.414 1.168,0.549c1.22,0.39 3.488,0.619 5.322,-0.443c7.885,-1.843 14.744,-6.297 18.729,-12.273c0.115,-0.173 0.22,-0.352 0.312,-0.537c0.404,-0.807 0.791,-1.438 1.238,-2.169c0.498,-0.811 1.062,-1.729 1.657,-2.923c3.201,-6.405 4.201,-13.956 2.969,-22.448zm-252.22,28.716c-0.128,0.427 -0.199,0.869 -0.209,1.314c-0.007,0.032 -0.018,0.07 -0.031,0.114c-1.749,-0.363 -3.58,0.09 -4.82,1.329c-1.414,1.412 -1.997,3.366 -1.56,5.229c0.197,0.839 0.587,1.602 1.13,2.242c-1.791,2.129 -3.488,4.131 -5.238,4.799c-3.029,0.693 -6.436,0.054 -8.938,-1.685c-1.377,-0.958 -3.085,-2.697 -3.402,-5.548c-0.545,-4.906 -0.13,-9.584 0.309,-14.536c0.307,-3.465 0.625,-7.049 0.625,-10.868c0,-2.762 -2.239,-5 -5,-5s-5,2.238 -5,5c0,3.087 -1.405,5.805 -3.032,8.952c-0.276,0.534 -0.552,1.067 -0.82,1.602c-1.393,2.416 -3.144,4.804 -4.996,7.33c-3.189,4.351 -6.485,8.847 -8.576,14.283c-0.763,1.482 -2.916,5.238 -4.885,4.846c-0.323,-0.064 -0.651,-0.097 -0.98,-0.097c-1.374,0 -2.696,0.176 -3.976,0.346c-0.863,0.113 -2.193,0.292 -2.966,0.266c-1.094,-2.988 -2.56,-5.865 -3.981,-8.656c-1.481,-2.907 -2.88,-5.654 -3.762,-8.299c-0.031,-0.093 -0.065,-0.185 -0.101,-0.276c-1.155,-2.887 -1.693,-6.54 -2.214,-10.074c-0.231,-1.565 -0.469,-3.18 -0.761,-4.722c0.004,-0.908 0.02,-1.78 0.035,-2.63c0.067,-3.777 0.131,-7.346 -0.752,-11.763c-0.022,-0.112 -0.049,-0.225 -0.079,-0.335c-1.419,-5.205 -1.82,-10.21 -1.16,-14.473c0.623,-4.017 2.801,-7.917 6.474,-11.591c1.43,-1.431 1.857,-3.581 1.083,-5.449s-2.597,-3.086 -4.619,-3.086c-3.247,0 -5.66,0.778 -7.365,2.377c-5.311,4.531 -11.009,7.86 -18.763,10.931c-0.315,-0.046 -0.623,-0.092 -0.925,-0.145c-0.615,-0.194 -1.346,-0.348 -2.173,-0.348c-2.525,0 -4.654,1.883 -4.962,4.389c-0.309,2.507 1.3,4.85 3.75,5.462c0.201,0.051 0.399,0.097 0.594,0.139c0.002,0.001 0.004,0.002 0.006,0.003c0.761,0.351 2.082,0.946 3.716,0.909c0.947,6.69 1.378,13.285 1.282,19.605c-0.119,7.806 -0.657,14.078 -1.694,19.738c-1.005,5.482 -2.643,11.34 -5.308,18.972c-3.188,7.394 -6.983,12.875 -11.594,16.749c-2.698,2.028 -5.255,4.136 -7.728,6.174c-3.155,2.601 -6.135,5.058 -9.266,7.255c-4.789,3.361 -10.617,7.045 -17.635,8.99c-1.381,0.2 -2.453,0.811 -3.141,1.202c-0.034,0.02 -0.067,0.039 -0.101,0.058c-1.787,0.358 -3.492,0.782 -5.141,1.192c-2.852,0.71 -5.546,1.38 -8.026,1.529c-4.356,0.263 -8.326,0.06 -11.822,-0.601c-4.211,-3.377 -7.882,-7.976 -10.66,-13.364c-2.616,-5.074 -4.435,-11.227 -5.261,-17.79c-0.648,-5.153 -0.362,-10.881 0.876,-17.48c5.133,-7.044 10.189,-12.232 15.85,-16.276c0.224,-0.16 0.435,-0.338 0.629,-0.533c0.95,-0.949 1.474,-1.84 1.821,-2.429c0.102,-0.173 0.165,-0.278 0.208,-0.344l1.305,-1.061c4.735,-3.85 9.208,-7.486 13.761,-11.043c3.768,-2.944 7.779,-5.717 11.657,-8.398c1.427,-0.986 2.852,-1.972 4.269,-2.966c5.284,-3.713 10.775,-7.249 16.322,-10.511c0.365,-0.214 0.647,-0.432 0.947,-0.73c0.161,-0.095 0.732,-0.242 1.149,-0.349c1.479,-0.38 3.714,-0.953 5.682,-2.921c1.031,-1.03 1.56,-2.46 1.45,-3.913c-0.11,-1.454 -0.85,-2.787 -2.024,-3.65c-3.444,-2.532 -7.102,-4.846 -10.639,-7.083c-1.701,-1.076 -3.413,-2.158 -5.116,-3.273c-2.419,-1.585 -4.763,-3.272 -7.245,-5.06c-2.593,-1.867 -5.274,-3.799 -8.055,-5.604c-5.571,-3.618 -11.037,-7.461 -15.175,-10.403c-4.425,-3.146 -9.593,-6.919 -14.383,-11.036l-1.257,-1.078c-4.299,-3.685 -8.359,-7.164 -11.778,-11.136c-3.445,-4 -6.668,-8.758 -9.854,-14.544c-2.354,-4.278 -4.244,-8.787 -5.745,-13.724c2.384,-3.509 3.726,-7.157 5.031,-10.705c1.009,-2.741 1.962,-5.332 3.377,-7.842c2.047,-3.083 3.826,-6.164 5.546,-9.144c1.747,-3.025 3.396,-5.882 5.258,-8.676c5.008,-7.234 9.093,-12.604 13.243,-17.415c4.525,-5.243 9.349,-10.144 14.709,-15.509c0.086,-0.021 0.174,-0.042 0.261,-0.064c1.164,-0.297 2.923,-0.746 4.393,-2.216c3.578,-3.578 7.603,-6.795 11.496,-9.906l1.69,-1.354c1.577,-1.266 3.113,-2.57 4.6,-3.831c3.052,-2.59 5.935,-5.037 9.025,-7.075c2.756,-1.817 5.771,-3.305 8.962,-4.881c2.149,-1.061 4.371,-2.158 6.547,-3.381c1.427,-0.802 2.848,-1.615 4.269,-2.427c3.643,-2.083 7.409,-4.238 11.178,-6.14c5.172,-2.609 10.419,-5.147 15.785,-7.731c4.129,-1.563 8.171,-3.493 12.082,-5.361c3.96,-1.891 7.701,-3.678 11.424,-5.075c6.683,-2.387 13.583,-3.796 20.044,-4.962c7.535,-1.36 15.057,-2.004 20.706,-2.408c5.142,-0.302 10.358,-0.257 15.878,-0.209l1.182,0.01c5.016,0.042 10.524,0.395 16.841,1.075c5.377,0.579 10.883,1.574 16.363,2.959c6.131,1.55 11.041,3.238 15.454,5.313c5.537,2.602 10.024,4.982 13.93,8.144c3.437,2.783 6.753,6.457 10.748,11.907c3.851,5.268 6.196,9.654 7.381,13.803c1.445,5.065 1.995,10.346 1.632,15.695c-0.377,5.538 -1.461,10.88 -3.222,15.88c-1.582,4.495 -3.899,9.21 -7.294,14.841c-2.682,4.449 -6.263,8.591 -9.726,12.597l-0.434,0.502c-3.638,4.093 -7.563,7.985 -12.001,11.899c-4.756,4.193 -8.816,7.578 -13.179,10.47c-5.489,3.638 -10.118,6.308 -14.567,8.4c-5.746,2.702 -10.677,4.653 -15.499,6.132c-6.296,1.398 -11.98,2.629 -17.667,3.533c-4.409,0.701 -8.906,0.865 -13.667,1.038c-1.408,0.051 -2.817,0.103 -4.226,0.168c-5.922,0.276 -11.693,0.105 -17.549,-0.511c-1.846,-0.231 -3.666,-0.379 -5.426,-0.522c-5.709,-0.465 -10.639,-0.867 -14.119,-3.767c-0.698,-0.582 -1.542,-0.962 -2.441,-1.101c-6.805,-1.046 -12.488,-2.857 -16.894,-5.382c-4.016,-2.302 -7.353,-5.396 -9.796,-9.059c0.409,-0.426 0.755,-0.888 1.035,-1.375c1.495,0.882 3.064,2.133 4.919,3.651c3.044,2.492 6.492,5.315 10.843,6.429c1.167,0.334 2.33,0.679 3.493,1.023c4.829,1.431 9.822,2.911 15.032,3.596c6.194,0.813 12.346,0.718 18.294,0.625l0.858,-0.013c6.065,-0.092 12.288,-0.656 19.022,-1.726c6.52,-1.036 12.71,-2.841 18.491,-4.602c1.4,-0.427 2.811,-0.833 4.223,-1.239c4.576,-1.316 9.308,-2.677 13.888,-4.777c5.49,-2.516 10.626,-5.55 16.65,-9.333c4.977,-3.124 10.01,-6.795 15.386,-11.224c0.124,-0.102 0.243,-0.21 0.356,-0.324c2.694,-2.694 4.816,-5.342 6.868,-7.902c1.97,-2.458 3.83,-4.779 6.136,-7.085c0.168,-0.167 0.323,-0.346 0.465,-0.536c3.292,-4.39 5.436,-9.435 7.701,-15.099c0.036,-0.091 0.07,-0.183 0.101,-0.276c2.63,-7.889 3.384,-14.387 2.373,-20.451c-0.021,-0.131 -0.049,-0.262 -0.081,-0.391c-2.529,-10.118 -7.816,-17.431 -15.723,-21.755c-0.318,-0.476 -0.755,-0.992 -1.38,-1.514c-0.2,-0.167 -0.412,-0.318 -0.636,-0.452c-5.605,-3.362 -10.455,-5.903 -15.901,-7.381c-5.759,-1.562 -11.291,-2.569 -16.832,-3.072c-4.537,-0.486 -8.994,-0.36 -13.305,-0.238c-1.317,0.037 -2.632,0.074 -3.944,0.093l-2.418,0.03c-4.81,0.054 -9.783,0.11 -14.756,0.746c-6.601,0.844 -11.978,1.777 -16.92,2.938c-5.859,1.377 -11.59,3.232 -16.423,4.865c-4.378,1.479 -8.545,3.347 -12.575,5.153c-1.008,0.452 -2.016,0.904 -3.024,1.348c-0.037,-0.005 -0.073,-0.01 -0.11,-0.015c-1.056,-0.132 -3,-0.378 -5.283,0.708c-3.263,1.388 -6.451,2.92 -9.536,4.403c-2.158,1.038 -4.39,2.11 -6.577,3.098c-4.956,2.238 -10.108,4.722 -16.212,7.816c-1.617,0.819 -3.247,1.61 -4.876,2.401c-3.719,1.806 -7.564,3.672 -11.256,5.871c-4.115,2.451 -7.93,5.275 -11.619,8.007c-1.105,0.819 -2.211,1.638 -3.325,2.446c-4.319,3.137 -8.662,6.736 -14.079,11.67c-3.644,3.319 -8.385,7.781 -12.811,12.929c-1.05,1.115 -1.59,2.336 -1.99,3.24c-0.084,0.189 -0.193,0.436 -0.265,0.578c-0.233,0.26 -0.439,0.544 -0.613,0.847c-0.111,0.075 -0.266,0.174 -0.391,0.252c-1.017,0.645 -2.718,1.725 -3.839,3.966c-0.051,0.103 -0.099,0.207 -0.143,0.313c-0.905,2.173 -1.879,4.391 -2.82,6.535c-1.658,3.778 -3.373,7.684 -4.843,11.623c-2.448,6.553 -4.473,13.741 -2.725,21.901c0.012,0.055 0.025,0.11 0.039,0.165c1.458,5.837 3.8,11.407 7.156,17.029c2.774,4.647 6.304,9.014 11.448,14.16c3.135,3.136 6.466,5.967 9.688,8.705c1.01,0.858 2.019,1.716 3.021,2.581c2,1.729 3.999,3.449 5.993,5.166c2.214,1.907 4.423,3.809 6.622,5.71c3.486,3.015 6.831,6.407 10.064,9.688l1.621,1.642c4.467,4.513 7.67,8.202 10.386,11.961c0.858,1.188 2.194,1.939 3.654,2.057c1.459,0.115 2.898,-0.413 3.935,-1.449c4.835,-4.835 11.734,-5.501 18.469,-5.501c0.776,0 1.542,-0.181 2.236,-0.528c2.492,-1.246 4.535,-3.309 6.51,-5.303l0.713,-0.719c0.899,-0.899 2.494,-1.667 4.181,-2.48c2.011,-0.969 4.261,-2.054 6.213,-3.766c1.499,-0.668 3.283,-1.2 5.158,-1.76c2.45,-0.731 4.983,-1.487 7.372,-2.683c3.12,-1.56 4.798,-4.361 5.916,-6.53c0.106,-0.088 0.22,-0.177 0.35,-0.279c0.464,-0.365 1.042,-0.819 1.752,-1.53c0.18,-0.18 0.346,-0.373 0.496,-0.578c3.493,-4.762 7.51,-8.614 11.616,-11.141c3.784,-2.329 8.651,-3.654 14.88,-4.052c5.117,-0.332 9.096,0.385 12.351,2.229c1.109,6.771 0.038,13.126 -3.319,19.84c-0.106,0.212 -0.197,0.432 -0.271,0.656c-0.597,1.792 -0.312,3.689 0.782,5.207c1.138,1.578 3.031,2.521 5.063,2.521c1.326,0 2.598,-0.526 3.536,-1.465c0.201,-0.2 0.712,-0.536 1.04,-0.69c1.145,-0.148 2.192,-0.688 2.974,-1.506c0.102,0.075 0.198,0.153 0.289,0.233c-0.73,0.702 -1.571,1.639 -2.199,2.894c-0.709,1.42 -0.704,3.091 0.017,4.505c0.521,1.024 1.373,1.826 2.398,2.288c-0.148,0.694 -0.375,1.521 -0.538,2.111c-0.418,1.521 -0.849,3.086 -0.959,4.679c-0.619,2.309 -1.16,4.571 -1.685,6.766c-0.684,2.856 -1.329,5.556 -2.1,8.19c-0.994,3.401 -2.004,6.731 -3.009,10.047c-0.438,1.443 -0.875,2.883 -1.309,4.325c-1.765,2.255 -2.547,4.896 -3.194,7.078c-0.3,1.01 -0.791,2.666 -1.173,3.172c-0.064,0.01 -0.17,0.021 -0.325,0.021c-2.152,0 -4.063,1.377 -4.743,3.419c-0.681,2.042 0.021,4.29 1.743,5.581c3.679,2.76 7.21,2.938 10.533,0.54c1.641,0.149 3.336,-0.25 4.842,-1.181c0.895,-0.553 1.678,-1.264 2.317,-2.074c-1.154,2.386 -2.209,4.879 -3.017,7.571zm6.721,-14.689l-0.917,1.724c-0.032,0.059 -0.063,0.118 -0.094,0.177c0.005,-0.097 0.008,-0.193 0.008,-0.29c0,-1.244 -0.143,-2.294 -0.385,-3.179c1.51,-1.174 2.869,-2.574 4.045,-4.18c-0.736,1.873 -1.619,3.782 -2.657,5.748zm68.512,-25.169c0.087,0.087 0.175,0.171 0.264,0.251c-0.281,0.798 -0.352,1.465 -0.352,2.057c0,0.275 0.022,0.551 0.068,0.822c0.236,1.421 0.558,2.758 0.869,4.05c1.101,4.578 1.53,6.899 -0.724,9.604c-0.749,0.898 -1.159,2.031 -1.159,3.201c0,2.208 1.226,3.793 2.308,5.191c0.053,0.068 0.112,0.146 0.174,0.226c-0.253,3.451 -1.647,7.063 -4.332,11.261c-2.818,4.404 -6.034,7.618 -9.56,9.552c-4.552,2.497 -8.86,3.634 -12.799,3.393c-1.436,-0.095 -2.833,0.441 -3.848,1.455c-2.108,2.106 -4.905,1.801 -6.384,1.432c-0.077,-0.02 -0.154,-0.037 -0.232,-0.053c-1.552,-0.31 -2.938,-0.696 -4.28,-1.069c-1.991,-0.555 -4.031,-1.122 -6.45,-1.408c-0.002,-0.007 -0.004,-0.014 -0.006,-0.021c-0.139,-0.556 -0.372,-1.084 -0.69,-1.561c-0.597,-0.896 -1.209,-1.676 -1.749,-2.364c-0.415,-0.529 -0.957,-1.221 -1.204,-1.639c0.351,-1.396 1.271,-2.488 2.744,-4.153c0.681,-0.77 1.433,-1.62 2.145,-2.583c2.287,-1.704 4.427,-3.625 6.502,-5.489c4.093,-3.676 7.961,-7.149 12.069,-8.205c-0.362,0.73 -0.71,1.5 -1.036,2.314c-0.036,0.092 -0.07,0.184 -0.101,0.276c-1.163,3.489 -5.215,6.989 -12.043,10.403c-1.602,0.801 -2.616,2.371 -2.749,4.085c-0.257,0.343 -0.459,0.686 -0.615,0.999c-0.775,1.55 -0.692,3.391 0.219,4.865c0.911,1.474 2.52,2.371 4.253,2.371c0.716,0 1.386,-0.089 2.006,-0.226c0.412,0.114 0.892,0.229 1.415,0.298c1.859,0.701 3.637,0.215 4.808,-0.626c0.053,-0.038 0.104,-0.076 0.155,-0.116c4.653,-3.621 9.016,-7.997 13.234,-12.23l0.356,-0.357c4.174,-4.187 8.832,-9.326 11.729,-15.703c0.823,-1.81 0.493,-3.936 -0.837,-5.413c-1.315,-1.461 -3.366,-2.012 -5.234,-1.419c-0.109,-0.035 -0.332,-0.142 -0.711,-0.452c0.03,-0.101 0.058,-0.201 0.082,-0.305c0.117,-0.495 0.156,-0.994 0.123,-1.482c0.906,-1.111 1.646,-2.245 2.305,-3.252l0.553,-0.84c1.402,-2.104 1.014,-4.924 -0.906,-6.569c-3.05,-2.614 -4.963,-6.21 -6.988,-10.016c-1.694,-3.185 -3.438,-6.461 -5.949,-9.398c-0.155,-2.626 -0.586,-5.027 -1.005,-7.365c-0.489,-2.736 -0.928,-5.18 -0.87,-7.659c0.284,-0.646 0.433,-1.369 0.433,-2.071c0,-4.459 -2.373,-5.729 -4.363,-6.008c-1.623,-0.223 -4.628,0.35 -5.659,3.949c-0.063,0.22 -0.11,0.443 -0.144,0.67c-0.032,0.229 -0.062,0.455 -0.088,0.681c-0.947,1.823 -1.873,3.652 -2.774,5.435c-1.657,3.276 -3.37,6.663 -5.163,9.887c-2.914,5.242 -6.088,10.531 -9.701,16.169c-2.982,4.65 -5.859,8.786 -8.735,12.556c1.305,-3.455 2.874,-7.118 4.829,-11.291l0.225,-0.48c2.758,-5.89 5.363,-11.453 8.357,-16.902c1.172,-2.134 2.369,-4.254 3.568,-6.377c2.005,-3.551 4.079,-7.224 6.03,-10.958c2.533,-4.849 5.426,-10.568 7.97,-16.704c2.65,-1.832 4.493,-4.346 6.151,-6.61c0.892,-1.216 1.732,-2.364 2.541,-3.172c0.702,-0.702 1.162,-1.577 1.357,-2.506c3.156,-0.425 6.62,-0.22 10.007,-0.021c1.95,0.116 3.967,0.235 5.923,0.235c0.177,0 0.427,0.296 0.526,0.424c0.755,0.967 1.123,2.6 1.032,3.683c-0.402,0.741 -0.919,1.611 -1.421,2.46c-0.734,1.238 -1.494,2.52 -2.073,3.679c-0.164,0.326 -0.291,0.67 -0.379,1.023c-0.143,0.571 -0.604,1.143 -1.408,2.104c-1.528,1.827 -3.839,4.59 -3.839,9.264c0,5.496 1.122,10.084 3.284,13.56c-1.147,1.813 -1.546,3.63 -1.631,5.098c-0.438,7.543 6.817,14.2 9.958,16.712c0.517,0.414 1.104,0.715 1.724,0.896c-0.34,0.207 -0.68,0.405 -1.021,0.598c-1.363,0.767 -2.289,2.127 -2.502,3.677s0.312,3.101 1.418,4.207zm36.227,9.128c0.944,-1.33 1.889,-2.663 2.809,-4.02c1.217,-1.798 2.486,-3.628 3.772,-5.482c0.276,-0.397 0.554,-0.799 0.833,-1.201c-0.146,0.378 -0.249,0.777 -0.301,1.192c-0.613,4.902 -4.06,9.479 -9.067,12.288c0.634,-0.917 1.287,-1.839 1.954,-2.777zm126.108,24.768c-0.197,0.283 -0.406,0.563 -0.627,0.836c0.628,-1.111 1.313,-2.202 2.039,-3.306c-0.431,0.704 -0.908,1.493 -1.412,2.47zm3.112,-21.706c-0.825,-2.847 -1.761,-6.072 -3.387,-9.324c-0.092,-0.186 -0.196,-0.364 -0.312,-0.537c-4.453,-6.68 -11.351,-12.263 -19.423,-15.723c-0.107,-0.046 -0.217,-0.088 -0.327,-0.127c-5.893,-2.05 -12.099,-3.579 -18.443,-4.545c-6.024,-0.917 -12.432,-1.801 -18.891,-1.688c-6.173,0.11 -12.521,0.755 -18.866,1.914c-6.401,1.169 -12.564,3.249 -18.271,5.323c-2.322,0.844 -3.68,3.257 -3.195,5.68c0.303,1.512 -0.099,3.486 -0.524,5.578c-0.576,2.832 -1.229,6.043 -0.531,9.531c0.041,0.203 0.095,0.404 0.16,0.601c2.976,8.927 0.573,10.849 -0.216,11.48c-0.145,0.115 -0.282,0.238 -0.412,0.369c-0.537,0.536 -1.105,1.01 -1.707,1.511c-1.19,0.992 -2.512,2.092 -3.565,3.697c-1.567,1.15 -3.55,2.121 -5.634,3.142c-4.387,2.148 -9.694,4.747 -12.279,10.167c-3.812,0.944 -7.804,1.179 -11.892,1.23c-2.274,-2.27 -4.911,-2.424 -6.214,-2.5c-0.035,-0.002 -0.07,-0.004 -0.105,-0.005c-0.111,-0.079 -0.225,-0.154 -0.342,-0.225c0.791,-1.974 1.67,-3.827 2.601,-5.668c0.073,0.246 0.165,0.483 0.273,0.711c-0.069,0.896 0.104,1.798 0.508,2.609c0.879,1.767 2.722,2.899 4.663,2.839c1.848,-0.039 3.486,-1.057 4.364,-2.685c0.601,-0.565 1.063,-1.188 1.385,-1.862c4.47,-1.909 8.535,-4.619 11.767,-7.885c3.826,-3.866 6.48,-8.929 7.909,-15.074c0.944,-0.539 1.709,-1.382 2.143,-2.431c0.774,-1.868 0.347,-4.019 -1.084,-5.448c-1.004,-1.005 -1.541,-2.146 -2.222,-3.589c-0.199,-0.423 -0.397,-0.843 -0.604,-1.257c-0.985,-1.971 -3.153,-3.064 -5.315,-2.691c-0.956,0.163 -1.814,0.594 -2.5,1.21c1.012,-1.468 2.026,-2.954 3.022,-4.449c0.913,-1.37 1.094,-3.102 0.482,-4.63c-2.092,-5.229 -2.464,-9.229 -0.995,-10.697c1.522,-1.521 1.899,-3.847 0.937,-5.771c-0.322,-0.645 -0.652,-1.289 -0.982,-1.934c-2.474,-4.823 -4.61,-8.988 -3.362,-13.354c0.656,-2.299 -0.405,-4.74 -2.534,-5.827c-2.128,-1.085 -4.728,-0.515 -6.205,1.364c-3.955,5.035 -7.746,10.536 -10.987,15.296c-0.863,1.267 -1.712,2.55 -2.561,3.833c-2.587,3.91 -5.029,7.604 -7.858,10.833c-1.581,1.803 -3.146,3.425 -4.706,4.876c0.059,-0.139 0.116,-0.277 0.175,-0.416c2.387,-5.698 4.854,-11.59 8.611,-16.147c1.274,-1.386 1.623,-2.874 1.713,-3.912c3.296,-3.964 5.854,-7.936 7.805,-12.113c1.114,-2.386 2.083,-4.856 3.019,-7.245c0.77,-1.964 1.565,-3.994 2.426,-5.93c0.275,-0.619 0.422,-1.349 0.431,-2.026c0.003,-0.224 0.082,-0.877 0.135,-1.309c0.041,-0.335 0.083,-0.674 0.117,-1.012c2.618,-4.663 3.934,-9.12 3.917,-13.187c1.556,-0.36 3.07,-0.811 4.563,-1.255c1.924,-0.572 3.741,-1.113 5.513,-1.42c2.433,-0.422 4.371,-0.424 6,0.041c-0.476,1.923 -1.164,3.834 -1.882,5.829c-1.047,2.907 -2.129,5.913 -2.706,9.328c-0.706,3.64 0.175,6.778 0.883,9.303c0.55,1.958 0.891,3.268 0.735,4.453c-0.179,0.49 -0.4,1.016 -0.632,1.566c-1.07,2.543 -2.537,6.026 -1.195,10.05c0.204,0.613 0.526,1.182 0.947,1.673c6.394,7.46 8.632,13.406 6.842,18.18c-0.712,1.898 -0.207,4.039 1.278,5.419c1.484,1.381 3.657,1.728 5.498,0.877c7.184,-3.314 14.002,-5.923 20.266,-7.753c7.516,-2.195 13.745,-2.675 19.605,-1.5c1.31,0.261 2.651,-0.016 3.74,-0.737c0.593,-0.043 1.174,-0.091 1.704,-0.136c0.611,-0.051 1.449,-0.121 1.688,-0.124c0.409,0 0.816,-0.05 1.213,-0.149c5.474,-1.368 10.673,-1.711 15.9,-1.048c4.6,0.581 9.372,2.074 15.464,4.836c3.751,1.878 7.356,3.785 10.272,6.396c2.858,2.559 5.455,5.687 7.72,9.297c3.269,5.621 5.327,11.236 6.118,16.69c0.288,1.984 0.427,3.867 0.416,5.654c-0.822,-1.763 -1.407,-3.782 -2.062,-6.041z"/>
  <path fill="#ffffff" id="svg_4" d="m203.071411,298.673c-0.468,-2.337 -2.52,-4.02 -4.903,-4.02c-4.519,0 -10.271,0.565 -14.682,4.977c-0.185,0.185 -0.354,0.383 -0.508,0.595c-1.601,2.2 -3.24,4.359 -4.826,6.447c-2.276,2.997 -4.629,6.097 -6.802,9.24c-1.047,1.515 -2.105,3.021 -3.165,4.531c-2.64,3.76 -5.371,7.647 -7.954,11.706c-0.289,0.453 -0.502,0.95 -0.632,1.472c-1.29,5.155 -2.02,10.968 -2.233,17.77c-0.112,3.567 0.134,7.106 0.372,10.528c0.155,2.239 0.302,4.354 0.358,6.484c0.153,5.927 0.088,11.014 -0.206,16.009c-0.105,1.782 0.748,3.485 2.239,4.468c0.831,0.549 1.79,0.826 2.753,0.826c0.763,0 1.529,-0.175 2.236,-0.528c9.559,-4.779 13.997,-13.635 16.934,-22c1.916,-1.056 2.703,-2.48 3,-3.687c0.82,-2.163 1.306,-4.209 1.777,-6.191c0.661,-2.782 1.231,-5.186 2.63,-7.517c0.136,-0.227 0.252,-0.461 0.349,-0.701c1.926,-0.278 3.544,-1.662 4.09,-3.575c1.234,-4.322 2.751,-9.109 4.507,-14.229c0.325,-0.946 0.661,-1.894 0.997,-2.842c1.409,-3.976 2.866,-8.086 3.648,-12.407c1.086,-5.997 1.093,-11.999 0.021,-17.356zm-9.86,15.575c-0.638,3.524 -1.899,7.082 -3.233,10.848c-0.348,0.979 -0.694,1.958 -1.03,2.937c-1.308,3.813 -2.489,7.454 -3.528,10.874c-2.849,0.402 -4.388,2.159 -5.213,3.81c-0.347,0.694 -0.528,1.46 -0.528,2.236c0,0.59 0.012,0.906 0.023,1.224c0.007,0.181 0.014,0.361 0.016,0.646c-1.363,2.883 -2.022,5.659 -2.618,8.168c-0.326,1.373 -0.639,2.69 -1.047,3.954c-2.035,1.108 -2.811,2.631 -3.077,3.878c-1.481,4.377 -3.033,7.81 -4.801,10.51c-0.008,-1.671 -0.035,-3.394 -0.082,-5.188c-0.061,-2.347 -0.223,-4.67 -0.379,-6.917c-0.23,-3.321 -0.449,-6.458 -0.353,-9.522c0.18,-5.729 0.753,-10.607 1.751,-14.879c2.335,-3.627 4.835,-7.186 7.257,-10.634c1.074,-1.53 2.147,-3.058 3.208,-4.593c2.045,-2.96 4.229,-5.835 6.539,-8.878c1.529,-2.013 3.106,-4.091 4.678,-6.242c0.756,-0.667 1.73,-1.136 3.015,-1.431c0.162,2.953 -0.038,6.105 -0.598,9.199z"/>
 </g>
</svg>