<svg width="387.001" height="452.3" xmlns="http://www.w3.org/2000/svg">

 <g>
  <title>background</title>
  <rect fill="none" id="canvas_background" height="402" width="582" y="-1" x="-1"/>
 </g>
 <g>
  <title>Layer 1</title>
  <path fill="#ffffff" id="svg_2" d="m153.245,140.18c-3.014,-0.119 -5.97,-0.317 -9.099,-0.526c-2.689,-0.18 -5.47,-0.365 -8.292,-0.497c-2.827,-0.131 -5.662,-0.214 -8.404,-0.294c-3.022,-0.088 -6.147,-0.179 -9.163,-0.335c-3.504,-0.181 -7.008,-0.384 -10.514,-0.587c-2.352,-0.137 -4.704,-0.273 -7.059,-0.403c-2.78,-0.153 -5.565,-0.409 -8.514,-0.68c-2.936,-0.27 -5.972,-0.549 -9.052,-0.723c-2.867,-0.163 -5.732,-0.365 -8.599,-0.567c-2.999,-0.211 -5.998,-0.423 -9,-0.592c-3.354,-0.188 -6.574,-0.112 -9.689,-0.039c-2.811,0.066 -5.465,0.129 -7.99,-0.007c-2.582,-0.14 -5.23,-0.448 -8.036,-0.774c-3.08,-0.358 -6.265,-0.729 -9.573,-0.894c-3.296,-0.165 -6.514,-0.147 -9.627,-0.131c-2.814,0.013 -5.471,0.029 -8.074,-0.085c-2.608,-0.115 -5.237,-0.339 -8.019,-0.577c-3.123,-0.267 -6.352,-0.542 -9.654,-0.663c-2.529,-0.093 -5.056,-0.223 -7.583,-0.353c-3.301,-0.17 -6.715,-0.345 -10.134,-0.438c-3.388,-0.091 -6.692,0.008 -9.887,0.104c-2.739,0.082 -5.327,0.159 -7.871,0.12c-2.457,-0.038 -5.001,-0.125 -7.46,-0.208c-3.35,-0.114 -6.814,-0.232 -10.299,-0.24c-4.135,-0.01 -8.279,0.062 -12.288,0.13c-1.828,0.031 -3.656,0.063 -5.484,0.086c-2.855,0.037 -5.558,1.293 -7.427,3.45c-1.87,2.158 -2.728,5.011 -2.359,7.842c0.215,1.651 0.438,3.302 0.66,4.952c0.536,3.977 1.09,8.089 1.52,12.086c0.373,3.468 0.621,6.938 0.884,10.611c0.155,2.173 0.311,4.346 0.493,6.517c0.207,2.466 0.466,4.915 0.718,7.282c0.361,3.402 0.702,6.616 0.89,9.817c0.245,4.175 0.37,8.504 0.492,12.691c0.043,1.486 0.086,2.973 0.134,4.459c0.109,3.352 0.066,6.72 0.021,10.285c-0.029,2.286 -0.058,4.571 -0.047,6.857c0.032,6.266 -0.094,12.438 -0.207,17.118c-0.065,2.748 -0.011,5.433 0.042,8.03c0.065,3.187 0.126,6.197 -0.032,9.095c-0.162,2.972 -0.559,6.092 -0.979,9.396c-0.326,2.563 -0.663,5.214 -0.894,7.873c-0.246,2.824 0.719,5.62 2.654,7.691c1.935,2.071 4.657,3.226 7.492,3.173c5.882,-0.11 12.038,-0.034 17.987,0.038c2.888,0.031 5.712,-0.056 8.444,-0.144c3.271,-0.104 6.361,-0.204 9.36,-0.09c3.024,0.116 6.103,0.422 9.363,0.746c2.728,0.271 5.547,0.551 8.425,0.723c2.455,0.146 4.912,0.26 7.37,0.373c3.624,0.166 7.046,0.323 10.488,0.588l4.799,0.362c4.299,0.321 8.744,0.654 13.077,1.04c4.483,0.398 8.965,0.837 13.447,1.275l4.448,0.433c3.359,0.325 6.717,0.676 10.074,1.025c2.618,0.272 5.235,0.546 7.854,0.807c3.207,0.32 6.384,0.515 9.455,0.703c2.972,0.182 5.779,0.354 8.568,0.629c2.212,0.218 4.411,0.556 6.7,0.927c-0.396,2.176 -0.781,4.365 -1.176,6.602l-0.391,2.212c-0.676,3.819 -1.184,7.629 -1.675,11.313c-0.382,2.866 -0.742,5.573 -1.176,8.276c-0.558,3.487 -1.087,7.014 -1.612,10.516c-0.157,1.051 -0.314,2.099 -0.472,3.142c-3.479,1.171 -7.107,2.31 -10.578,3.191c-4.479,1.138 -9.26,1.676 -14.321,2.246l-1.868,0.211c-4.661,0.534 -9.739,0.646 -15.517,0.343c-7.915,-1.142 -13.981,-2.382 -19.618,-4.008c-6.499,-1.874 -13.218,-3.813 -19.603,-6.548c-0.254,-0.108 -0.513,-0.207 -0.775,-0.294c-0.099,-0.033 -0.196,-0.065 -0.293,-0.097c0.577,-3.832 0.683,-7.385 0.326,-10.728c-0.857,-8.006 -4.593,-15.271 -10.521,-20.457c-1.481,-1.297 -3.313,-2.127 -5.264,-2.387c-4.079,-0.544 -8.235,-0.985 -12.255,-1.411l-3.246,-0.347c-1.225,-0.132 -2.451,-0.273 -3.677,-0.414c-3.963,-0.456 -8.062,-0.928 -12.268,-1.112l-0.666,-0.029c-5.308,-0.234 -10.797,-0.477 -16.174,-0.117c-2.843,0.189 -5.47,1.582 -7.222,3.829c-1.751,2.247 -2.461,5.135 -1.952,7.938c0.192,1.055 0.393,2.118 0.594,3.186c0.824,4.369 1.603,8.495 1.843,12.323c0.179,2.854 0.132,5.823 0.082,8.968c-0.037,2.334 -0.075,4.747 -0.02,7.215c0.124,5.373 0.46,10.731 0.786,15.912l0.065,1.034c0.394,6.267 1.338,12.021 2.299,17.308c0.695,3.82 3.539,6.894 7.294,7.882c5.969,1.57 11.788,3.445 17.948,5.431l0.521,0.168c3.261,1.051 6.532,2.368 9.995,3.764c2.721,1.097 5.535,2.23 8.442,3.269c5.017,1.791 10.141,3.683 15.097,5.511l3.629,1.339c0.098,0.036 0.196,0.07 0.295,0.104c3.414,1.138 6.76,1.959 9.996,2.754c3.001,0.737 5.836,1.434 8.5,2.325c4.072,1.362 7.82,2.793 11.333,4.329c1.848,2.964 5.081,4.707 8.482,4.707c0.805,0 1.62,-0.098 2.428,-0.3c2.708,-0.678 5.474,-1.255 8.401,-1.866c2.498,-0.521 5.081,-1.061 7.669,-1.676c2.946,-0.7 5.712,-1.578 8.387,-2.428c2.599,-0.826 5.054,-1.605 7.424,-2.142c3.023,-0.684 6.168,-1.324 9.209,-1.944c2.299,-0.469 4.597,-0.937 6.891,-1.431c2.839,-0.612 5.679,-1.141 8.686,-1.699c2.436,-0.453 4.955,-0.921 7.462,-1.437c2.709,-0.557 5.444,-1.012 8.34,-1.493c2.562,-0.426 5.209,-0.866 7.867,-1.388c1.923,-0.378 3.86,-0.766 5.801,-1.154c3.517,-0.704 7.042,-1.409 10.498,-2.059c3.396,-0.637 6.223,-2.982 7.476,-6.203c2.174,-5.59 3.339,-11.294 4.366,-16.327c0.238,-1.165 0.476,-2.324 0.723,-3.472c1.565,-7.272 2.668,-13.357 3.467,-19.147c0.473,-3.417 1.073,-6.841 1.709,-10.466c0.422,-2.404 0.857,-4.886 1.26,-7.405c0.624,-2.566 1.78,-7.91 2.021,-13.14c0.867,-2.999 0.773,-5.886 0.707,-7.951c-0.002,-0.058 -0.004,-0.114 -0.006,-0.171c0.413,-2.173 0.947,-4.375 1.51,-6.689c0.7,-2.884 1.424,-5.866 1.949,-8.977c0.997,-5.899 1.8,-11.648 2.537,-17.031c0.833,-6.094 1.56,-11.607 2.012,-17.375c0.361,-4.605 0.319,-9.162 0.278,-13.569c-0.013,-1.382 -0.025,-2.768 -0.025,-4.158c0,-5.312 -4.153,-9.697 -9.457,-9.985c-2.852,-0.155 -5.724,-0.265 -8.501,-0.371c-3.279,-0.126 -6.67,-0.256 -9.938,-0.458c-3.193,-0.198 -6.354,-0.47 -9.7,-0.758c-2.828,-0.244 -5.753,-0.495 -8.68,-0.696c-3.523,-0.241 -7.046,-0.525 -10.571,-0.81c-2.605,-0.209 -5.212,-0.419 -7.82,-0.613c-3.211,-0.238 -6.376,-0.333 -9.438,-0.426c-3.133,-0.095 -6.092,-0.184 -9.008,-0.415c-2.759,-0.217 -5.599,-0.648 -8.604,-1.105c-3.127,-0.475 -6.36,-0.966 -9.729,-1.246c-2.999,-0.249 -6.013,-0.453 -8.928,-0.651c-3.128,-0.212 -6.362,-0.432 -9.493,-0.701c-3.083,-0.266 -6.173,-0.473 -9.162,-0.673c-3.058,-0.205 -6.219,-0.417 -9.267,-0.687c-3.356,-0.297 -6.709,-0.61 -10.06,-0.923c-2.785,-0.26 -5.568,-0.52 -8.351,-0.77c-3.106,-0.28 -6.173,-0.589 -9.237,-0.897c-0.5,-0.051 -1.001,-0.101 -1.502,-0.151c-0.828,-4.723 -1.504,-9.276 -2.048,-13.774c-0.349,-2.895 -0.665,-5.784 -0.982,-8.688c-0.14,-1.277 -0.281,-2.566 -0.426,-3.868c1.473,0.023 3.048,0.125 4.793,0.236c2.176,0.14 4.425,0.284 6.88,0.292c2.918,0.115 5.865,0.366 8.98,0.63c2.71,0.23 5.513,0.468 8.354,0.616c2.887,0.15 5.75,0.214 8.52,0.275c3.145,0.069 6.116,0.135 9.067,0.318c5.867,0.364 11.737,0.743 17.607,1.137c3.038,0.204 6.074,0.336 9.011,0.465c2.988,0.131 5.812,0.254 8.654,0.447c2.708,0.183 5.387,0.42 8.223,0.672c3.075,0.273 6.256,0.556 9.453,0.759c2.596,0.165 5.211,0.439 7.98,0.73c3.147,0.331 6.402,0.673 9.738,0.855c4.247,0.231 8.526,0.394 12.664,0.552c1.719,0.066 3.437,0.131 5.151,0.202c5.345,0.22 11.647,0.465 17.871,0.608l2.535,0.059c5.026,0.118 10.224,0.24 15.391,0.24c3.112,0 6.048,-1.45 7.94,-3.921c1.816,-2.374 2.56,-5.393 2.038,-8.283c-0.011,-0.062 -0.022,-0.123 -0.035,-0.185c-0.781,-3.906 -0.551,-8.427 -0.327,-12.8c0.24,-4.718 0.676,-9.535 1.179,-14.888c0.599,-6.365 0.332,-12.329 0.032,-16.813c-0.34,-5.101 -4.472,-9.123 -9.581,-9.325zm-10.362,24.267c-0.524,5.588 -0.98,10.628 -1.241,15.741c-0.099,1.937 -0.202,3.967 -0.233,6.072c-1.452,-0.032 -2.897,-0.065 -4.329,-0.099l-2.547,-0.06c-6.046,-0.139 -11.986,-0.368 -17.508,-0.596c-1.736,-0.071 -3.474,-0.137 -5.211,-0.204c-4.058,-0.155 -8.254,-0.314 -12.338,-0.537c-2.833,-0.154 -5.7,-0.456 -8.735,-0.775c-2.851,-0.299 -5.797,-0.609 -8.807,-0.8c-2.944,-0.187 -5.86,-0.446 -8.947,-0.72c-2.815,-0.25 -5.727,-0.509 -8.646,-0.706c-3.078,-0.208 -6.152,-0.343 -9.126,-0.473c-2.952,-0.129 -5.741,-0.251 -8.548,-0.439c-5.901,-0.396 -11.805,-0.777 -17.707,-1.144c-3.349,-0.208 -6.661,-0.281 -9.863,-0.352c-2.743,-0.061 -5.333,-0.118 -7.921,-0.253c-2.515,-0.131 -5.034,-0.345 -7.701,-0.572c-3.269,-0.278 -6.649,-0.565 -10.097,-0.694c-0.125,-0.005 -0.25,-0.007 -0.376,-0.007c-1.892,0 -3.79,-0.122 -5.799,-0.251c-6.026,-0.388 -12.856,-0.826 -20.653,2.099c-4.362,1.636 -7.017,6.067 -6.401,10.684c0.582,4.368 1.061,8.747 1.524,12.981c0.326,2.979 0.65,5.941 1.008,8.912c0.879,7.278 2.076,14.66 3.657,22.568c0.868,4.343 4.49,7.597 8.9,7.998c2.968,0.27 5.906,0.565 8.845,0.861c3.134,0.315 6.27,0.631 9.445,0.917c2.761,0.249 5.523,0.507 8.287,0.765c3.382,0.316 6.766,0.632 10.155,0.932c3.261,0.289 6.531,0.508 9.693,0.72c2.896,0.194 5.889,0.395 8.783,0.644c3.312,0.286 6.638,0.511 9.855,0.729c2.878,0.195 5.755,0.39 8.629,0.628c2.69,0.223 5.453,0.643 8.379,1.087c3.224,0.49 6.558,0.996 10.033,1.27c3.399,0.269 6.744,0.37 9.979,0.468c2.977,0.09 5.788,0.174 8.561,0.38c2.566,0.19 5.132,0.397 7.695,0.604c3.604,0.291 7.207,0.581 10.81,0.827c2.752,0.188 5.589,0.433 8.332,0.669c3.316,0.286 6.745,0.581 10.178,0.793c3.083,0.191 6.172,0.318 9.183,0.435c-0.014,2.262 -0.073,4.453 -0.241,6.582c-0.41,5.237 -1.098,10.448 -1.888,16.227c-0.716,5.226 -1.493,10.796 -2.442,16.413c-0.407,2.412 -1.018,4.926 -1.664,7.587c-0.689,2.839 -1.402,5.774 -1.944,8.895c-0.099,0.566 -0.148,1.14 -0.148,1.714c0,0.495 0.016,1.043 0.034,1.621c0.017,0.508 0.042,1.296 0.022,1.77c-0.458,1.163 -0.694,2.404 -0.694,3.66c0,2.647 -0.604,6.71 -1.577,10.602c-0.071,0.286 -0.131,0.575 -0.177,0.866c-0.398,2.524 -0.836,5.019 -1.271,7.494c-0.639,3.642 -1.299,7.406 -1.821,11.183c-0.729,5.286 -1.749,10.902 -3.208,17.676c-0.262,1.217 -0.513,2.444 -0.765,3.68c-0.566,2.771 -1.113,5.449 -1.791,8.008c-1.623,0.32 -3.252,0.646 -4.88,0.972c-1.917,0.384 -3.832,0.768 -5.729,1.141c-2.371,0.465 -4.764,0.862 -7.296,1.284c-2.951,0.49 -6.002,0.998 -9.082,1.631c-2.325,0.478 -4.642,0.908 -7.094,1.364c-3.013,0.561 -6.127,1.14 -9.241,1.811c-2.22,0.479 -4.446,0.932 -6.673,1.386c-3.143,0.641 -6.394,1.303 -9.626,2.033c-3.202,0.725 -6.184,1.672 -9.067,2.588c-2.434,0.772 -4.733,1.503 -6.957,2.031c-1.98,0.472 -3.973,0.896 -6.052,1.331c-0.46,-0.065 -0.928,-0.099 -1.403,-0.099c-0.966,0 -2.426,0 -4.138,0.274c-4.859,-2.258 -10.045,-4.301 -15.749,-6.21c-3.442,-1.151 -6.813,-1.979 -10.075,-2.78c-2.927,-0.72 -5.694,-1.399 -8.299,-2.259l-3.467,-1.278c-5.004,-1.847 -10.18,-3.757 -15.298,-5.584c-2.529,-0.903 -5.037,-1.913 -7.691,-2.982c-3.636,-1.466 -7.396,-2.98 -11.337,-4.251l-0.521,-0.167c-4.327,-1.395 -8.492,-2.736 -12.733,-3.986c-0.433,-2.866 -0.792,-5.829 -0.981,-8.851l-0.065,-1.035c-0.328,-5.215 -0.637,-10.142 -0.751,-15.114c-0.047,-2.08 -0.014,-4.199 0.022,-6.442c0.054,-3.392 0.109,-6.898 -0.119,-10.536c-0.128,-2.035 -0.355,-4.05 -0.639,-6.042c0.905,0.037 1.81,0.076 2.708,0.116l0.67,0.029c3.499,0.153 7.073,0.564 10.857,1c1.275,0.147 2.55,0.294 3.82,0.431l3.279,0.35c2.825,0.3 5.541,0.588 8.215,0.906c1.125,1.596 1.824,3.489 2.049,5.589c0.331,3.096 -0.235,7.111 -1.682,11.936c-1.263,4.212 0.373,8.755 4.032,11.193c3.512,2.342 6.7,3.243 9.262,3.969c0.518,0.146 1.041,0.292 1.57,0.459c7.387,3.125 14.881,5.286 21.508,7.198c6.665,1.922 13.687,3.357 22.767,4.652c0.285,0.041 0.571,0.069 0.858,0.085c7.093,0.396 13.415,0.257 19.326,-0.418l1.832,-0.208c5.508,-0.62 11.203,-1.261 17.008,-2.736c6.22,-1.579 12.526,-3.754 17.949,-5.668c3.462,-1.222 5.977,-4.243 6.55,-7.869c0.477,-3.021 0.94,-6.106 1.406,-9.212c0.516,-3.438 1.035,-6.901 1.582,-10.323c0.475,-2.96 0.869,-5.927 1.252,-8.795c0.484,-3.636 0.941,-7.069 1.543,-10.468l0.393,-2.223c0.997,-5.648 1.938,-10.984 3.085,-16.433c0.588,-2.791 -0.044,-5.7 -1.737,-7.996s-4.285,-3.759 -7.126,-4.022c-2.711,-0.251 -5.407,-0.692 -8.263,-1.16c-2.935,-0.481 -5.97,-0.978 -9.218,-1.297c-3.156,-0.312 -6.283,-0.503 -9.308,-0.688c-3.016,-0.185 -5.864,-0.359 -8.69,-0.641c-2.59,-0.258 -5.179,-0.528 -7.767,-0.798c-3.408,-0.355 -6.814,-0.71 -10.222,-1.04l-4.429,-0.431c-4.54,-0.444 -9.079,-0.888 -13.621,-1.292c-4.473,-0.398 -8.989,-0.736 -13.356,-1.063l-4.762,-0.359c-3.748,-0.288 -7.486,-0.459 -11.101,-0.625c-2.366,-0.108 -4.731,-0.217 -7.095,-0.358c-2.485,-0.148 -4.989,-0.397 -7.64,-0.66c-3.414,-0.339 -6.944,-0.69 -10.576,-0.829c-3.704,-0.142 -7.294,-0.026 -10.767,0.085c-2.63,0.084 -5.114,0.165 -7.557,0.134c-2.366,-0.029 -4.762,-0.058 -7.171,-0.076c0.271,-2.3 0.506,-4.641 0.636,-7.007c0.199,-3.646 0.127,-7.177 0.057,-10.592c-0.051,-2.489 -0.099,-4.839 -0.043,-7.142c0.116,-4.813 0.246,-11.175 0.213,-17.696c-0.011,-2.167 0.018,-4.335 0.045,-6.503c0.046,-3.631 0.094,-7.387 -0.03,-11.189c-0.047,-1.462 -0.09,-2.926 -0.132,-4.39c-0.125,-4.332 -0.255,-8.811 -0.518,-13.281c-0.215,-3.672 -0.598,-7.274 -0.967,-10.758c-0.251,-2.363 -0.488,-4.594 -0.675,-6.838c-0.175,-2.091 -0.325,-4.184 -0.475,-6.276c-0.264,-3.687 -0.536,-7.498 -0.947,-11.32c-0.229,-2.134 -0.487,-4.263 -0.757,-6.373c2.074,-0.026 4.15,-0.044 6.204,-0.038c3.167,0.007 6.323,0.114 9.664,0.228c2.551,0.087 5.189,0.177 7.831,0.217c2.998,0.049 5.937,-0.042 8.779,-0.126c3.048,-0.091 5.927,-0.179 8.75,-0.102c3.174,0.085 6.318,0.247 9.646,0.418c2.625,0.135 5.252,0.27 7.88,0.366c2.816,0.103 5.666,0.346 8.683,0.604c2.861,0.244 5.819,0.497 8.838,0.63c3.099,0.136 6.13,0.121 9.062,0.105c2.971,-0.018 5.778,-0.031 8.521,0.106c2.651,0.133 5.376,0.45 8.262,0.786c2.984,0.347 6.069,0.706 9.269,0.878c3.3,0.178 6.475,0.104 9.541,0.031c2.847,-0.067 5.536,-0.132 8.094,0.013c2.907,0.163 5.812,0.369 8.716,0.573c2.958,0.209 5.916,0.417 8.876,0.584c2.729,0.154 5.46,0.406 8.352,0.671c2.998,0.275 6.099,0.561 9.242,0.733c2.335,0.129 4.669,0.264 7.002,0.399c3.548,0.206 7.094,0.411 10.639,0.595c3.241,0.167 6.48,0.262 9.613,0.353c2.656,0.078 5.403,0.158 8.057,0.281c2.62,0.122 5.299,0.301 7.889,0.474c0.111,0.007 0.222,0.015 0.333,0.022c-0.031,1.682 -0.119,3.259 -0.264,4.81z"/>
  <path fill="#ffffff" id="svg_3" d="m226.653,94.459c-0.11,-2.531 -0.214,-4.921 -0.263,-7.325c-0.106,-5.255 -0.339,-10.154 -0.585,-15.34l-0.138,-2.928c-0.256,-5.507 -4.958,-9.761 -10.424,-9.527c-2.84,0.125 -5.744,-0.078 -8.818,-0.292c-2.321,-0.162 -4.722,-0.329 -7.266,-0.371c-2.888,-0.049 -5.738,-0.007 -8.494,0.033c-2.937,0.042 -5.71,0.082 -8.524,0.021c-5.672,-0.126 -11.536,-0.255 -17.465,-0.087c-6.495,0.183 -11.971,0.569 -17.148,1.212c-3.298,-0.108 -6.597,-0.186 -9.898,-0.263c-2.279,-0.054 -4.561,-0.107 -6.843,-0.171c-3.186,-0.09 -6.365,-0.099 -9.439,-0.107c-2.676,-0.007 -5.441,-0.015 -8.114,-0.078c-2.621,-0.061 -5.285,-0.252 -8.106,-0.455c-3.042,-0.219 -6.188,-0.444 -9.417,-0.509c-3.245,-0.067 -6.391,0.063 -9.436,0.186c-2.829,0.114 -5.505,0.22 -8.099,0.176c-3.204,-0.057 -6.407,-0.107 -9.611,-0.158c-2.633,-0.042 -5.265,-0.083 -7.897,-0.128c-2.597,-0.044 -5.276,-0.267 -8.113,-0.502c-3.017,-0.25 -6.137,-0.509 -9.371,-0.567c-3.176,-0.056 -6.27,0.066 -9.256,0.185c-2.877,0.113 -5.594,0.219 -8.238,0.169c-3.551,-0.07 -7.1,-0.161 -10.647,-0.251c-2.274,-0.058 -4.548,-0.116 -6.821,-0.168c-2.88,-0.067 -5.752,-0.227 -8.793,-0.396c-2.812,-0.156 -5.719,-0.318 -8.646,-0.4c-3.19,-0.09 -6.471,-0.237 -9.643,-0.378c-2.596,-0.116 -5.191,-0.232 -7.785,-0.322c-0.034,-0.001 -0.067,-0.002 -0.101,-0.003c-3.546,-0.085 -7.042,-0.019 -10.424,0.046c-2.539,0.049 -4.937,0.097 -7.341,0.08c-2.424,-0.014 -4.848,-0.066 -7.271,-0.118c-3.398,-0.073 -6.917,-0.15 -10.438,-0.121c-3.484,0.026 -6.981,0.114 -10.364,0.198c-2.43,0.061 -4.86,0.122 -7.291,0.161c-3.195,0.051 -6.39,0.144 -9.584,0.237c-2.673,0.079 -5.346,0.157 -8.021,0.209c-2.851,0.056 -5.684,0.042 -8.683,0.024c-2.89,-0.015 -5.878,-0.031 -8.875,0.022c-3.082,0.055 -6.089,0.257 -8.997,0.451c-2.961,0.198 -5.759,0.385 -8.502,0.417c-3.256,0.038 -6.48,-0.005 -9.895,-0.051c-1.635,-0.021 -3.27,-0.043 -4.877,-0.056c-2.067,-0.488 -4.261,-0.311 -6.255,0.549c-5.449,2.348 -7.08,7.417 -6.279,11.399c0.164,0.815 0.426,1.591 0.771,2.316c0.456,3.349 0.884,6.732 1.302,10.03l0.606,4.755c0.775,6.025 1.494,12.165 2.163,17.935c0.23,1.991 0.468,3.982 0.706,5.974c0.47,3.938 0.957,8.01 1.369,11.982c0.307,2.954 0.469,5.958 0.641,9.139c0.156,2.893 0.318,5.883 0.599,8.912c0.299,3.216 0.509,6.413 0.73,9.798c0.176,2.688 0.358,5.469 0.588,8.243c0.235,2.831 0.524,5.656 0.804,8.388c0.34,3.323 0.661,6.462 0.896,9.633c0.481,6.473 0.898,12.382 1.276,18.065c0.201,3.03 0.494,6.027 0.777,8.926c0.308,3.162 0.6,6.148 0.778,9.134c0.175,2.939 0.231,5.9 0.29,9.035c0.055,2.954 0.113,6.009 0.279,9.096c0.158,2.94 0.369,5.882 0.573,8.728c0.222,3.091 0.451,6.288 0.603,9.379c0.165,3.352 0.296,6.705 0.427,10.058c0.105,2.692 0.211,5.385 0.333,8.076c0.136,2.999 0.323,6.003 0.503,8.908c0.189,3.039 0.385,6.181 0.515,9.227c0.13,3.058 0.217,6.208 0.301,9.253c0.082,2.971 0.164,5.94 0.285,8.912c0.128,3.135 0.243,6.271 0.357,9.406c0.106,2.921 0.213,5.843 0.331,8.762c0.126,3.141 0.317,6.279 0.501,9.313c0.178,2.917 0.361,5.934 0.479,8.853c0.128,3.171 0.312,6.348 0.49,9.42c0.167,2.883 0.34,5.863 0.46,8.758c0.11,2.654 0.032,5.411 -0.05,8.33c-0.09,3.189 -0.184,6.487 -0.034,9.901c0.146,3.322 0.447,6.57 0.738,9.71c0.272,2.939 0.53,5.716 0.66,8.468c0.125,2.654 0.231,5.309 0.337,7.962c0.137,3.419 0.274,6.837 0.45,10.253c0.142,2.749 0.236,5.594 0.327,8.344c0.106,3.222 0.216,6.553 0.405,9.883c0.191,3.383 0.462,6.75 0.724,10.007c0.217,2.69 0.44,5.472 0.611,8.173c0.271,4.306 3.273,7.951 7.446,9.045c2.459,0.645 4.917,1.23 7.292,1.798c3.656,0.873 7.109,1.697 10.481,2.695c4.709,1.396 9.523,2.957 14.179,4.468l7.204,2.324c4.538,1.457 9.229,2.964 13.776,4.518c2.739,0.936 5.49,2.08 8.403,3.291c2.854,1.187 5.805,2.413 8.896,3.501c3.02,1.063 6.058,2.038 8.995,2.981c3.017,0.969 5.867,1.884 8.707,2.889c3.414,1.207 6.847,2.375 10.286,3.544c2.471,0.84 4.944,1.681 7.415,2.539c2.527,0.878 5.037,1.84 7.695,2.859c3.211,1.23 6.531,2.503 9.957,3.646c0.84,0.279 1.713,0.446 2.596,0.497c0.186,0.053 0.451,0.134 0.66,0.197c0.996,0.306 2.359,0.724 3.982,0.933c0.609,0.36 1.257,0.657 1.934,0.882c3.009,1.004 6.009,1.994 9.009,2.984c2.981,0.983 5.963,1.968 8.954,2.965c0.495,0.165 1.003,0.291 1.518,0.377c1.506,0.251 2.953,0.356 4.341,0.356c4.31,0 8.046,-1.021 11.199,-1.882c1.643,-0.449 3.193,-0.873 4.671,-1.119c0.409,-0.068 0.814,-0.162 1.212,-0.28c2.811,-0.838 5.73,-1.637 8.555,-2.41c2.851,-0.78 5.798,-1.587 8.718,-2.454c2.787,-0.827 5.579,-1.612 8.366,-2.397c2.913,-0.819 5.926,-1.668 8.905,-2.556c3.272,-0.975 6.339,-2.146 9.304,-3.277c2.672,-1.02 5.194,-1.982 7.668,-2.729c2.61,-0.787 5.226,-1.498 7.994,-2.251c3.046,-0.827 6.195,-1.684 9.337,-2.649c3.217,-0.989 6.374,-2.07 9.427,-3.116c2.647,-0.907 5.148,-1.765 7.683,-2.565c2.498,-0.788 5.07,-1.47 7.794,-2.191c3.112,-0.825 6.33,-1.678 9.577,-2.738c1.722,-0.563 3.445,-1.12 5.169,-1.678c3.928,-1.271 7.99,-2.586 12.002,-3.951c3.307,-1.124 6.365,-2.4 9.323,-3.635c2.5,-1.044 4.861,-2.029 7.275,-2.887c3.693,-1.313 6.279,-4.663 6.614,-8.568l0.115,-1.352c0.483,-5.636 0.939,-10.959 1.493,-16.519c0.289,-2.89 0.771,-5.83 1.283,-8.942c0.482,-2.938 0.981,-5.976 1.332,-9.107c0.379,-3.379 0.845,-6.86 1.296,-10.226c0.351,-2.622 0.701,-5.245 1.021,-7.871c0.362,-2.973 0.642,-5.937 0.912,-8.803c0.306,-3.244 0.595,-6.308 0.992,-9.363c0.373,-2.874 0.7,-5.762 1.018,-8.555c0.359,-3.168 0.73,-6.442 1.16,-9.6c0.391,-2.876 0.913,-5.758 1.467,-8.811c0.543,-2.994 1.104,-6.091 1.546,-9.252c0.463,-3.307 0.717,-6.541 0.963,-9.67c0.235,-3.004 0.458,-5.841 0.847,-8.584c0.402,-2.844 0.911,-5.681 1.45,-8.685c0.547,-3.049 1.113,-6.203 1.566,-9.413c0.402,-2.848 0.881,-5.786 1.343,-8.628c0.504,-3.1 1.025,-6.305 1.474,-9.524c0.466,-3.353 0.885,-6.73 1.291,-9.998c0.341,-2.747 0.682,-5.494 1.052,-8.241c0.454,-3.38 0.732,-6.71 1.001,-9.932c0.244,-2.919 0.474,-5.677 0.821,-8.389c0.346,-2.698 0.767,-5.377 1.212,-8.213c0.51,-3.25 1.037,-6.611 1.445,-10.021c0.319,-2.665 0.724,-5.32 1.152,-8.131c0.5,-3.286 1.018,-6.683 1.396,-10.146c0.384,-3.509 0.612,-6.983 0.833,-10.342c0.184,-2.797 0.356,-5.44 0.611,-8.074c0.36,-3.723 0.615,-7.444 0.861,-11.043c0.168,-2.464 0.336,-4.927 0.539,-7.39c0.181,-2.208 0.381,-4.415 0.58,-6.621c0.349,-3.851 0.71,-7.832 0.97,-11.816c0.168,-2.558 0.435,-5.129 0.716,-7.851c0.355,-3.43 0.723,-6.977 0.895,-10.617c0.244,-5.199 0.378,-10.44 0.507,-15.509l0.078,-3.038c0.127,-4.802 0.135,-9.631 0.142,-14.301l0.01,-4.27c0.011,-3.832 -0.154,-7.606 -0.314,-11.256zm-19.701,15.494c-0.007,4.547 -0.014,9.25 -0.134,13.804l-0.079,3.056c-0.127,4.963 -0.258,10.095 -0.492,15.08c-0.145,3.078 -0.467,6.195 -0.81,9.496c-0.288,2.787 -0.587,5.668 -0.779,8.605c-0.244,3.737 -0.594,7.592 -0.931,11.32c-0.205,2.262 -0.41,4.524 -0.596,6.787c-0.209,2.552 -0.385,5.107 -0.56,7.663c-0.247,3.62 -0.48,7.04 -0.813,10.481c-0.285,2.941 -0.477,5.863 -0.662,8.689c-0.217,3.292 -0.421,6.402 -0.757,9.48c-0.333,3.042 -0.796,6.085 -1.287,9.307c-0.433,2.843 -0.881,5.782 -1.237,8.764c-0.365,3.048 -0.842,6.083 -1.347,9.297c-0.447,2.849 -0.909,5.794 -1.291,8.774c-0.403,3.149 -0.663,6.259 -0.914,9.266c-0.26,3.112 -0.505,6.051 -0.892,8.929c-0.379,2.812 -0.729,5.627 -1.078,8.443c-0.397,3.196 -0.808,6.501 -1.253,9.709c-0.416,2.99 -0.896,5.941 -1.404,9.065c-0.479,2.944 -0.974,5.987 -1.405,9.041c-0.402,2.843 -0.911,5.678 -1.449,8.68c-0.548,3.052 -1.114,6.206 -1.567,9.415c-0.476,3.357 -0.733,6.643 -0.983,9.819c-0.232,2.962 -0.452,5.761 -0.831,8.469c-0.385,2.76 -0.887,5.524 -1.417,8.451c-0.568,3.132 -1.156,6.371 -1.606,9.686c-0.458,3.376 -0.843,6.763 -1.215,10.038c-0.308,2.715 -0.626,5.521 -0.979,8.233c-0.441,3.402 -0.761,6.788 -1.07,10.062c-0.27,2.858 -0.524,5.56 -0.854,8.263c-0.311,2.548 -0.651,5.091 -0.991,7.635c-0.465,3.471 -0.945,7.061 -1.348,10.651c-0.294,2.623 -0.73,5.281 -1.193,8.095c-0.538,3.282 -1.096,6.677 -1.447,10.196c-0.405,4.063 -0.757,7.968 -1.102,11.941c-0.741,0.306 -1.474,0.611 -2.199,0.914c-2.772,1.157 -5.392,2.25 -8.058,3.156c-3.874,1.318 -7.864,2.609 -11.723,3.858c-1.742,0.563 -3.484,1.127 -5.221,1.695c-2.706,0.883 -5.516,1.628 -8.49,2.416c-2.827,0.749 -5.75,1.523 -8.694,2.454c-2.765,0.873 -5.498,1.81 -8.142,2.715c-3.039,1.041 -5.908,2.024 -8.821,2.92c-2.828,0.869 -5.684,1.646 -8.706,2.468c-2.776,0.755 -5.647,1.535 -8.521,2.4c-3.163,0.954 -6.145,2.093 -9.028,3.193c-2.74,1.046 -5.33,2.034 -7.883,2.795c-2.832,0.844 -5.771,1.671 -8.612,2.471c-2.877,0.811 -5.76,1.622 -8.639,2.477c-2.716,0.807 -5.432,1.55 -8.308,2.337c-2.748,0.752 -5.584,1.528 -8.422,2.365c-2.22,0.406 -4.222,0.953 -6.006,1.441c-2.911,0.795 -4.766,1.269 -6.385,1.16c-2.7,-0.898 -5.393,-1.787 -8.086,-2.677c-2.458,-0.811 -4.916,-1.622 -7.379,-2.44c-2.161,-1.403 -4.67,-2.197 -7.311,-2.294c-0.185,-0.053 -0.438,-0.13 -0.639,-0.191c-0.978,-0.3 -2.311,-0.709 -3.896,-0.921c-2.634,-0.908 -5.261,-1.915 -8.023,-2.974c-2.686,-1.03 -5.464,-2.095 -8.292,-3.077c-2.513,-0.873 -5.028,-1.729 -7.54,-2.582c-3.362,-1.143 -6.718,-2.283 -10.055,-3.464c-3.116,-1.103 -6.24,-2.105 -9.261,-3.075c-2.937,-0.943 -5.71,-1.833 -8.47,-2.806c-2.568,-0.903 -5.137,-1.972 -7.857,-3.103c-3.079,-1.28 -6.263,-2.604 -9.615,-3.749c-4.721,-1.613 -9.502,-3.148 -14.126,-4.634l-7.148,-2.307c-4.775,-1.549 -9.713,-3.15 -14.67,-4.62c-3.875,-1.146 -7.741,-2.07 -11.48,-2.963c-0.032,-0.394 -0.063,-0.785 -0.095,-1.175c-0.264,-3.285 -0.514,-6.388 -0.692,-9.535c-0.175,-3.095 -0.277,-6.163 -0.384,-9.411c-0.094,-2.841 -0.191,-5.779 -0.342,-8.713c-0.172,-3.34 -0.306,-6.681 -0.439,-10.022c-0.108,-2.702 -0.216,-5.404 -0.344,-8.105c-0.151,-3.203 -0.441,-6.339 -0.723,-9.371c-0.281,-3.036 -0.547,-5.904 -0.672,-8.741c-0.118,-2.693 -0.039,-5.493 0.045,-8.458c0.089,-3.134 0.181,-6.375 0.041,-9.728c-0.127,-3.058 -0.305,-6.121 -0.476,-9.084c-0.173,-2.986 -0.352,-6.073 -0.473,-9.068c-0.125,-3.123 -0.315,-6.244 -0.499,-9.262c-0.179,-2.933 -0.363,-5.966 -0.481,-8.901c-0.117,-2.896 -0.222,-5.793 -0.328,-8.688c-0.115,-3.166 -0.231,-6.331 -0.36,-9.492c-0.117,-2.882 -0.196,-5.765 -0.276,-8.647c-0.086,-3.12 -0.175,-6.346 -0.312,-9.553c-0.138,-3.241 -0.339,-6.483 -0.535,-9.618c-0.175,-2.822 -0.357,-5.741 -0.485,-8.572c-0.12,-2.65 -0.224,-5.301 -0.328,-7.952c-0.134,-3.42 -0.268,-6.841 -0.436,-10.26c-0.163,-3.315 -0.4,-6.625 -0.629,-9.825c-0.198,-2.758 -0.402,-5.61 -0.551,-8.373c-0.147,-2.737 -0.199,-5.486 -0.253,-8.396c-0.06,-3.197 -0.122,-6.503 -0.321,-9.85c-0.201,-3.363 -0.524,-6.679 -0.837,-9.886c-0.28,-2.874 -0.545,-5.588 -0.726,-8.309c-0.381,-5.735 -0.802,-11.696 -1.287,-18.221c-0.256,-3.447 -0.606,-6.874 -0.946,-10.188c-0.27,-2.639 -0.549,-5.368 -0.769,-8.009c-0.216,-2.599 -0.393,-5.29 -0.563,-7.892c-0.221,-3.371 -0.449,-6.857 -0.773,-10.345c-0.245,-2.641 -0.39,-5.311 -0.542,-8.138c-0.177,-3.284 -0.361,-6.679 -0.718,-10.125c-0.428,-4.126 -0.924,-8.276 -1.403,-12.29c-0.235,-1.967 -0.47,-3.933 -0.698,-5.903c-0.677,-5.835 -1.403,-12.046 -2.194,-18.187l-0.601,-4.716c-0.07,-0.555 -0.141,-1.113 -0.212,-1.673c1.93,0.016 3.882,0.021 5.834,-0.001c3.297,-0.038 6.505,-0.252 9.608,-0.46c2.791,-0.187 5.427,-0.363 8.02,-0.41c2.764,-0.049 5.508,-0.034 8.411,-0.02c2.987,0.016 6.08,0.032 9.179,-0.028c2.739,-0.053 5.478,-0.133 8.217,-0.213c3.105,-0.091 6.21,-0.182 9.315,-0.232c2.492,-0.039 4.983,-0.102 7.474,-0.164c3.296,-0.083 6.705,-0.168 10.014,-0.193c3.238,-0.02 6.455,0.044 9.86,0.118c2.527,0.054 5.054,0.107 7.58,0.123c2.653,0.013 5.293,-0.035 7.845,-0.084c3.294,-0.063 6.407,-0.123 9.496,-0.049c2.511,0.087 5.023,0.2 7.537,0.312c3.253,0.146 6.617,0.296 9.972,0.391c2.654,0.075 5.3,0.222 8.101,0.377c3.065,0.17 6.235,0.346 9.438,0.42c2.258,0.053 4.517,0.11 6.776,0.168c3.585,0.091 7.171,0.183 10.759,0.254c3.237,0.065 6.384,-0.061 9.428,-0.181c2.83,-0.112 5.501,-0.22 8.107,-0.172c2.585,0.046 5.251,0.267 8.073,0.501c3.034,0.252 6.171,0.512 9.424,0.568c2.643,0.045 5.284,0.087 7.927,0.128c3.189,0.05 6.38,0.1 9.57,0.157c3.186,0.055 6.271,-0.068 9.26,-0.189c2.876,-0.116 5.589,-0.225 8.232,-0.173c2.711,0.054 5.466,0.252 8.382,0.461c2.935,0.21 5.968,0.428 9.071,0.5c2.877,0.068 5.749,0.076 8.525,0.083c3.086,0.009 6.001,0.017 8.934,0.1c2.314,0.065 4.626,0.119 6.936,0.173c3.499,0.083 6.995,0.164 10.489,0.285c0.548,0.018 1.095,-0.007 1.638,-0.078c4.734,-0.617 9.803,-0.985 15.954,-1.158c5.424,-0.153 10.783,-0.035 16.513,0.091c3.124,0.069 6.214,0.024 9.201,-0.019c2.724,-0.04 5.297,-0.075 7.874,-0.034c2.014,0.033 4.051,0.175 6.206,0.325c0.36,0.025 0.721,0.05 1.083,0.075c0.119,2.813 0.219,5.603 0.276,8.465c0.054,2.637 0.168,5.257 0.278,7.791c0.155,3.574 0.303,6.949 0.289,10.305l-0.01,4.321z"/>
 </g>
</svg>