<svg width="512" height="512" xmlns="http://www.w3.org/2000/svg">

 <g>
  <title>background</title>
  <rect fill="none" id="canvas_background" height="402" width="582" y="-1" x="-1"/>
 </g>
 <g>
  <title>Layer 1</title>
  <path id="svg_2" fill-rule="evenodd" fill="#ffffff" d="m25.701,0l460.897,0c13.911,0 25.402,11.492 25.402,25.707l0,460.892c0,13.91 -11.491,25.401 -25.401,25.401l-460.898,0c-14.209,0 -25.701,-11.491 -25.701,-25.401l0,-460.892c0,-14.215 11.492,-25.707 25.701,-25.707l0,0zm253.737,119.758c-9.983,7.864 -18.147,17.842 -23.294,29.334l-3.018,7.26c-1.519,4.232 -2.728,9.073 -3.328,13.91c-0.299,2.119 -0.609,4.237 -0.609,6.351l0,4.237l0.31,6.655l1.209,8.769l-0.31,0l-3.328,0.299l-2.108,0c-25.711,-0.299 -50.204,-6.045 -72.587,-16.028l-13,-6.35c-2.418,-1.209 -4.836,-2.718 -6.955,-3.933c-14.52,-8.769 -27.52,-19.351 -39.312,-31.452c-7.265,-7.859 -13.61,-16.028 -19.656,-24.797c-6.355,12.096 -9.983,25.707 -9.983,40.221c0,5.446 0.6,10.887 1.509,16.028c0.3,2.119 0.909,4.237 1.509,6.351c4.237,15.729 12.711,29.639 24.203,40.226l5.746,4.836l-7.265,-1.509c-9.373,-2.423 -18.746,-5.446 -27.52,-9.073c1.209,18.751 8.474,35.989 19.966,49.599c10.582,13.001 25.091,22.684 41.729,27.521l-19.356,1.209l-16.028,-0.909c12.102,29.339 39.622,50.503 72.578,53.231c-30.238,22.074 -67.741,34.774 -107.962,35.074c29.638,17.848 63.814,29.04 100.407,31.147l24.192,0c113.719,-6.345 203.833,-100.397 203.833,-215.624l-0.31,-11.192c4.237,-3.322 8.784,-6.955 12.711,-10.887c9.673,-9.373 18.437,-19.656 26.001,-30.542c-11.802,7.559 -26.001,12.096 -41.42,12.096l-0.909,0l-0.62,0l0.62,-0.3c14.199,-9.074 25.401,-22.989 30.838,-39.317c-11.182,5.441 -23.294,10.283 -35.674,13.61l-1.819,0.3l-9.073,2.119c-13.91,-14.52 -32.966,-23.588 -54.131,-23.893l-0.62,0l-0.889,0c-6.056,0 -11.802,0.604 -17.548,1.814c-8.474,2.118 -16.328,5.446 -23.293,9.983l-5.436,3.626z" clip-rule="evenodd"/>
 </g>
</svg>