<svg width="775" height="514" xmlns="http://www.w3.org/2000/svg">

 <g>
  <title>background</title>
  <rect fill="none" id="canvas_background" height="516" width="777" y="-1" x="-1"/>
 </g>
 <g>
  <title>Layer 1</title>
  <path fill="#ffffff" id="svg_2" d="m234.856714,258.347c-6.126,-2.227 -12.452,-2.719 -18.034,-3.154c-0.77,-0.06 -1.537,-0.119 -2.299,-0.183c-4.545,-0.381 -9.183,-0.931 -13.826,-1.639c-1.21,-0.456 -2.575,-0.718 -4.083,-0.726c-0.023,0 -0.045,0 -0.068,0c-6.256,0 -9.997,4.549 -10.461,9.059c-0.189,1.836 0.145,3.621 0.882,5.203c-0.227,1.855 -0.505,3.758 -0.792,5.719c-0.413,2.826 -0.839,5.748 -1.14,8.744c-0.259,2.575 -0.489,5.157 -0.72,7.743c-0.338,3.791 -0.688,7.712 -1.126,11.5c-0.412,3.556 -0.677,7.088 -0.934,10.504c-0.234,3.112 -0.455,6.052 -0.776,8.977c-0.289,2.632 -0.692,5.275 -1.12,8.074c-0.568,3.719 -1.155,7.564 -1.481,11.531c-0.523,6.385 -0.897,13.034 -1.111,19.769c-0.195,2.661 -0.482,5.335 -0.787,8.163c-0.456,4.241 -0.928,8.628 -1.083,13.123c-0.253,7.318 0.649,14.467 2.684,21.302c-1.389,3.863 -3.493,7.807 -5.877,10.947c-3.622,4.771 -6.626,5.479 -7.993,5.636c-3.663,-0.179 -6.486,-3.125 -8.168,-5.474c-0.287,-2.048 -1.146,-4.688 -3.545,-7.087c-0.977,-0.976 -1.988,-2.646 -2.459,-4.062c-1.718,-5.152 -7.232,-7.998 -12.427,-6.396c-7.648,2.353 -14.726,5.636 -21.034,9.757c-4.688,3.062 -9.266,6.423 -13.693,9.673c-1.216,0.893 -2.423,1.779 -3.62,2.649c-4.338,3.155 -5.414,9.171 -2.438,13.634c0.834,1.251 1.628,2.612 2.469,4.053c0.952,1.631 1.936,3.316 3.102,5.066c0.698,1.047 1.373,2.1 2.043,3.145c2.364,3.685 4.809,7.495 8.085,11.001c4.176,4.469 9.273,8.175 15.585,11.33c6.982,3.49 14.02,5.363 19.372,6.604c6.728,1.561 13.08,2.322 19.383,2.322c0.319,0 0.639,-0.002 0.958,-0.006c5.902,-0.07 13.248,-0.158 20.518,-2.062c6.657,-1.743 13.127,-4.314 19.229,-7.643c0.096,-0.052 0.19,-0.105 0.284,-0.161c7.969,-4.689 12.977,-11.585 16.449,-17.068c4.598,-7.261 7.53,-14.033 8.965,-20.705c0.906,-4.216 1.174,-8.42 1.172,-12.462c2.396,-1.891 3.876,-4.839 3.806,-8.07c-0.122,-5.572 -0.2,-11.172 -0.24,-17.118c-0.035,-5.249 -0.005,-10.632 0.025,-15.838l0.008,-1.425c0.027,-5.043 0.085,-10.374 0.188,-17.288c0.04,-2.721 0.229,-5.494 0.432,-8.431c0.196,-2.866 0.399,-5.831 0.465,-8.865c0.124,-5.778 0.261,-11.557 0.409,-17.333c0.077,-3.024 0.06,-6.021 0.043,-8.918c-0.018,-2.927 -0.033,-5.69 0.041,-8.449c0.083,-3.061 0.099,-6.115 0.114,-9.069c0.016,-2.873 0.029,-5.586 0.1,-8.321c0.066,-2.575 0.287,-5.269 0.521,-8.121c0.254,-3.1 0.517,-6.305 0.588,-9.538c0.089,-4.284 -2.557,-8.152 -6.585,-9.616zm-13.94,17.52c-0.246,3.001 -0.5,6.104 -0.581,9.243c-0.075,2.939 -0.091,5.882 -0.105,8.729c-0.015,2.847 -0.031,5.792 -0.107,8.635c-0.083,3.086 -0.065,6.146 -0.048,9.104c0.017,2.869 0.033,5.58 -0.037,8.29c-0.149,5.802 -0.286,11.607 -0.411,17.415c-0.055,2.565 -0.234,5.17 -0.423,7.927c-0.21,3.071 -0.428,6.246 -0.476,9.504c-0.104,6.978 -0.162,12.367 -0.189,17.474l-0.008,1.422c-0.03,5.266 -0.061,10.711 -0.025,16.083c0.02,2.853 0.047,5.627 0.084,8.358c-2.563,1.943 -4.129,5.079 -3.949,8.499l0.018,0.342c0.307,5.8 0.596,11.278 -0.444,16.113c-0.931,4.327 -2.995,8.976 -6.31,14.211c-3.325,5.251 -6.281,8.483 -9.566,10.454c-4.633,2.511 -9.532,4.452 -14.564,5.77c-4.896,1.281 -10.631,1.351 -15.694,1.411c-4.999,0.055 -10.092,-0.528 -15.579,-1.801c-6.355,-1.475 -10.965,-3.02 -14.948,-5.011c-4.148,-2.074 -7.391,-4.395 -9.915,-7.097c-2.037,-2.179 -3.896,-5.077 -5.865,-8.146c-0.733,-1.144 -1.473,-2.294 -2.236,-3.439c-0.199,-0.298 -0.395,-0.603 -0.59,-0.913c3.021,-2.197 6.076,-4.369 9.069,-6.324c2.678,-1.749 5.486,-3.274 8.475,-4.598c0.094,0.122 0.189,0.243 0.285,0.363c0.195,1.154 0.592,2.27 1.177,3.293c6.343,11.102 16.224,17.468 27.108,17.468c0.256,0 0.512,-0.01 0.768,-0.029c8.838,-0.681 16.511,-5.23 22.804,-13.521c4.477,-5.896 8.156,-13.355 10.095,-20.467c0.538,-1.975 0.458,-4.066 -0.23,-5.993c-1.967,-5.511 -2.822,-11.134 -2.612,-17.191c0.13,-3.771 0.543,-7.61 0.98,-11.676c0.316,-2.944 0.644,-5.989 0.864,-9.072c0.009,-0.133 0.016,-0.267 0.021,-0.4c0.202,-6.469 0.559,-12.849 1.06,-18.963c0.269,-3.271 0.779,-6.611 1.318,-10.147c0.44,-2.881 0.895,-5.858 1.23,-8.91c0.358,-3.266 0.603,-6.517 0.839,-9.66c0.253,-3.366 0.493,-6.546 0.858,-9.702c0.469,-4.051 0.831,-8.104 1.18,-12.024c0.224,-2.511 0.447,-5.02 0.699,-7.522c0.255,-2.548 0.632,-5.123 1.03,-7.85c0.061,-0.413 0.121,-0.827 0.181,-1.243c2.248,0.258 4.485,0.48 6.704,0.666c0.803,0.067 1.61,0.13 2.42,0.193c1.947,0.151 3.85,0.299 5.664,0.512c-0.006,0.072 -0.012,0.146 -0.019,0.22z"/>
  <path fill="#ffffff" id="svg_3" d="m414.676714,389.247c-3.017,-7.711 -7.968,-13.325 -12.409,-17.798c-4.978,-5.017 -10.474,-9.189 -16.336,-12.402c-4.98,-2.73 -10.726,-5.283 -17.562,-7.804c-3.423,-1.262 -6.872,-2.446 -10.16,-3.536c-0.67,-1.465 -1.644,-2.865 -2.922,-4.144c-1.23,-1.23 -2.762,-2.118 -4.44,-2.576c-4.646,-1.267 -8.723,-3.169 -12.118,-5.651c-2.957,-2.164 -5.746,-5.021 -8.699,-8.047c-0.729,-0.747 -1.456,-1.492 -2.186,-2.227c0.434,-2.205 1.718,-4.357 3.533,-5.769c0.884,-0.688 4.082,-2.81 8.121,-1.254c2.204,0.849 4.635,0.886 6.858,0.118c0.719,0.318 1.905,1.148 2.904,1.882c0.574,1.138 1.179,3.814 1.52,5.32c0.185,0.819 0.365,1.611 0.552,2.357c0.751,3.003 2.85,5.489 5.686,6.732c2.833,1.243 6.085,1.104 8.804,-0.379c2.743,-1.496 5.563,-2.983 8.546,-4.558c2.925,-1.543 5.88,-3.103 8.788,-4.684c5.748,-3.127 11.215,-6.607 16.502,-9.974l0.718,-0.457c3.776,-2.403 5.495,-7.023 4.209,-11.311c-1.706,-5.688 -4.234,-11.29 -7.515,-16.654c-3.307,-5.407 -7.052,-11.03 -13.209,-15.136c-0.151,-0.101 -0.305,-0.197 -0.461,-0.29c-6.935,-4.097 -14.191,-5.824 -20.448,-7.121c-7.97,-1.652 -14.612,-2.244 -20.904,-1.865c-6.796,0.409 -13.094,2.018 -19.184,3.573l-0.739,0.188c-1.17,0.299 -2.345,0.587 -3.518,0.875c-5.104,1.254 -10.38,2.551 -15.509,4.65c-0.232,0.095 -0.462,0.199 -0.686,0.311c-4.557,2.278 -7.876,4.771 -11.718,7.658l-0.742,0.557c-0.061,0.045 -0.12,0.091 -0.179,0.137c-5.875,4.618 -10.394,10.215 -13.675,14.577c-3.76,5 -7.959,10.935 -10.208,18.107c-2.151,6.869 -2.867,14.297 -2.069,21.48c0.896,8.066 3.414,15.589 7.483,22.359c4.257,7.081 10.295,12.661 15.08,16.731c5.592,4.755 11.425,8.858 17.336,12.195c5.766,3.255 11.803,6.265 17.95,8.949c0.563,0.288 1.133,0.603 1.712,0.921c3.123,1.715 7.479,4.107 12.829,4.397c0.636,0.454 1.274,0.909 1.917,1.366c3.943,2.809 8.021,5.712 11.638,8.656c3.995,3.251 6.89,6.384 8.92,9.679c-0.622,0.976 -1.946,2.081 -4.832,3.285c-4.423,1.849 -10.401,2.403 -15.232,2.843c-7.193,-0.052 -13.229,-1.393 -18.936,-4.204c-0.117,-0.101 -0.227,-0.206 -0.339,-0.307c-0.712,-0.643 -1.809,-1.634 -3.367,-2.574c-0.47,-0.389 -0.935,-0.77 -1.394,-1.146c-5.019,-4.117 -7.713,-6.441 -9.329,-10.213c-1.06,-2.473 -3.07,-4.413 -5.579,-5.386c-2.511,-0.972 -5.303,-0.892 -7.751,0.222c-3.679,1.673 -7.246,3.468 -10.696,5.204c-1.867,0.94 -3.73,1.878 -5.6,2.79l-0.615,0.3c-5.212,2.541 -10.601,5.168 -15.827,8.304c-4.189,2.514 -5.949,7.686 -4.163,12.231c2.353,5.987 5.158,12.334 9.729,18.184c4.151,5.314 9.094,10.162 14.688,14.408c5.533,4.2 11.533,6.862 17.336,9.437l0.473,0.21c5.904,2.621 12.009,5.33 18.962,6.713c6.071,1.207 12.103,1.121 17.544,0.944c0.215,0.051 0.432,0.096 0.651,0.133c0.147,0.025 0.296,0.048 0.445,0.066c3.672,0.459 8.105,0.91 12.859,0.91c2.622,-0.001 5.342,-0.138 8.084,-0.485c6.309,-0.801 12.949,-2.649 20.3,-5.653c6.257,-2.556 12.396,-6.308 18.246,-11.15c4.959,-4.106 10.583,-9.239 14.687,-16.186c0.119,-0.201 0.23,-0.406 0.335,-0.615c1.955,-3.91 3.734,-9.045 5.288,-15.259c0.075,-0.299 0.136,-0.601 0.183,-0.905l0.33,-2.133c0.886,-5.691 1.802,-11.576 2.067,-17.465c0.295,-6.54 0.242,-14.288 -2.383,-22.165c-0.054,-0.157 -0.112,-0.317 -0.174,-0.476zm-17.423,21.746c-0.216,4.795 -1.009,9.894 -1.849,15.291l-0.263,1.693c-1.106,4.351 -2.315,7.936 -3.512,10.421c-2.533,4.149 -6.317,7.57 -10.04,10.651c-4.285,3.548 -8.678,6.254 -13.057,8.042c-5.712,2.334 -10.7,3.749 -15.253,4.327c-4.552,0.577 -9.384,0.293 -13.483,-0.143c-1.271,-0.513 -2.664,-0.773 -4.07,-0.719l-1.137,0.038c-5.198,0.18 -10.107,0.348 -14.476,-0.52c-4.772,-0.949 -9.618,-3.101 -14.763,-5.384l-0.462,-0.205c-4.976,-2.207 -9.675,-4.293 -13.354,-7.086c-4.222,-3.204 -7.93,-6.834 -11.02,-10.79c-1.245,-1.593 -2.331,-3.347 -3.305,-5.182c2.134,-1.085 4.324,-2.152 6.569,-3.247l0.619,-0.302c1.944,-0.948 3.882,-1.923 5.823,-2.9c0.733,-0.369 1.459,-0.734 2.179,-1.095c2.921,3.467 6.243,6.192 9.501,8.865c0.651,0.534 1.315,1.079 1.988,1.641c0.527,0.438 1.098,0.822 1.702,1.144c0.122,0.104 0.235,0.213 0.352,0.317c0.884,0.799 2.364,2.135 4.583,3.244c8.646,4.323 17.979,6.425 28.531,6.425c0.303,0 0.605,-0.014 0.907,-0.041l0.354,-0.032c5.887,-0.536 13.95,-1.27 21.243,-4.316c13.746,-5.74 17.194,-15.404 17.667,-22.5c0.111,-1.668 -0.197,-3.338 -0.898,-4.855c-3.283,-7.115 -8.498,-13.518 -15.94,-19.575c-4.116,-3.351 -8.461,-6.444 -12.662,-9.436c-1.568,-1.117 -3.122,-2.224 -4.638,-3.326c-2.26,-1.642 -5.05,-2.271 -7.79,-1.724c-0.749,-0.008 -2.968,-1.227 -4.293,-1.954c-0.883,-0.484 -1.752,-0.959 -2.609,-1.388c-0.159,-0.08 -0.32,-0.155 -0.483,-0.227c-5.608,-2.438 -11.114,-5.178 -16.363,-8.141c-4.806,-2.713 -9.587,-6.083 -14.21,-10.015c-3.849,-3.273 -8.152,-7.234 -10.896,-11.8c-2.574,-4.283 -4.172,-9.082 -4.748,-14.264c-0.494,-4.451 -0.052,-9.048 1.277,-13.292c1.298,-4.14 4.223,-8.23 7.106,-12.066c2.533,-3.366 5.95,-7.631 9.97,-10.81l0.654,-0.491c3.31,-2.486 5.538,-4.161 8.317,-5.592c3.682,-1.464 7.899,-2.5 12.356,-3.596c1.229,-0.303 2.461,-0.605 3.687,-0.918l0.745,-0.19c5.422,-1.385 10.543,-2.692 15.438,-2.987c4.482,-0.27 9.45,0.202 15.642,1.485c5.846,1.212 10.263,2.413 14.08,4.608c2.682,1.881 4.86,5.23 7.037,8.789c1.011,1.653 1.921,3.329 2.727,5.021c-3.027,1.88 -6.086,3.712 -9.136,5.371c-2.188,1.19 -4.404,2.367 -6.612,3.534c-0.927,-1.799 -2.108,-3.536 -3.655,-5.083c-0.335,-0.334 -0.692,-0.645 -1.071,-0.929c-3.833,-2.874 -10.532,-7.899 -18.957,-6.476c-8.377,-2.087 -17.206,-0.239 -24.198,5.194c-7.666,5.956 -12.003,15.529 -11.359,25.034c0.191,4.317 2.767,7.477 5.539,10.25c0.813,0.813 1.621,1.641 2.433,2.473c3.395,3.478 6.903,7.073 11.204,10.219c3.514,2.57 7.415,4.727 11.654,6.446c0.967,3.105 3.392,5.563 6.517,6.558c5.186,1.65 10.756,3.462 16.359,5.527c5.898,2.174 10.76,4.325 14.866,6.576c4.176,2.289 8.13,5.3 11.755,8.954c3.093,3.114 6.183,6.571 7.885,10.761c1.507,4.701 1.515,9.839 1.296,14.698z"/>
  <path fill="#ffffff" id="svg_4" d="m457.466714,145.407c-0.078,-5.327 -0.174,-10.653 -0.269,-15.979l-0.058,-3.195c-0.058,-3.251 -0.192,-6.498 -0.322,-9.637c-0.135,-3.27 -0.263,-6.358 -0.313,-9.479c-0.043,-2.569 -0.098,-5.141 -0.152,-7.713c-0.081,-3.784 -0.163,-7.573 -0.202,-11.371c-0.029,-2.826 -0.103,-5.605 -0.176,-8.383c-0.094,-3.561 -0.183,-6.925 -0.183,-10.405c0,-2.731 -1.117,-5.343 -3.092,-7.23c-1.975,-1.887 -4.645,-2.885 -7.362,-2.76c-2.825,0.128 -5.617,0.109 -8.572,0.092c-2.395,-0.016 -4.872,-0.031 -7.447,0.035c-2.835,0.073 -5.586,0.284 -8.246,0.489c-2.833,0.218 -5.509,0.423 -8.103,0.453c-2.416,0.03 -4.984,-0.148 -7.691,-0.335c-2.802,-0.193 -5.719,-0.392 -8.73,-0.385c-2.805,0.008 -5.593,0.085 -8.288,0.161c-2.831,0.079 -5.505,0.153 -8.188,0.153c-0.054,0 -0.108,0 -0.162,0.001c-2.22,0.036 -4.439,0.084 -6.658,0.132c-3.56,0.077 -7.239,0.156 -10.823,0.181c-2.605,0.018 -5.211,0.069 -7.817,0.12c-3.188,0.063 -6.479,0.125 -9.676,0.122c-2.382,-0.003 -4.774,0.007 -7.162,0.018c-3.401,0.016 -6.919,0.033 -10.348,0.002c-2.839,-0.024 -5.698,-0.167 -8.725,-0.318c-2.85,-0.143 -5.796,-0.29 -8.782,-0.334c-5.843,-0.086 -11.687,-0.179 -17.528,-0.291c-3.038,-0.059 -6.034,-0.009 -8.934,0.038c-2.987,0.049 -5.809,0.095 -8.611,0.03c-2.769,-0.063 -5.539,-0.105 -8.309,-0.147c-3.081,-0.046 -6.162,-0.093 -9.244,-0.171c-3.007,-0.077 -6.013,-0.179 -9.02,-0.281c-2.845,-0.097 -5.69,-0.193 -8.536,-0.269c-2.775,-0.073 -5.544,-0.232 -8.475,-0.399c-2.952,-0.169 -6.005,-0.344 -9.085,-0.425c-2.462,-0.065 -4.924,-0.135 -7.385,-0.204c-3.399,-0.096 -6.798,-0.191 -10.198,-0.277c-2.774,-0.07 -5.547,-0.185 -8.32,-0.298c-3.023,-0.124 -6.149,-0.252 -9.27,-0.324c-2.71,-0.063 -5.397,-0.186 -8.243,-0.317c-3.046,-0.14 -6.195,-0.285 -9.358,-0.347c-3.231,-0.063 -6.47,-0.058 -9.596,-0.062c-2.675,0.001 -5.354,0.003 -8.031,-0.038c-3.298,-0.048 -6.502,0.091 -9.602,0.225c-2.801,0.122 -5.448,0.239 -8.04,0.213c-2.627,-0.024 -5.25,-0.124 -8.027,-0.23c-3.122,-0.12 -6.349,-0.243 -9.617,-0.25c-3.584,-0.011 -7.182,0.04 -10.665,0.086c-2.331,0.03 -4.662,0.061 -6.993,0.075c-4.251,0.027 -8.546,0.101 -12.699,0.172l-4.967,0.083c-2.56,0.04 -5.135,-0.011 -7.862,-0.064c-3.184,-0.062 -6.476,-0.128 -9.841,-0.039c-3.679,0.102 -7.376,0.268 -10.952,0.429c-2.239,0.101 -4.477,0.201 -6.716,0.287c-3.815,0.146 -7.644,0.364 -11.347,0.576c-2.111,0.121 -4.223,0.241 -6.335,0.349c-2.494,0.127 -4.998,0.177 -7.648,0.229c-3.266,0.065 -6.644,0.132 -10.071,0.356c-3.995,0.261 -7.455,2.83 -9.03,6.705c-0.568,1.397 -0.813,2.905 -0.715,4.41c0.207,3.209 0.591,6.309 0.962,9.307c0.39,3.148 0.759,6.122 0.902,9.008c0.147,2.974 0.11,6.019 0.07,9.243c-0.037,2.969 -0.075,6.04 0.038,9.173c0.114,3.189 0.389,6.292 0.654,9.293c0.28,3.172 0.545,6.169 0.614,9.095c0.147,6.303 0.26,12.503 0.333,18.431c0.036,2.914 -0.112,5.896 -0.269,9.054c-0.15,3.037 -0.306,6.178 -0.297,9.394c0.009,3.763 -0.034,7.622 -0.075,11.354c-0.026,2.367 -0.052,4.733 -0.067,7.1c-0.018,3.026 0.042,6.039 0.099,8.952c0.064,3.292 0.126,6.4 0.084,9.519c-0.041,3.083 0.004,6.147 0.048,9.111c0.047,3.244 0.092,6.307 0.034,9.375c-0.056,2.938 -0.248,5.901 -0.45,9.038c-0.198,3.061 -0.402,6.225 -0.477,9.444c-0.077,3.296 0.012,6.524 0.097,9.645c0.085,3.09 0.165,6.009 0.089,8.875c-0.084,3.192 -0.202,6.384 -0.319,9.577c-0.11,2.978 -0.219,5.956 -0.303,8.935c-0.081,2.871 -0.291,5.765 -0.512,8.829c-0.228,3.137 -0.462,6.381 -0.557,9.685c-0.079,2.776 -0.164,5.554 -0.249,8.331c-0.104,3.402 -0.208,6.806 -0.302,10.21c-0.08,2.902 -0.221,5.774 -0.371,8.814c-0.156,3.171 -0.317,6.448 -0.4,9.737c-0.087,3.476 0.063,6.838 0.207,10.089c0.132,2.972 0.258,5.778 0.199,8.5c-0.001,0.071 -0.002,0.144 -0.002,0.215c0,3.087 -0.025,6.166 -0.049,9.24c-0.027,3.376 -0.053,6.745 -0.049,10.111c0.004,2.97 -0.046,6.029 -0.095,8.988c-0.056,3.391 -0.113,6.896 -0.093,10.396c0.021,3.589 0.173,7.139 0.32,10.571c0.131,3.054 0.255,5.938 0.293,8.833c0.03,2.3 0.049,4.6 0.068,6.9c0.035,4.093 0.07,8.325 0.167,12.529c0.139,6.044 0.359,12.167 0.573,18.088l0.049,1.366c0.099,2.745 0.072,5.538 0.042,8.494c-0.035,3.559 -0.072,7.238 0.122,11.012c0.004,0.085 0.01,0.17 0.016,0.256l0.171,2.216c0.442,5.701 0.86,11.086 1.077,16.462c0.311,7.716 1.108,14.012 2.585,20.414c1.118,4.842 5.624,8.132 10.574,7.717c2.974,-0.248 5.952,-0.289 9.104,-0.332c2.679,-0.036 5.448,-0.074 8.342,-0.244c2.809,-0.164 5.571,-0.423 8.242,-0.673c3.305,-0.31 6.426,-0.602 9.502,-0.715c3.111,-0.112 6.263,-0.068 9.597,-0.02c2.671,0.039 5.433,0.08 8.23,0.031c3.02,-0.052 5.965,-0.246 8.813,-0.435c3.149,-0.209 6.124,-0.405 9.022,-0.405c2.809,0 5.711,0.209 8.784,0.43c2.928,0.211 5.956,0.429 9.08,0.474c2.619,0.037 5.239,0.032 7.858,0.035c3.466,-0.006 6.737,-0.004 10.037,0.082c2.912,0.075 5.808,0.069 8.609,0.072c3.221,0 6.272,-0.003 9.315,0.104c5.979,0.21 11.956,0.44 17.933,0.689c0.069,0.003 0.137,0.005 0.206,0.007c2.754,0.058 5.548,0.257 8.505,0.467c2.998,0.214 6.097,0.434 9.269,0.508c4.533,0.106 9.064,0.22 13.596,0.333l4.202,0.104c3.027,0.074 6.054,0.16 9.081,0.246c2.909,0.082 5.817,0.164 8.723,0.237c2.88,0.072 5.761,0.149 8.641,0.227c3.057,0.081 6.114,0.163 9.175,0.24c3.294,0.081 6.49,-0.038 9.582,-0.155c2.886,-0.109 5.613,-0.209 8.254,-0.149c2.727,0.065 5.472,0.245 8.377,0.435c3.059,0.199 6.222,0.406 9.444,0.478c3.232,0.07 6.413,0.006 9.488,-0.058c2.901,-0.06 5.646,-0.116 8.36,-0.063c2.747,0.054 5.477,0.176 8.365,0.306c3.082,0.139 6.268,0.281 9.478,0.333c2.403,0.038 4.806,0.085 7.209,0.133c3.55,0.069 7.1,0.14 10.647,0.18c5.956,0.069 11.913,0.117 17.868,0.154c2.682,0.017 5.346,0.098 8.166,0.184c3.158,0.096 6.424,0.194 9.71,0.195c0.011,0 0.021,0 0.031,0c3.336,0 6.585,-0.182 9.728,-0.356c2.827,-0.158 5.498,-0.308 8.122,-0.324c2.646,-0.015 5.282,0.038 8.074,0.099c3.191,0.067 6.492,0.137 9.821,0.09l4.926,-0.064c4.325,-0.055 8.65,-0.109 12.973,-0.209c3.374,-0.076 6.676,-0.312 9.868,-0.539c2.783,-0.197 5.411,-0.385 8.018,-0.469c2.595,-0.082 5.262,-0.056 8.081,-0.026c3.261,0.033 6.63,0.066 10.021,-0.075c2.663,-0.112 5.172,-1.283 6.968,-3.253c1.797,-1.97 2.731,-4.575 2.599,-7.237c-0.121,-2.422 -0.27,-4.872 -0.42,-7.326c-0.208,-3.411 -0.423,-6.938 -0.549,-10.297c-0.105,-2.774 -0.277,-5.531 -0.443,-8.197c-0.2,-3.206 -0.389,-6.235 -0.469,-9.264c-0.076,-2.9 -0.021,-5.829 0.036,-8.929c0.052,-2.781 0.104,-5.657 0.059,-8.569c-0.049,-3.008 -0.224,-5.954 -0.393,-8.804c-0.179,-3.025 -0.349,-5.883 -0.367,-8.69c-0.02,-3.024 0.049,-6.033 0.122,-9.22c0.063,-2.702 0.126,-5.496 0.131,-8.295c0.005,-2.745 0.171,-5.551 0.346,-8.521c0.172,-2.908 0.349,-5.915 0.377,-8.997c0.027,-2.982 -0.047,-5.929 -0.118,-8.777c-0.076,-3.038 -0.148,-5.906 -0.104,-8.76c0.043,-2.824 0.037,-5.654 0.031,-8.391c-0.006,-3.019 -0.012,-6.141 0.05,-9.152c0.055,-2.675 0.28,-5.42 0.519,-8.325c0.244,-2.969 0.496,-6.039 0.574,-9.206c0.07,-2.841 0.1,-5.684 0.128,-8.525c0.03,-2.977 0.063,-6.054 0.145,-9.036c0.093,-3.342 0.2,-6.684 0.308,-10.026c0.081,-2.512 0.161,-5.024 0.235,-7.536c0.09,-3.002 0.115,-6.004 0.141,-8.906c0.025,-2.994 0.05,-5.822 0.138,-8.677c0.098,-3.169 0.045,-6.275 -0.005,-9.28c-0.049,-2.895 -0.095,-5.629 -0.013,-8.321c0.086,-2.798 0.22,-5.681 0.348,-8.47c0.138,-2.976 0.28,-6.052 0.371,-9.122c0.08,-2.727 0.183,-5.453 0.285,-8.18c0.118,-3.141 0.235,-6.282 0.321,-9.425c0.074,-2.721 0.206,-5.536 0.334,-8.259c0.143,-3.047 0.29,-6.197 0.366,-9.354c0.054,-2.198 0.112,-4.397 0.172,-6.596c0.099,-3.678 0.197,-7.356 0.27,-11.012c0.111,-4.944 0.129,-9.908 0.146,-14.708l0.02,-4.607c0.031,-5.731 -0.01,-11.509 -0.05,-17.098l-0.015,-2.171c-0.02,-2.852 0.04,-5.689 0.104,-8.692c0.069,-3.43 0.143,-6.972 0.091,-10.542zm-20.09,10.115c-0.063,3.008 -0.129,6.119 -0.108,9.251l0.016,2.177c0.039,5.526 0.08,11.241 0.049,16.845l-0.02,4.646c-0.017,4.707 -0.034,9.575 -0.142,14.355c-0.072,3.634 -0.17,7.268 -0.268,10.899c-0.06,2.216 -0.119,4.431 -0.173,6.648c-0.07,2.932 -0.207,5.832 -0.351,8.903c-0.132,2.818 -0.269,5.733 -0.348,8.648c-0.084,3.075 -0.2,6.148 -0.315,9.22c-0.104,2.781 -0.209,5.561 -0.291,8.341c-0.085,2.903 -0.224,5.895 -0.357,8.788c-0.132,2.865 -0.269,5.827 -0.359,8.782c-0.097,3.166 -0.045,6.268 0.006,9.267c0.048,2.899 0.094,5.637 0.012,8.331c-0.095,3.075 -0.121,6.148 -0.146,9.119c-0.025,2.928 -0.049,5.692 -0.132,8.484c-0.074,2.496 -0.154,4.991 -0.235,7.487c-0.108,3.372 -0.217,6.744 -0.31,10.116c-0.087,3.156 -0.12,6.322 -0.151,9.385c-0.027,2.746 -0.056,5.492 -0.123,8.237c-0.063,2.594 -0.282,5.249 -0.513,8.062c-0.253,3.078 -0.515,6.263 -0.582,9.554c-0.065,3.236 -0.06,6.472 -0.053,9.601c0.005,2.651 0.01,5.395 -0.03,8.046c-0.05,3.256 0.031,6.463 0.108,9.565c0.07,2.804 0.137,5.453 0.112,8.095c-0.022,2.584 -0.178,5.216 -0.343,8.002c-0.184,3.119 -0.374,6.344 -0.38,9.662c-0.004,2.588 -0.063,5.154 -0.125,7.872c-0.073,3.19 -0.149,6.489 -0.128,9.809c0.022,3.336 0.216,6.594 0.402,9.744c0.164,2.758 0.318,5.363 0.359,7.939c0.041,2.566 -0.007,5.146 -0.058,7.878c-0.059,3.185 -0.12,6.477 -0.031,9.826c0.089,3.388 0.298,6.74 0.5,9.981c0.166,2.663 0.322,5.179 0.418,7.706c0.093,2.468 0.227,4.961 0.371,7.425c-2.527,-0.024 -5.12,-0.035 -7.724,0.047c-3,0.097 -5.947,0.307 -8.798,0.51c-3.092,0.221 -6.013,0.428 -8.903,0.494c-4.256,0.097 -8.514,0.15 -12.771,0.204l-4.957,0.065c-2.98,0.043 -5.957,-0.021 -9.112,-0.088c-2.806,-0.059 -5.706,-0.118 -8.629,-0.103c-3.117,0.021 -6.162,0.19 -9.106,0.354c-3.001,0.168 -5.836,0.326 -8.616,0.326c-0.008,0 -0.016,0 -0.023,0c-2.985,-0.001 -5.959,-0.091 -9.107,-0.187c-2.815,-0.086 -5.726,-0.174 -8.648,-0.192c-5.92,-0.037 -11.842,-0.085 -17.765,-0.152c-3.493,-0.04 -6.987,-0.109 -10.481,-0.178c-2.43,-0.048 -4.858,-0.096 -7.286,-0.135c-2.919,-0.046 -5.823,-0.177 -8.897,-0.314c-2.887,-0.13 -5.873,-0.264 -8.876,-0.322c-0.89,-0.018 -1.774,-0.024 -2.655,-0.024c-2.205,0 -4.38,0.045 -6.502,0.088c-2.999,0.062 -5.832,0.12 -8.637,0.059c-2.792,-0.063 -5.605,-0.245 -8.583,-0.44c-2.979,-0.194 -6.06,-0.395 -9.201,-0.471c-3.262,-0.08 -6.428,0.042 -9.487,0.157c-2.911,0.109 -5.663,0.215 -8.327,0.147c-3.047,-0.076 -6.094,-0.158 -9.141,-0.239c-2.889,-0.077 -5.778,-0.154 -8.671,-0.228c-2.887,-0.072 -5.773,-0.153 -8.66,-0.235c-3.051,-0.086 -6.102,-0.173 -9.151,-0.248l-4.197,-0.104c-4.542,-0.113 -9.085,-0.228 -13.629,-0.333c-2.695,-0.063 -5.425,-0.258 -8.316,-0.463c-3.039,-0.217 -6.18,-0.44 -9.398,-0.511c-5.986,-0.25 -11.974,-0.48 -17.962,-0.691c-3.4,-0.119 -6.771,-0.116 -10.028,-0.116c-2.796,-0.001 -5.433,0.003 -8.079,-0.066c-3.566,-0.093 -7.123,-0.094 -10.569,-0.088c-2.516,0.001 -5.04,0.003 -7.56,-0.033c-2.548,-0.036 -5.162,-0.225 -7.93,-0.424c-3.29,-0.236 -6.692,-0.481 -10.22,-0.481c-3.559,0 -7.007,0.229 -10.342,0.448c-2.729,0.181 -5.306,0.352 -7.833,0.395c-2.482,0.043 -4.968,0.006 -7.602,-0.032c-3.438,-0.049 -6.994,-0.101 -10.616,0.031c-3.646,0.134 -7.2,0.466 -10.637,0.788c-2.616,0.245 -5.086,0.477 -7.548,0.621c-2.445,0.144 -4.873,0.176 -7.443,0.211c-0.446,0.007 -0.894,0.013 -1.343,0.02c-0.324,-2.65 -0.537,-5.46 -0.665,-8.626c-0.231,-5.746 -0.663,-11.311 -1.12,-17.202l-0.161,-2.075c-0.155,-3.122 -0.123,-6.302 -0.09,-9.664c0.03,-3.053 0.061,-6.209 -0.054,-9.411l-0.049,-1.366c-0.21,-5.857 -0.429,-11.915 -0.564,-17.829c-0.094,-4.059 -0.129,-8.217 -0.163,-12.237c-0.02,-2.332 -0.039,-4.663 -0.07,-6.993c-0.042,-3.193 -0.178,-6.364 -0.309,-9.43c-0.146,-3.4 -0.284,-6.611 -0.302,-9.829c-0.019,-3.277 0.034,-6.52 0.091,-9.951c0.05,-3.047 0.102,-6.197 0.097,-9.346c-0.004,-3.304 0.022,-6.61 0.048,-9.924c0.024,-3.092 0.049,-6.189 0.05,-9.295c0.067,-3.343 -0.077,-6.578 -0.216,-9.709c-0.136,-3.044 -0.264,-5.918 -0.194,-8.695c0.077,-3.049 0.226,-6.065 0.383,-9.259c0.148,-3.013 0.301,-6.128 0.387,-9.246c0.093,-3.384 0.197,-6.768 0.3,-10.15c0.085,-2.79 0.17,-5.581 0.25,-8.372c0.082,-2.866 0.291,-5.753 0.512,-8.809c0.228,-3.146 0.464,-6.399 0.557,-9.712c0.082,-2.921 0.19,-5.842 0.297,-8.762c0.12,-3.262 0.24,-6.522 0.326,-9.785c0.09,-3.404 -0.001,-6.732 -0.09,-9.951c-0.083,-3.003 -0.161,-5.84 -0.095,-8.63c0.065,-2.806 0.248,-5.63 0.441,-8.62c0.208,-3.223 0.424,-6.555 0.488,-9.949c0.064,-3.403 0.015,-6.78 -0.033,-10.045c-0.043,-2.958 -0.084,-5.752 -0.047,-8.555c0.046,-3.447 -0.021,-6.868 -0.086,-10.177c-0.058,-2.915 -0.111,-5.668 -0.095,-8.438c0.014,-2.333 0.04,-4.666 0.066,-6.998c0.042,-3.798 0.085,-7.726 0.076,-11.626c-0.007,-2.696 0.129,-5.444 0.273,-8.354c0.165,-3.322 0.335,-6.757 0.291,-10.289c-0.074,-6.001 -0.187,-12.277 -0.337,-18.654c-0.083,-3.573 -0.39,-7.036 -0.686,-10.385c-0.254,-2.872 -0.493,-5.584 -0.589,-8.25c-0.095,-2.651 -0.062,-5.351 -0.026,-8.209c0.042,-3.387 0.085,-6.888 -0.093,-10.48c-0.15,-3.031 -0.477,-5.965 -0.824,-8.815c2.436,-0.049 4.941,-0.107 7.466,-0.235c2.153,-0.11 4.306,-0.233 6.459,-0.356c3.61,-0.206 7.342,-0.419 10.968,-0.558c2.284,-0.087 4.568,-0.189 6.852,-0.292c3.491,-0.157 7.101,-0.319 10.594,-0.416c2.89,-0.077 5.813,-0.018 8.908,0.042c2.78,0.054 5.656,0.113 8.567,0.065l5,-0.083c4.1,-0.07 8.339,-0.144 12.482,-0.169c2.375,-0.015 4.751,-0.046 7.126,-0.077c3.41,-0.044 6.934,-0.09 10.365,-0.084c2.904,0.006 5.812,0.117 8.891,0.235c2.799,0.107 5.693,0.218 8.612,0.244c3.114,0.027 6.151,-0.104 9.088,-0.231c2.943,-0.127 5.722,-0.246 8.437,-0.208c2.778,0.041 5.559,0.041 8.334,0.04c3.03,-0.001 6.165,-0.001 9.197,0.058c2.9,0.057 5.781,0.189 8.831,0.33c2.833,0.13 5.762,0.265 8.702,0.333c2.942,0.067 5.977,0.192 8.912,0.312c2.816,0.115 5.728,0.235 8.631,0.308c3.382,0.086 6.763,0.181 10.144,0.276c2.471,0.07 4.942,0.139 7.416,0.205c2.774,0.073 5.542,0.231 8.473,0.399c2.952,0.169 6.006,0.344 9.088,0.425c2.795,0.074 5.591,0.169 8.387,0.264c3.063,0.104 6.128,0.208 9.191,0.285c3.149,0.08 6.3,0.128 9.45,0.175c2.716,0.041 5.433,0.082 8.148,0.145c3.199,0.074 6.351,0.022 9.4,-0.028c2.849,-0.046 5.54,-0.09 8.22,-0.039c5.872,0.113 11.747,0.206 17.62,0.293c2.634,0.039 5.278,0.171 8.077,0.311c3.098,0.155 6.3,0.315 9.552,0.343c3.56,0.03 7.144,0.015 10.611,-0.001c2.348,-0.011 4.69,-0.025 7.041,-0.018c3.396,-0.003 6.806,-0.062 10.098,-0.126c2.521,-0.049 5.041,-0.099 7.562,-0.116c3.731,-0.026 7.486,-0.107 11.118,-0.186c2.156,-0.046 4.313,-0.093 6.468,-0.128c2.935,-0.001 5.848,-0.083 8.665,-0.161c2.691,-0.075 5.232,-0.146 7.785,-0.153c2.315,0.007 4.736,0.161 7.302,0.337c2.98,0.206 6.061,0.42 9.293,0.381c3.248,-0.037 6.38,-0.278 9.409,-0.511c2.521,-0.194 4.901,-0.377 7.224,-0.437c2.037,-0.05 4.037,-0.044 6.131,-0.033c0.007,0.279 0.015,0.558 0.021,0.835c0.07,2.672 0.142,5.348 0.171,8.063c0.039,3.869 0.122,7.732 0.204,11.591c0.055,2.539 0.109,5.077 0.15,7.612c0.056,3.37 0.194,6.729 0.329,9.977c0.131,3.164 0.254,6.152 0.309,9.168l0.057,3.195c0.095,5.305 0.189,10.61 0.268,15.917c0.045,3.213 -0.022,6.423 -0.094,9.821z"/>
 </g>
</svg>